<svg id="Layer_1" data-name="Layer 1" xmlns="http://www.w3.org/2000/svg" viewBox="0 0 243.99 246.11"><defs><style>.cls-1{fill:#c21707;}.cls-2{fill:#fff;}</style></defs><path class="cls-1" d="M196.72,136.89q1.8-7.08,3.65-14.25a89.64,89.64,0,0,0,11.79-8.37,105.45,105.45,0,0,0,16.11-16.72A84.67,84.67,0,0,0,239.4,78.4,57,57,0,0,0,244,56.8c0-2.46-.12-5.09-.36-7.84a38.4,38.4,0,0,0-3.91-14A33.59,33.59,0,0,0,208.6,16.28a52.65,52.65,0,0,0-19,3.32,51.64,51.64,0,0,0-15.21,9.11,61.35,61.35,0,0,0-11.18,12.83,117,117,0,0,0-7.53,13.33,89,89,0,0,0-6.52,18.9c-.47,2-.95,4-1.42,6.14-.3,0-.6,0-.9,0a89.81,89.81,0,0,0,1.32-10.82c0-.24,0-.48,0-.72a77.63,77.63,0,0,0-1.55-17.74,54.8,54.8,0,0,0-7.6-18.77,46,46,0,0,0-39.78-21.1,68.49,68.49,0,0,0-33.14,8.29,94.51,94.51,0,0,0-24.39,19.2,127.23,127.23,0,0,0-18.1,25.59A196.72,196.72,0,0,0,11.21,91.92a199.75,199.75,0,0,0-7.93,28.94,176.94,176.94,0,0,0-3.23,27.3,101,101,0,0,0,3,28.27,79.34,79.34,0,0,0,11,25,61.81,61.81,0,0,0,19.69,18.72A55.23,55.23,0,0,0,85,222.38a69.41,69.41,0,0,0,6.41-3.45l.3.29c4.67,4.34,12.86,9.51,25.37,9.51a54.43,54.43,0,0,0,24.57-5.64q1.32-.66,2.61-1.38c2.58,1.6,5.26,3.12,8,4.53a94.38,94.38,0,0,0,14.82,6.11,65,65,0,0,0,19.73,3,40.14,40.14,0,0,0,24.31-7.74,46.13,46.13,0,0,0,18.37-32c.8-7.7-.45-14.44-3.72-20a22.16,22.16,0,0,0-16.88-10.92,20,20,0,0,0-2.32-.12,22.19,22.19,0,0,0-16.46,7.3A5.49,5.49,0,0,1,188.8,173a12.76,12.76,0,0,1-2.82,1.17l-.18.05a19.1,19.1,0,0,1-2.23.44c2.56-5.79,4.75-11.2,6.51-16.08A207.3,207.3,0,0,0,196.72,136.89Z"/><path class="cls-2" d="M124.29,79.49A66.12,66.12,0,0,0,126,67.78a54.48,54.48,0,0,0-1.1-12.63A32.36,32.36,0,0,0,120.45,44,24.53,24.53,0,0,0,112,36a25.05,25.05,0,0,0-12.72-3A46.28,46.28,0,0,0,76.8,38.58,72.4,72.4,0,0,0,58.13,53.32,104.84,104.84,0,0,0,43.21,74.46,174.77,174.77,0,0,0,32.14,99.35a177.77,177.77,0,0,0-7,25.71,153.61,153.61,0,0,0-2.83,23.8,78.21,78.21,0,0,0,2.28,22,57.38,57.38,0,0,0,7.87,18A39.75,39.75,0,0,0,45,201a31.85,31.85,0,0,0,16.57,4.39,32.27,32.27,0,0,0,13.91-3.11,50.49,50.49,0,0,0,12.17-8.14A71.18,71.18,0,0,0,97.75,182.9a91.4,91.4,0,0,0,7.6-12.45,6.68,6.68,0,0,0,.73-4.11,4.12,4.12,0,0,0-1.46-2.57,2.52,2.52,0,0,0-2.56-.27,5.8,5.8,0,0,0-2.75,2.93A58.85,58.85,0,0,1,94.09,174a60.83,60.83,0,0,1-8,8.33,47.43,47.43,0,0,1-10.34,6.77,27.38,27.38,0,0,1-12.08,2.75,17.73,17.73,0,0,1-8-2,19.74,19.74,0,0,1-7.23-6.58,34.42,34.42,0,0,1-4.94-11.72A64.44,64.44,0,0,1,42,154.16a191.12,191.12,0,0,1,6.5-43,173.37,173.37,0,0,1,13.73-35.6Q70.38,60.28,79.91,51.3t18.12-9a10.88,10.88,0,0,1,7.87,3.47q3.46,3.48,3.11,11a75.5,75.5,0,0,1-2.2,13.91,44.86,44.86,0,0,1-4.3,10.53,15.47,15.47,0,0,1-7.78,7,21.92,21.92,0,0,0,3.57,6.41,16.42,16.42,0,0,0,3.76,3.3,9.17,9.17,0,0,0,4.2,1.46,13.3,13.3,0,0,0,8.15-2.65,21.89,21.89,0,0,0,6-7.14A40.62,40.62,0,0,0,124.29,79.49Z"/><path class="cls-2" d="M169.25,150.88a185.3,185.3,0,0,0,5.94-19.5q3-11.8,6.14-23.88a68.3,68.3,0,0,0,16.56-10.25,83.19,83.19,0,0,0,12.72-13.18A62.33,62.33,0,0,0,218.85,70a35,35,0,0,0,2.92-13.18q0-2.74-.27-5.95a16.17,16.17,0,0,0-1.65-6,12.05,12.05,0,0,0-4-4.57,12.56,12.56,0,0,0-7.23-1.83,30.45,30.45,0,0,0-11,1.83,29.48,29.48,0,0,0-8.7,5.21,39.53,39.53,0,0,0-7.13,8.24,94.11,94.11,0,0,0-6.14,10.89A67.59,67.59,0,0,0,170.8,79q-2.1,8.77-4.3,19.76a77.31,77.31,0,0,1-10.34,2.57,61.92,61.92,0,0,1-10.71.91,34.43,34.43,0,0,1-6-.55,31.78,31.78,0,0,1-5.58-1.37,18.47,18.47,0,0,1-5.58-3,8.49,8.49,0,0,0-.55,5.67,13,13,0,0,0,1.65,3.85q2,3.11,7.78,5.12t15.1,2c2,0,3.87-.06,5.76-.19a37.82,37.82,0,0,0,5.4-.73q-2.19,11-5.31,22.6t-7.32,23.16q-2.38,6-4.39,10.79a89.5,89.5,0,0,1-4,8.42,56.18,56.18,0,0,0-5.58-1.55,26.79,26.79,0,0,0-5.95-.64,41,41,0,0,0-13.72,1.92,24.82,24.82,0,0,0-8.33,4.67,14.65,14.65,0,0,0-4.12,5.76,20.67,20.67,0,0,0-1.28,5.22c-.24,4,.91,7.23,3.48,9.61s6,3.57,10.25,3.57a32.24,32.24,0,0,0,14.64-3.3,48.66,48.66,0,0,0,12.08-8.6q4,2.74,8.69,5.95a93.24,93.24,0,0,0,10,6,72.21,72.21,0,0,0,11.34,4.66,42.7,42.7,0,0,0,13,1.92,17.77,17.77,0,0,0,11-3.29,24,24,0,0,0,9.61-16.47c.3-2.93,0-5.13-.83-6.59a27.34,27.34,0,0,1-7.5,5.95,35.37,35.37,0,0,1-7.69,3,41.25,41.25,0,0,1-8.6,1.28,24.55,24.55,0,0,1-8-1.28,52,52,0,0,1-7.41-3.21,78.1,78.1,0,0,1-7.23-4.3c-2.38-1.58-4.73-3.11-7.05-4.57a101.15,101.15,0,0,0,9.61-16.84Q166.68,158,169.25,150.88Zm19.4-73.58c1-3.54,1.77-6.22,2.38-8q2.75-7.87,6.77-11.81t6.59-3.93c2,0,2.93,1.64,2.93,4.94q0,8.24-5.95,16.47a58.36,58.36,0,0,1-15.83,14.64Q187.18,82.62,188.65,77.3ZM127.34,194.8q-3.12.91-5.5,1.83a4.63,4.63,0,0,1-3.11-.27,2.1,2.1,0,0,1-1.1-1.92c0-1.22,1-2.48,3-3.76s5.22-1.92,9.61-1.92a14.6,14.6,0,0,1,4.21.92Q130.45,193.88,127.34,194.8Z"/></svg>