<svg xmlns="http://www.w3.org/2000/svg" viewBox="0 0 453.7 173.94"><defs><style>.cls-1{isolation:isolate;}.cls-2{fill:#666;}.cls-16,.cls-2,.cls-7{opacity:0.5;}.cls-16,.cls-17,.cls-19,.cls-2{mix-blend-mode:multiply;}.cls-3{fill:#6b818a;}.cls-4{fill:#8aa6b2;}.cls-5{fill:#e9f5fd;}.cls-6{fill:#fff;}.cls-15,.cls-6{mix-blend-mode:screen;}.cls-7{fill:#d6e1e8;}.cls-17,.cls-8{fill:#c34c4a;}.cls-9{fill:#bbc5cd;}.cls-10{fill:#fff9b4;}.cls-11{fill:#fffbd0;}.cls-12,.cls-16{fill:#f9ce7a;}.cls-13{fill:#fef6b0;}.cls-14{fill:#69a148;}.cls-15{fill:#e44e48;}.cls-17{opacity:0.6;}.cls-18{fill:#4e0000;}.cls-19{fill:#893230;opacity:0.8;}.cls-20{fill:#75bb4a;}.cls-21{fill:#46b24e;}.cls-22{fill:#3e994c;}.cls-23{fill:#23742f;}</style></defs><g class="cls-1"><g id="Layer_1" data-name="Layer 1"><path class="cls-2" d="M453.7,102.62c0,39.39-101.58,71.32-226.85,71.32S0,142,0,102.62s101.56-71.3,226.85-71.3S453.7,63.24,453.7,102.62Z"/><path class="cls-3" d="M403.31,109c0,30.87-78.71,55.87-175.82,55.87S51.66,139.88,51.66,109s78.72-55.88,175.83-55.88S403.31,78.15,403.31,109Z"/><path class="cls-4" d="M451.94,87.17c0,40.06-100.17,74.77-224.28,74.77S2.49,127.23,2.49,87.17,103.1,14.6,227.22,14.6,451.94,47.09,451.94,87.17Z"/><path class="cls-5" d="M451.82,84.06c0,40.7-100.45,73.7-224.33,73.7S3.17,124.76,3.17,84.06,103.59,10.38,227.49,10.38,451.82,43.35,451.82,84.06Z"/><path class="cls-6" d="M451.82,84.06c0,40.7-100.45,73.7-224.33,73.7S3.17,124.76,3.17,84.06,103.59,10.38,227.49,10.38,451.82,43.35,451.82,84.06Z"/><path class="cls-7" d="M427.66,80.15c0,34.09-89.63,61.73-200.17,61.73S27.33,114.24,27.33,80.15s89.6-61.72,200.16-61.72S427.66,46.06,427.66,80.15Z"/><path class="cls-8" d="M346.73,36.85c-8.72-6.47-19.9-8.16-30.46-9.15-6.46-.58-12.94.09-19.26-1.68-3.14-.87-6-2.81-9.06-4.08a64.33,64.33,0,0,0-9.4-2.9c-10.39-2.53-21.28-4.56-32-4.31-12.12.27-23.73,4.42-35.71,6a95.1,95.1,0,0,1-19.23.37c-6-.46-11.67-2.52-17.78-2.55a100.55,100.55,0,0,0-26.22,3.41,65.74,65.74,0,0,0-7.2,1.33c-7.5,2-13.46,5.26-19.83,9.67-6.77,4.68-15,4.27-22.28,7.4a11.63,11.63,0,0,0-6.76,11.51c.5,5.93,7.12,8.47,12,9.13,7,1,14.45-1.19,21.44-1.76,9.2-.73,18.12-.2,26.3,4.43,14.82,8.4,28.21,18.77,44.27,24.84,14.24,5.36,32,7.11,46.85,3.72,16-3.66,28.62-15.35,44.85-18.13,17-2.94,34.53,2.12,51.13-3.13,7.86-2.47,19-7.78,23-15.51C365.7,47.07,351.91,40.7,346.73,36.85Z"/><path class="cls-9" d="M405.56,79.17c0,32.29-79.73,58.5-178.07,58.5S49.42,111.46,49.42,79.17s79.72-58.51,178.07-58.51S405.56,46.87,405.56,79.17Z"/><path class="cls-6" d="M403.31,79.37c0,30.28-78.71,54.82-175.82,54.82S51.66,109.65,51.66,79.37s78.72-54.81,175.83-54.81S403.31,49.1,403.31,79.37Z"/><path class="cls-10" d="M339.92,51c-23.16-21.52-71.9-13.81-99-9.34a206.78,206.78,0,0,0-27.09,6.58A219.94,219.94,0,0,0,182,49.56C153.15,45,106,41.13,93.73,60.08,85.44,63.7,77.61,69.55,77.47,77,77.29,85.92,84.59,89.83,94,91.18c.48.26,1,.47,1.55.72,0,5.75,2.62,11.27,8.82,13.35,35.83,12.1,81.76,7,124.24-3.17,16.53,1.57,36.83.54,47.65-8.22,3,.25,6,.5,9,.65,22.41,3.27,47.2,3.6,64-12.08C361.15,71.27,353,55.72,339.92,51ZM157.06,95.68c-8.39-3.33-13.76-6-16.24-8,4.7-1.53,9.4-3.19,14.12-4.91,2.91.09,6.22.22,9.95.48.9,0,1.82,0,2.74,0,4.09,1.76,8.18,3.46,12.29,5.17C172.34,91,164.73,93.42,157.06,95.68Zm2.37-34.42c2.38-.53,4.77-.86,7.16-1.25,2.43.53,4.86,1.11,7.28,1.8-4.77,1.61-9.57,3.22-14.34,4.78-2.46-.9-4.92-1.75-7.38-2.57A31.52,31.52,0,0,1,159.43,61.26ZM296.09,81.51c1.32-1.1,2.28-3.93.06-3.25s-4.74,1.35-7.11,2c-1.56-.32-3.15-.64-4.74-1a13.2,13.2,0,0,0-2.21-8c12.36,4.65,25.32,10,37.88,11A97.51,97.51,0,0,1,296.09,81.51Zm27.35-8.41s0,0,0,0c-7.44-.75-15.41-3.36-23.18-6.25l9.54.41c5.11-1,9.23-1,12.47-.15C322.66,69.1,323.06,71.1,323.44,73.1ZM179.6,74.24a196.19,196.19,0,0,1,19.19-4.64c4.67,1.52,9.33,3.16,13.93,4.84-.49.18-1,.36-1.54.53a6.06,6.06,0,0,0-2.9,3.15c-3.62-.5-7.17-.93-10.69-1.33-5-.53-10-1-15.18-1.47C181.48,75,180.54,74.62,179.6,74.24ZM320,55.93c.14.65.27,1.28.39,1.94-11.27-2.4-24.76-1.87-38.84.28C294.23,55.6,307.14,55.36,320,55.93ZM189.57,92.18q7.05,2.67,14.36,4.9Q186,99.32,168.2,100.65C176.57,97.61,184.15,94.37,189.57,92.18Zm49-42a170.12,170.12,0,0,1,65.68-1.47,187.89,187.89,0,0,0-37.09,7.14,249.83,249.83,0,0,0-28.91-5.59A1.87,1.87,0,0,0,238.54,50.21Z"/><path class="cls-11" d="M343.69,42.32c-1-.63-2-1.19-2.95-1.73-22.87-12.72-52.16-13.52-77.88-6.05a185.84,185.84,0,0,0-43.41-3.84c-15.28-3-29.43-2.85-38,2-1.91,1.11-3.69,2.24-5.37,3.42A145.28,145.28,0,0,0,159.38,42c-3-.32-5.84-.61-8.33-.82C129.35,39.43,82,42.58,69.86,66c-15.14,29.15,32.22,37.47,57.65,40.14,17.35,12.19,40.14,15.65,62.61,13.49a49.23,49.23,0,0,0,9.24-1.88,53.4,53.4,0,0,0,14.35,0,.93.93,0,0,1,.24,0c18.89,3.42,45.93,4.22,67.5-3a166.91,166.91,0,0,0,17.82-1c26.46,5.24,51.88,4,69.83-18.18,12-14.85.72-31.84-12.49-43.64,12,3.08,20.63,8.75,18.24,18.91-1.12,4.75,5.81,1.69,6.54-1.38C385.54,52.34,367.69,44,343.69,42.32ZM302.2,107c-1.14-.22-2.28-.47-3.4-.73,1.25-.89,2.47-1.84,3.61-2.83,18.49-16.28,23.15-38,.42-53.06l1.63-.45c1.69-.29,5-.61,9.24-.84a133.57,133.57,0,0,1,23.46,8Q375,69.35,332.35,99.45A102,102,0,0,1,302.2,107ZM179.54,77.25a82.24,82.24,0,0,1-.15-16.54c5.33,1.43,10.6,3.09,15.75,4.81-1.84,1.85-3.65,3.73-5.33,5.78a25,25,0,0,0-5,10C183,80,181.27,78.68,179.54,77.25Zm11.1-37.79a134.13,134.13,0,0,1,19.91-1.92c.72,0,1.47,0,2.19-.06,1.49.29,3,.62,4.59,1.05a128.49,128.49,0,0,1,21.31,3.28,96,96,0,0,0-30.09,12.8,113.13,113.13,0,0,0-24.68-8.53A18.81,18.81,0,0,1,190.64,39.46Zm93.68,9.9c-1.77.55-3.51,1.13-5.22,1.71a62.65,62.65,0,0,0-9.73-6.35c1.14,0,2.28-.11,3.39-.07A108.87,108.87,0,0,1,284.32,49.36Zm-14.13,14c.54,1.43,1,2.8,1.37,4.12Q271,77.21,257,89.29C246.8,79.91,256.76,70.56,270.19,63.33Zm-22.56,8.85c-4.47,8.62-2.84,15.48,1.87,21q-2.62.7-5.28,1.23c-.32-4-2-8.43-5.56-13.36a48.77,48.77,0,0,0-7.07-7.54c2.2-7.47,4.41-14.89,6.59-22.31,2.78-1.68,5.67-3,8.53-4.43.55,0,1-.23,1.6-.27,1-.2,2-.24,3-.41,1,.5,2,1,3,1.49,5.62,2.59,9.8,5.42,12.71,8.48C257.8,60.57,250.82,66,247.63,72.18Zm-33.92,1.47c.56.3,1.14.56,1.71.86A29.75,29.75,0,0,0,218,87.66L211,94.37c-.48-.13-.95-.27-1.44-.43A81.94,81.94,0,0,1,213.71,73.65ZM281,93.17c.56-.42,1-.87,1.5-1.29-1.76,2.63-3.53,5.24-5.29,7.86-1.63-.61-3.18-1.26-4.77-1.92A34.65,34.65,0,0,0,281,93.17Zm8.53-19.89c1.28-6-.61-11.59-4.78-16.66,2.76-1.1,5.36-2.06,7.77-2.91a88.79,88.79,0,0,1,10.7,7.36c-4.49,6.65-9,13.32-13.44,19.95A15.88,15.88,0,0,0,289.57,73.28ZM157.65,59.35c-3.63,10.92-2,22.37,3.41,32.28a52.5,52.5,0,0,1-17.49-10.48Q150.59,70.23,157.65,59.35ZM169,91.8c-.21-4.1-.24-7.93-.15-11.6a58.25,58.25,0,0,0,15.71,10.57,27.49,27.49,0,0,0,1.66,5.39,112.25,112.25,0,0,1-12.68-1.31Q171.26,93.35,169,91.8Zm91,9.45A81.17,81.17,0,0,0,270.27,106a111.86,111.86,0,0,1-15.9-3.91C256.27,101.84,258.14,101.58,260,101.25ZM321.64,41.8c-15.34-2.75-31.87-3.56-44.33-3.64,3-.3,5.95-.67,9-.68A91.5,91.5,0,0,1,321.64,41.8ZM94.8,94c-26.83-8.4.4-39.77,19.29-43.85a140.52,140.52,0,0,1,34.29-2.71c-1.46.84-2.85,1.73-4.19,2.65a126.31,126.31,0,0,0-12.67,1.06c-11.85,1.61-32.14,16-24.64,30.94a63.4,63.4,0,0,0,13.65,18.35A225.58,225.58,0,0,1,94.8,94Zm54.05,14.09a46.34,46.34,0,0,1-8-3.26c.26-.72.12-1.34-.82-1.43s-1.6-.24-2.41-.33c-18.46-11.67-21.45-34.54-3.55-43.16a15.2,15.2,0,0,0-2.58,8.72c1,21.6,17.72,29.75,36.64,32.84a52.14,52.14,0,0,0,16.15,11.85A89.85,89.85,0,0,1,148.85,108.05Zm88.72,5.36a68.79,68.79,0,0,1-7.75-.29,34,34,0,0,0,8.88-5.6,79.22,79.22,0,0,0,16.45,5C249.29,113,243.44,113.35,237.57,113.41Zm84.37-4.21c15.68-5.34,34.95-11.91,41-26.71C359.48,97.24,339.42,109,321.94,109.2Z"/><path class="cls-12" d="M389.25,57.32c-7.19-4.84-16.83-4.9-25.69-3.24a102.09,102.09,0,0,0-11.13-4.23,78.76,78.76,0,0,0-27.32-3.65,74.31,74.31,0,0,0-9.55-2.82c-4.38-6.47-10.51-11.72-18.07-14.11-18.28-5.76-38.3.27-52.58,12.68-.29-.3-.57-.62-.89-.91-10.42-9.43-27.42-12.4-41-12.44a69.32,69.32,0,0,0-25,5q-3.15-.51-6.13-.84a76.21,76.21,0,0,0-32.09,3,37,37,0,0,0-29.47,9.74c-.91.05-1.82.12-2.71.24a45.32,45.32,0,0,0-11.21,3s-.07,0-.12,0c-8-1.66-20.28,1.24-26.42,7-11.74,11-7.83,26.65,3,35.57,3.67,8.16,13.22,10.36,21.3,9.06a29.44,29.44,0,0,0,12.17-5.42,35.34,35.34,0,0,0,6.4,3.86,28.92,28.92,0,0,0,7.06,6.46c9.54,6.06,23.81,8,35.18,4.94a49.06,49.06,0,0,0,10.71-.78,47.92,47.92,0,0,0,16.38,6.73,43.69,43.69,0,0,0,18.77-.43c11.91,2.73,25.48,1.54,36.8-1.29,1.68-.44,3.4-.94,5.1-1.49a26.94,26.94,0,0,0,3.66,1.38A35.68,35.68,0,0,0,274.15,123a48.46,48.46,0,0,0,21.66-8.25,84.15,84.15,0,0,0,11.35.32c10.11-.38,23.33-4.29,33.45-11,16.61.6,33-2.46,46.63-11.88,3.87-2.67,7-7.4,5.85-12.3C397,72.2,397.27,62.74,389.25,57.32ZM336.67,96c-3.87-.33-7.65-.84-11.4-1.5,1-.52,1.93-1.06,2.87-1.62a37.59,37.59,0,0,0,5.28-3.74c2.56,2.68,6.24,4.37,10.27,5.36a19.19,19.19,0,0,1-1.85,1.87C340.09,96.3,338.38,96.17,336.67,96ZM297,107a64.18,64.18,0,0,1-8.82-2.16l-.75-.28a95.07,95.07,0,0,0,14.28-1.65l-.18.18A48.1,48.1,0,0,1,297,107ZM139.51,99.53a29.11,29.11,0,0,0,11.38-7.26,19.48,19.48,0,0,0,3.48-5,30.17,30.17,0,0,0,0,4.94,19.93,19.93,0,0,0,4.7,11.28,24.79,24.79,0,0,1-5.76,1.35A32,32,0,0,1,139.51,99.53Zm-21.94-7a32.57,32.57,0,0,1-3.19-5.41c5.63-7.26,8.25-16.31,3.4-24.14a32.87,32.87,0,0,0-3-4,42.73,42.73,0,0,1,4.55-6.37,48.35,48.35,0,0,1,18.37,8.52,124.22,124.22,0,0,0-8.4,11.49c-4.6,7.06-5.35,15.61-2,22.58A30.54,30.54,0,0,1,117.57,92.55ZM106.25,58.66a23.49,23.49,0,0,1,2.38,1.83,31.68,31.68,0,0,0-3.55,11.13,37.78,37.78,0,0,0,.66,11.9C100.7,76.21,101.88,66.68,106.25,58.66Zm5.07-7.19,1.61.11,1.91.2a41.6,41.6,0,0,0-3.27,4c-.75-.65-1.56-1.22-2.35-1.78C109.89,53.13,110.6,52.3,111.32,51.47Zm1.35,31.17a35.7,35.7,0,0,1-1.53-8.28,25.75,25.75,0,0,1,1.14-9.72c3.17,4.77,4,10.83.55,17.7ZM133.18,42a40,40,0,0,1,11.47,1.71,31.64,31.64,0,0,1,7.55,3.5,75.34,75.34,0,0,0-9.31,8.16A54.54,54.54,0,0,0,125,47,41.91,41.91,0,0,1,133.18,42ZM178.45,38c7.08,1.23,15,3.35,21.33,7.05a77.34,77.34,0,0,0-27.57,11.18,53.62,53.62,0,0,0-9.61-10.85A87.12,87.12,0,0,1,178.45,38ZM373.63,85a34.52,34.52,0,0,1-19.13,3.33,21.87,21.87,0,0,0-.15-15.92A36.93,36.93,0,0,1,375.27,74C378,77.9,378.85,82.22,373.63,85ZM313.46,58.81c4,11.08,2.32,22.51-2.92,32.3C306.66,90,302.86,88.8,299,87.43c.55-1.05,1.07-2.1,1.54-3.18,4.22-9.63,3.93-19.28-.52-27.65,1.1-.3,2.22-.59,3.36-.83a43.86,43.86,0,0,1,9.07.69C312.84,57.25,313.17,58,313.46,58.81Zm-32.9-9.06a28.68,28.68,0,0,1,6.54,4.62c-2,1-4,2-6,3.12A34.35,34.35,0,0,0,273,63.77c-.7.6-1.37,1.24-2,1.91a32.68,32.68,0,0,0-10.87-9.46A64.73,64.73,0,0,1,280.56,49.75ZM294.3,64.32c3.24,7,2,14.31-1,21-.51-.18-1-.38-1.53-.59-6.38-2.54-12.59-6.52-15.16-13.2a5.16,5.16,0,0,1-.2-3.25,52,52,0,0,1,15-8.84A32.35,32.35,0,0,1,294.3,64.32Zm-66.16,32.3a30.5,30.5,0,0,1-5.81-8.23c1.67,1.07,3.38,2,5.13,2.89a40.76,40.76,0,0,0,1.41,4.8ZM198,106.27a30.06,30.06,0,0,1-8.74-6.11,71.25,71.25,0,0,0,19.81-18.51c.51-.71,1-1.45,1.51-2.19l2.23,1.82a.56.56,0,0,1,0,.17c-.76,7,2.74,12.86,6.66,18.26.31.45.64.86,1,1.27a65.56,65.56,0,0,1-17,4.74C201.78,106,200,106.16,198,106.27Zm-6.57-30.9a56.85,56.85,0,0,1,10.83-8.65,19.64,19.64,0,0,0,1.16,4.07,13,13,0,0,0,1.4,2.62c-.67.3-1.36.59-2,.87-2.25,1-3.55,5.77-.09,4.23,1.47-.65,3-1.31,4.67-2l.91.92c-5,8.3-13.7,15.48-21.53,20C181.66,90.33,186,81,191.45,75.37ZM265,73A39.25,39.25,0,0,0,259,65.47a23.85,23.85,0,0,1,6.25,7A4.89,4.89,0,0,0,265,73Zm-40.53-14.7a.72.72,0,0,1,.22,0,49.67,49.67,0,0,0-4.73,5.75c-.72,1-1.36,2-2,3-.77.47-1.59.93-2.41,1.36a26.29,26.29,0,0,0,.8-8.2A60.58,60.58,0,0,1,224.42,58.32Zm11.08,7.07a25.14,25.14,0,0,1,2.07,5.32,30.73,30.73,0,0,0-3.61,9.7A48.56,48.56,0,0,1,235.5,65.39ZM224.11,67.5a29.22,29.22,0,0,0,5.72-5.41c-.26.63-.55,1.3-.81,2a44.44,44.44,0,0,0-2.82,18.6,60.09,60.09,0,0,1-6-4.57A22.82,22.82,0,0,1,224.11,67.5Zm21.33,7.32a33,33,0,0,0-.28-5.17,2.43,2.43,0,0,1,.28-.4c.57-.85,1.18-1.64,1.79-2.42A36.59,36.59,0,0,1,245.44,74.82ZM212.15,61.76a20.82,20.82,0,0,1-.66,8.37,18.11,18.11,0,0,1-3.65-6.47C209.25,63,210.7,62.33,212.15,61.76Zm30.18,28.82s0-.06,0-.13a50,50,0,0,0,7.64-13,42.37,42.37,0,0,0,2-6.84,34.31,34.31,0,0,1,8.19,12,18.41,18.41,0,0,0,.13,11.91,7.91,7.91,0,0,1-.56,1.13A148.17,148.17,0,0,1,242.33,90.58Zm-38.2-38.47c-9.91,1.62-20.25,4.6-28.42,10.13-.24-.51-.51-1-.78-1.5,7.73-5.34,17.71-7.94,27.28-9.6.85-.15,1.69-.24,2.53-.35C204.54,51.23,204.31,51.66,204.13,52.11ZM167.81,96.83a16,16,0,0,1-2.36-7.15,20.71,20.71,0,0,1,6-17.16C173.84,81,173.21,90,167.81,96.83Zm1.77-29.63a43.37,43.37,0,0,0-5.42,6.23A28.23,28.23,0,0,1,169,66Zm9.89,12.34a31,31,0,0,0-1.61-12,67.3,67.3,0,0,1,18.12-7c2.05-.48,4.1-.94,6.16-1.34-.09.58-.11,1.14-.17,1.68-9.57,5.62-18.34,13.33-22.75,23.5a19.1,19.1,0,0,0,.23,16.62c-1.61.66-3.27,1.23-4.95,1.77a19.09,19.09,0,0,1-3.66-2.47A36,36,0,0,0,179.47,79.54Zm2,24.77c.27.37.57.74.88,1.11-.76-.16-1.51-.33-2.25-.53C180.59,104.72,181.05,104.49,181.51,104.31Zm67.16-1.22a34.13,34.13,0,0,1-3-4.66q4.49,1.44,9,2.56c-.09.06-.12.11-.2.16A27,27,0,0,1,248.67,103.09ZM270,93.85a31.79,31.79,0,0,0,4.33-10.27c4,3.94,9.86,6.85,15,8.93a39.5,39.5,0,0,1-5.59,6.42c-3-.06-6-.29-9-.63A31.69,31.69,0,0,1,270,93.85Zm24.67.7c2.72,1,5.48,1.87,8.31,2.74a78.85,78.85,0,0,1-11.68,1.52C292.52,97.44,293.64,96,294.69,94.55ZM346.19,76c.35.82.68,1.64,1,2.48a15.58,15.58,0,0,1,.74,7.72C344.82,83.23,342.61,78.91,346.19,76Zm18.26-11.47a39.11,39.11,0,0,0-12.8,2.37,1.28,1.28,0,0,1-.14-.23c-.46-.74-.95-1.46-1.44-2.16a64.44,64.44,0,0,1,9.56-2.74C361.27,62.59,362.89,63.51,364.45,64.49ZM343.58,71.1a16.51,16.51,0,0,0-1.87,1.52A14.3,14.3,0,0,0,341,69l.71-.53A32.2,32.2,0,0,1,343.58,71.1ZM297.76,50.75l-1.45.32c-.68-.78-1.38-1.57-2.15-2.35a77.81,77.81,0,0,1,8.45.69C301,49.83,299.39,50.26,297.76,50.75Zm-44,2.5c-.61-.24-1.22-.44-1.81-.62-.26-.09-.51-.16-.78-.23a29.46,29.46,0,0,0-1.51-3.8,48,48,0,0,1,17.19-2.23A61.36,61.36,0,0,0,253.79,53.25Zm-31.9-8.42H222a8.65,8.65,0,0,1,4.58,1.51A37.65,37.65,0,0,0,221.89,44.83Zm-58,13c.83,1,1.61,2.11,2.36,3.22a42.58,42.58,0,0,0-10,16.76c-.3-7.39-4.25-14.82-9.92-19.75-.1-.09-.19-.14-.31-.23,1.36-1.29,2.67-2.45,3.89-3.48,1.9-1.6,3.89-3.12,5.92-4.56A54.35,54.35,0,0,1,163.88,57.85Zm-23.36,5.64A29.33,29.33,0,0,1,149,76.65c1.5,5.19.41,11.25-4.1,14.49-3.08,2.23-7,2.8-10.63,3.63h-.08C125.8,85,132.35,72.76,140.52,63.49Zm113.92,44c.42-.25.82-.51,1.23-.8a.15.15,0,0,0,.09,0,30.1,30.1,0,0,0,6.43-4.07c1.41.25,2.81.5,4.21.7a31,31,0,0,0,4.21,3.34A30.47,30.47,0,0,1,254.44,107.53ZM317,92.8a50.23,50.23,0,0,0,5.85-30.37c-.12-.91-.27-1.77-.46-2.67a28.34,28.34,0,0,1,10.32,8.52c.24.36.44.65.64,1A16.65,16.65,0,0,0,330,82.18a13.52,13.52,0,0,0,1,3.33c-3.44,3.11-8.31,5.59-13.19,7.48A7.5,7.5,0,0,1,317,92.8Zm67.47-9.9a24.24,24.24,0,0,1-2.08,2,13.49,13.49,0,0,0,2.09-3.66c.19.33.39.64.55,1A6.6,6.6,0,0,1,384.51,82.9ZM388,72.06a30.57,30.57,0,0,0-5.57-3.54A36.67,36.67,0,0,0,375,61a27.54,27.54,0,0,1,5.26,1.31A11.67,11.67,0,0,1,388,72.06ZM350.55,57.82c-1.44.57-2.92,1.19-4.36,1.86a51.15,51.15,0,0,0-4.9-4.53A76.23,76.23,0,0,1,350.55,57.82ZM297.37,38.93A39.6,39.6,0,0,1,301,41.45a92.82,92.82,0,0,0-16.13.58c-7.89-3.79-17-4.35-26-2.57a52.27,52.27,0,0,1,13.81-4.15C281,34,290,34.58,297.37,38.93Zm-99-4.86c13.55-.65,31.24,2.65,41.59,12.54-2,1.13-3.92,2.32-5.75,3.6-.28-8.67-9.26-12.5-18.5-9.3a17.93,17.93,0,0,0-5.19,2.85c-1.21.06-2.42.15-3.67.27-5.48-4.16-12.3-6.82-19.28-8.57A63.21,63.21,0,0,1,198.36,34.07Zm-28.09,2.84c-3.61,1.69-7.17,3.58-10.71,5.55a4.29,4.29,0,0,0-.45.26,40.47,40.47,0,0,0-10.78-5.23A86,86,0,0,1,170.27,36.91Zm-44.91,5.91c-1.52,1-3,2.16-4.51,3.33-.9-.15-1.81-.29-2.7-.4a22.73,22.73,0,0,1,7.21-2.93ZM67.65,78.44a21.11,21.11,0,0,1-.78-13.39c1.74-6.86,8.35-9.55,14.42-11.14a25.82,25.82,0,0,1,6.64-.83c-5.32,3.33-10,7.58-12.82,12.34A30.11,30.11,0,0,0,71,84.54,26.77,26.77,0,0,1,67.65,78.44Zm8.68.88c-.38-12.17,8.9-21,19.86-25.17a34.59,34.59,0,0,1,5.51,1.94,47.28,47.28,0,0,0-5.27,12.39c-2.5,9.41.71,17.66,6.76,23.66C92,98.27,76.88,95.68,76.33,79.32Zm52.22,22.4a28.42,28.42,0,0,0,3.32-.29,23.58,23.58,0,0,0,2.82,2.28c.2.12.41.24.61.38A29.24,29.24,0,0,1,128.55,101.72ZM217,109.79c2.38-1.16,4.72-2.4,6.93-3.72a12.23,12.23,0,0,0,1.05-.64,23.63,23.63,0,0,0,7.13,3.79A83.14,83.14,0,0,1,217,109.79Zm49.26,4.92a40.06,40.06,0,0,0,11.24-4.36,53.78,53.78,0,0,0,8.56,2.76A33.72,33.72,0,0,1,266.22,114.71Zm38.41-6.95c2.37-2.21,4.66-4.55,6.83-7l.5-.61a4.48,4.48,0,0,0,.68-.22,143.39,143.39,0,0,0,18.14,3.34A59.06,59.06,0,0,1,304.63,107.76Z"/><path class="cls-13" d="M361.12,60.5A19.52,19.52,0,0,0,356,52.6,28.34,28.34,0,0,0,342.5,34c-12.19-7.32-29.89-4.66-42.18,1q-2.82,1.28-5.74,3c-.64-.37-1.28-.73-1.94-1-6.23-12.24-19.73-18-32.72-18.82-14.76-1-28.61,4.41-40,13.58-1.53,1.24-3.12,2.6-4.7,4A118,118,0,0,0,193,43.08c-3.49-4.51-8.77-7.8-13.47-10.69-13.63-8.31-29.1-6.54-43.38-.73a48,48,0,0,0-7.91,4.16,55.17,55.17,0,0,0-23.81,12c-.38.33-.77.69-1.14,1.06a48.63,48.63,0,0,0-17,8,37.71,37.71,0,0,0-13,12.26c-7.61,12,2.7,24.19,12.84,30.37,16.72,10.19,37.05,9,55.81,3.29,5.89,5.62,13.52,9.82,20.42,12.75,13.32,5.66,28.18,6.63,42.37,4.82,1.4-.18,2.79-.39,4.18-.62a82.57,82.57,0,0,0,18.85,2.72c16,.63,32.59-2.93,47.71-8,1.29-.43,2.63-.92,4-1.4,1.38.11,2.68.16,3.88.19,10.47.37,21.54-2.26,31.91-7.07a80,80,0,0,0,30.71-14.74C354.76,84.33,365,72.81,361.12,60.5Zm-11.52-.35C350,76.86,331.24,91,318.17,98c-1.47.79-3,1.51-4.53,2.19a54.09,54.09,0,0,1-10.29.71A47.4,47.4,0,0,0,311.83,93c5-6.1,5.87-13.23,1.81-18.32a32.67,32.67,0,0,0-1.17-17.34,31.79,31.79,0,0,0-9-13.14c2-.11,4.08-.19,6.1-.24,14.27-.41,28.71,3.42,39.71,13A24.52,24.52,0,0,1,349.6,60.15Zm-168,36a15.82,15.82,0,0,1-1.53-.8C190.1,88,196,76.21,197.49,63.86a42.2,42.2,0,0,0,.33-5.09l1-.11a28.56,28.56,0,0,0-1.28,5.86,48.87,48.87,0,0,0,.28,12.69,42.8,42.8,0,0,0-6.38,7c-3.16,4.45-4.91,9.23-4.86,13.88A45,45,0,0,1,181.61,96.13Zm-35.24-.22A33.56,33.56,0,0,1,142,89.75c1.11-.19,2.25-.42,3.37-.72a15.46,15.46,0,0,0,1.47,4.06,14.86,14.86,0,0,0,1.4,2.18C147.59,95.5,147,95.71,146.37,95.91ZM79.18,74.36a17.22,17.22,0,0,1,1.15-6.64c1-1.06,2-2,3-2.91a32.68,32.68,0,0,1,12.56-6.92c-4.36,7.28-6.59,15.89-5.34,24.2,1.19,7.77,6.66,12.55,13.23,14.53C91.61,94.24,79.52,88.55,79.18,74.36Zm59.14-34.51a41.38,41.38,0,0,1,20.1,4.76,43.45,43.45,0,0,0-16.87,11.48,33.59,33.59,0,0,0-13.37-6.28,36.61,36.61,0,0,0-6.87-1.88,54.16,54.16,0,0,1,4.39-4.31,36.4,36.4,0,0,1,3.9-3A62.37,62.37,0,0,1,138.32,39.85Zm93.54-.71a52.31,52.31,0,0,0-15.31,13.2c-3.14-.16-6.27-.15-9.26,0a58.81,58.81,0,0,1,9.21-11.19A72.62,72.62,0,0,1,231.86,39.14Zm30.6,56.31a8.25,8.25,0,0,1,1.27-7.07A18,18,0,0,1,265.61,86a28.28,28.28,0,0,0,3.45,6.7A45.74,45.74,0,0,1,262.46,95.45Zm-12.79,2s0,0-.09,0a22.38,22.38,0,0,0,1.62-3.3q2.13-1.11,4.14-2.42a13.11,13.11,0,0,0-.77,5.44A40.18,40.18,0,0,1,249.67,97.44ZM204.45,59.07c.07-.3.15-.58.24-.85a65.39,65.39,0,0,1,7.92,0,41.14,41.14,0,0,0-3.29,7.42,24.68,24.68,0,0,0-1,4.49,46.16,46.16,0,0,0-4.58,2.51A36.31,36.31,0,0,1,204.45,59.07Zm84.63,9.75a55.89,55.89,0,0,0-14,5c-1.15.58-2.39,1.26-3.67,2a15.45,15.45,0,0,1,.06-2,23.88,23.88,0,0,0,1.66-7.29,44.09,44.09,0,0,1,1.77-4.1c3.12-6.34,8.41-11,14.17-14.84A40.44,40.44,0,0,1,289.08,68.82ZM272.23,57.09a33.61,33.61,0,0,0-1.84-4.93q5-2.25,10.08-4h0A66.09,66.09,0,0,0,272.23,57.09Zm-5.39,9a30.39,30.39,0,0,0-2.58,10.27,25,25,0,0,1-5.76,7.33,44.45,44.45,0,0,1-5.93,4.4,18.64,18.64,0,0,0-4.09-12.4,18.17,18.17,0,0,0-1.34-6.35,42.8,42.8,0,0,1,11.18-10.74c1.87-1.2,3.84-2.34,5.84-3.42A22.83,22.83,0,0,1,266.84,66.13ZM242.05,80l.22.21a16,16,0,0,1-.64,2.61A19.39,19.39,0,0,1,242.05,80Zm-6.54,11.92c-.47.47-.95.94-1.45,1.37-.31.28-.61.54-.93.79-8.76-3.92-16-11.32-17.76-20.34a37.36,37.36,0,0,1,8.92-1.06,25.66,25.66,0,0,1,12.81,3.55C235,81.35,234.2,86.83,235.51,91.92Zm8.54.35A11.9,11.9,0,0,1,243,90.45a29.56,29.56,0,0,0,2.82-4.34,15.8,15.8,0,0,1,.57,2.07,9.25,9.25,0,0,1,.23,3.08C245.77,91.61,244.91,92,244.05,92.27ZM218.76,66.83a30.55,30.55,0,0,0-3.67.86,22.93,22.93,0,0,1,1-4.93,27.56,27.56,0,0,1,1.63-4c7.4,1.1,14.36,3.83,19.78,9.26A39,39,0,0,0,218.76,66.83Zm-10.27,9.34a29.16,29.16,0,0,0,8.84,16.46C211.1,89.75,207,84.36,205,78.07A35.83,35.83,0,0,1,208.49,76.17Zm67,11.11a19.65,19.65,0,0,1-3.22-6.21,59.4,59.4,0,0,1,12.4-5.26,17.29,17.29,0,0,1,2-.44A31.71,31.71,0,0,1,280,85a44,44,0,0,1-3.74,3.21A7.9,7.9,0,0,1,275.48,87.28ZM291,78.84a26.13,26.13,0,0,0,1.9-3.82c5,.13,10.54,1.21,13.95,3.66a35.18,35.18,0,0,1-14.23,17.94c-1,.6-1.94,1.16-2.94,1.69a31.62,31.62,0,0,1-10.12-6.48A50.57,50.57,0,0,0,291,78.84Zm19,5.64a9.44,9.44,0,0,1-.91,3.75c-1.79,3.94-6.21,7.11-10.57,9.67A44.76,44.76,0,0,0,310,84.48Zm-1.65-13.82c-.32-.13-.58-.29-.91-.45a28.88,28.88,0,0,0-12.49-2.12c.64-2.78,1.07-5.64,1.48-8.33a37,37,0,0,0-.19-12.35,41.75,41.75,0,0,1,6.45,6.5A25,25,0,0,1,308.34,70.66ZM285.71,41a101.47,101.47,0,0,0-17.88,6.62c-.43-.64-.88-1.26-1.34-1.86a29.58,29.58,0,0,0-10.84-8.55c.65-.09,1.32-.19,1.94-.26A53.33,53.33,0,0,1,285.71,41Zm-26.64,7.59A31.66,31.66,0,0,1,261.33,51,75.91,75.91,0,0,0,247.38,61.2c-1,1-2.06,2.08-3,3.23-5.39-7.26-13.85-10.41-22.67-11.59,5.29-6.16,13-10.17,21-12.7A33.49,33.49,0,0,1,259.07,48.57Zm-57.71,4.1c-1.34.08-2.71.22-4.06.36a27.18,27.18,0,0,0-1.88-5.86,121.62,121.62,0,0,1,12.52-4A54.45,54.45,0,0,0,201.36,52.67ZM188.79,63.39c.59,9.16-10.95,16.6-17.56,20.77-.31.19-.63.4-.94.57a21,21,0,0,1-1.87-9.91,28.13,28.13,0,0,0,5.71-11.41,91,91,0,0,1,14.06-3.28A15.78,15.78,0,0,1,188.79,63.39ZM151.3,82c.88-6.05,8.37-11.15,13.19-14.11a30.41,30.41,0,0,0-2.13,6.78c-.05.29-.07.58-.11.86A40.82,40.82,0,0,1,151.3,82Zm34-27.16c-2.12.45-4.22.95-6.3,1.53a45.24,45.24,0,0,1,4.51-3.33A13.83,13.83,0,0,1,185.32,54.85Zm-10.87-.27a21,21,0,0,0-.48-2.52,17.43,17.43,0,0,0-1.13-3.14,27.85,27.85,0,0,1,5,1.07,10.13,10.13,0,0,1,1.59.59A52.21,52.21,0,0,0,174.45,54.58ZM169,60a49,49,0,0,0-8,4.6c-6.4,4.5-14.33,11.29-15.75,19.23a37.18,37.18,0,0,1-5.58.71c-.07-.27-.15-.55-.22-.81,8.07-6.24,13.06-15.43,5.55-24.34A30.09,30.09,0,0,1,164.1,48.94,17.06,17.06,0,0,1,169,60Zm-52.37-5.26a46.66,46.66,0,0,1,12.78,3,29.27,29.27,0,0,1,5.24,2.68,17.5,17.5,0,0,1,1.8,2.55A33.83,33.83,0,0,0,132,84,30.7,30.7,0,0,1,125,81.81C118.2,78.67,115.2,71.07,114.85,64A19.5,19.5,0,0,1,116.67,54.78ZM97.92,63.25a35.22,35.22,0,0,1,4-7c1.64-.37,3.27-.72,4.87-1a34.37,34.37,0,0,1,4.52-.52,30.71,30.71,0,0,0-1.38,3.48c-3.84,11.5,1.45,24.73,12.41,29.65a30.78,30.78,0,0,0,3.53,1.25,33.3,33.3,0,0,1-3.79,2,19.21,19.21,0,0,1-21.58-3.26C93.59,81.48,94.6,71.14,97.92,63.25Zm54,23.59A45.62,45.62,0,0,0,162.07,81a23.28,23.28,0,0,0,2,7.38q-4,2.12-8.1,3.92A12.16,12.16,0,0,1,151.91,86.84Zm14.41,5.7a28.34,28.34,0,0,0,2.3,2.87,17.54,17.54,0,0,1-7.17-.4C163.12,94.2,164.74,93.37,166.32,92.54Zm6.44-3.65c5.81-3.54,11.83-8,16.18-13.39-.17.55-.36,1.12-.55,1.66A28.33,28.33,0,0,1,176,92.45,21.85,21.85,0,0,1,172.76,88.89Zm21.72,1.31a24.13,24.13,0,0,1,4.67-7.32,26.12,26.12,0,0,0,11.29,14.36A25.39,25.39,0,0,0,216.7,100c-1.1.17-2.21.33-3.28.44a62.33,62.33,0,0,1-18.54-.26A11.32,11.32,0,0,1,194.48,90.2Zm20.56,23A43,43,0,0,1,201.15,107h2.62c9-.13,18.9-1.61,27-6a41.8,41.8,0,0,0,7.95,2.1c-6.42,5.47-15,8.47-23.67,10.12Zm54.89-10.53a15.84,15.84,0,0,1-4.36-2.68,49,49,0,0,0,6.73-3.24s0,0,.05,0a32.55,32.55,0,0,0,6.58,5.42,40.8,40.8,0,0,1-7.85.9C270.7,102.92,270.32,102.79,269.93,102.63Zm67.7-62.29a21.61,21.61,0,0,1,5,3.57c-3-1.39-6-2.52-8.67-3.49-6.79-2.44-14-2.64-21.13-2.52-1.18,0-2.36.05-3.54.08a39.5,39.5,0,0,1,4.91-.94C322.43,36,330.2,36.42,337.63,40.34ZM239.89,26.17c12.91-3.65,27.22-2.4,37.83,5.44-10.71-2.17-22.54-1-33.21,2.28a61.59,61.59,0,0,0-12.64-.56c-2.48.12-5,.38-7.45.68A46.71,46.71,0,0,1,239.89,26.17ZM175,38.24a47.17,47.17,0,0,1,9.16,6.53,30.94,30.94,0,0,0-9.83-2.46,33.19,33.19,0,0,0-6.76.12c-6.34-5.15-16-7.29-23.75-7.8,1.25-.34,2.53-.65,3.8-1C157.57,31.35,166.32,33.26,175,38.24Zm-56.13,5.35a42.6,42.6,0,0,0-3.21,3.79,39.33,39.33,0,0,0-4.46.15A41.45,41.45,0,0,1,118.89,43.59Zm-4.78,56.73c1-.64,1.79-2.19.53-2.27-1.07-.09-2.18-.2-3.32-.33A27,27,0,0,0,118,97a35.15,35.15,0,0,0,13.11-6.78c.75.07,1.51.14,2.29.18a29.46,29.46,0,0,0,4.4,7.92,91.33,91.33,0,0,1-12.8,2A74.63,74.63,0,0,1,114.11,100.32Zm39,1.57c-.92-.66-1.81-1.35-2.65-2.07q.95-.36,1.89-.75c5.88,3.63,13.93,2.93,20.63.26.37.26.74.54,1.12.79a38.87,38.87,0,0,0,14.37,5.6,20.23,20.23,0,0,0,4.46,5.76,30.81,30.81,0,0,0,4.72,3.52A72.54,72.54,0,0,1,153.07,101.89Zm113.79,9c-12.86,3.47-26.59,5.39-40,4.18a53.2,53.2,0,0,0,13.71-7.73,45.51,45.51,0,0,0,4-3.66c5.43,3.38,12.34,5,18.7,5.43a31.76,31.76,0,0,0,4,1.64Zm70.45-19.52c7.62-7,13.74-15.28,17.28-24.23.18-.51.34-1,.5-1.48C357.24,75.75,346.19,85.87,337.31,91.42Z"/><path class="cls-14" d="M224.11,99.38c-.47,0-1.16,1-.51,1C224,100.37,224.73,99.38,224.11,99.38Z"/><path class="cls-14" d="M237.63,105c-.91,0-2.23,2-1,2C237.52,107,238.85,105,237.63,105Z"/><path class="cls-14" d="M269.76,99.18c-1.33,0-3.3,2.9-1.53,2.9C269.57,102.08,271.54,99.18,269.76,99.18Z"/><path class="cls-15" d="M220.67,78c0-.14-.06-.28-.1-.41a1.08,1.08,0,0,0-1-.72,3.1,3.1,0,0,0-2.2,1,3.63,3.63,0,0,0-1,1.61c-.15.52-.11,1.42.56,1.59l.43.13C218.88,81.57,221.11,79.67,220.67,78Z"/><path class="cls-14" d="M134.79,80.61c-1.56,0-3.88,3.42-1.76,3.42C134.59,84,136.9,80.61,134.79,80.61Z"/><path class="cls-14" d="M147.61,73.39c-1.18,0-2.92,2.57-1.32,2.57C147.45,76,149.18,73.39,147.61,73.39Z"/><path class="cls-14" d="M85.61,73.89c-2.59,0-6.39,5.57-2.93,5.57C85.24,79.46,89,73.89,85.61,73.89Z"/><path class="cls-14" d="M98.26,87c-2.58,0-6.39,5.58-2.92,5.58C97.9,92.58,101.7,87,98.26,87Z"/><path class="cls-14" d="M81.52,61.78c-.82,0-2,1.75-.92,1.75C81.39,63.53,82.58,61.78,81.52,61.78Z"/><path class="cls-14" d="M166.21,94.14c-2.16,0-5.35,4.36-2.45,4.36C165.92,98.5,169.1,94.14,166.21,94.14Z"/><path class="cls-14" d="M188.68,89c-1.56,0-3.88,3.4-1.78,3.4C188.47,92.41,190.79,89,188.68,89Z"/><path class="cls-14" d="M293.67,88.14c-.53-.56-1.4-.15-1.95.16a4.77,4.77,0,0,0-.43.25c-.78.45-2.08,2.06-1.22,3a1.53,1.53,0,0,0,1.67.1,3.54,3.54,0,0,0,1.69-1.6c.09-.12.16-.26.24-.38A1.38,1.38,0,0,0,293.67,88.14Z"/><path class="cls-14" d="M312.77,80.53c-.91,0-2.3,2-1,2C312.65,82.58,314.05,80.53,312.77,80.53Z"/><path class="cls-16" d="M346.73,38.28c-8.72-6.89-19.9-8.69-30.46-9.75-6.46-.61-12.94.12-19.26-1.78-3.14-.94-6-3-9.06-4.33a59.38,59.38,0,0,0-9.4-3.08c-10.39-2.72-21.28-4.87-32-4.61-12.12.29-23.73,4.7-35.71,6.38a90.27,90.27,0,0,1-19.23.38c-6-.5-11.67-2.69-17.78-2.71a94.92,94.92,0,0,0-26.22,3.64,59.49,59.49,0,0,0-7.2,1.41c-7.5,2.09-13.46,5.59-19.83,10.29-6.77,5-15,4.54-22.28,7.89a12.46,12.46,0,0,0-6.76,12.23c.5,6.3,7.12,9,12,9.74,7,1,14.45-1.29,21.44-1.89,9.2-.78,18.12-.22,26.3,4.7,14.82,9,28.21,20,44.27,26.45,14.24,5.69,32,7.58,46.85,4,16-3.88,28.62-16.35,44.85-19.3,17-3.12,34.53,2.25,51.13-3.33,7.86-2.63,19-8.28,23-16.52C365.7,49.15,351.91,42.39,346.73,38.28Z"/><path class="cls-8" d="M346.73,36.85c-8.72-6.47-19.9-8.16-30.46-9.15-6.46-.58-12.94.09-19.26-1.68-3.14-.87-6-2.81-9.06-4.08a64.33,64.33,0,0,0-9.4-2.9c-10.39-2.53-21.28-4.56-32-4.31-12.12.27-23.73,4.42-35.71,6a95.1,95.1,0,0,1-19.23.37c-6-.46-11.67-2.52-17.78-2.55a100.55,100.55,0,0,0-26.22,3.41,65.74,65.74,0,0,0-7.2,1.33c-7.5,2-13.46,5.26-19.83,9.67-6.77,4.68-15,4.27-22.28,7.4a11.63,11.63,0,0,0-6.76,11.51c.5,5.93,7.12,8.47,12,9.13,7,1,14.45-1.19,21.44-1.76,9.2-.73,18.12-.2,26.3,4.43,14.82,8.4,28.21,18.77,44.27,24.84,14.24,5.36,32,7.11,46.85,3.72,16-3.66,28.62-15.35,44.85-18.13,17-2.94,34.53,2.12,51.13-3.13,7.86-2.47,19-7.78,23-15.51C365.7,47.07,351.91,40.7,346.73,36.85Z"/><path class="cls-17" d="M346.73,36.85c-8.72-6.47-19.9-8.16-30.46-9.15-6.46-.58-12.94.09-19.26-1.68-3.14-.87-6-2.81-9.06-4.08a64.33,64.33,0,0,0-9.4-2.9c-10.39-2.53-21.28-4.56-32-4.31-12.12.27-23.73,4.42-35.71,6a95.1,95.1,0,0,1-19.23.37c-6-.46-11.67-2.52-17.78-2.55a100.55,100.55,0,0,0-26.22,3.41,65.74,65.74,0,0,0-7.2,1.33c-7.5,2-13.46,5.26-19.83,9.67-6.77,4.68-15,4.27-22.28,7.4a11.63,11.63,0,0,0-6.76,11.51c.5,5.93,7.12,8.47,12,9.13,7,1,14.45-1.19,21.44-1.76,9.2-.73,18.12-.2,26.3,4.43,14.82,8.4,28.21,18.77,44.27,24.84,14.24,5.36,32,7.11,46.85,3.72,16-3.66,28.62-15.35,44.85-18.13,17-2.94,34.53,2.12,51.13-3.13,7.86-2.47,19-7.78,23-15.51C365.7,47.07,351.91,40.7,346.73,36.85ZM105.66,50.77c-1.52,1.29-3.31,2.19-5.33,1.65a3.72,3.72,0,0,1-3.07-3.35,5.72,5.72,0,0,1,1.68-3.84,5.49,5.49,0,0,1,3.54-2,2.12,2.12,0,0,1,.51,0,4.08,4.08,0,0,1,4.7,2.31C108.46,47.48,107.1,49.62,105.66,50.77Zm30.09-4.72c-3.57,2.67-8.67,4.91-13.19,3.8-3.37-.83-6.44-3.62-6-6.88a5.53,5.53,0,0,1,0-2.63c1.15-5,7.55-6.74,11.94-7.33,3.82-.5,9.71-.29,11.63,3.82C141.72,40.36,138.32,44.11,135.75,46.05Zm15,1.78a2.38,2.38,0,0,1-1.26,1,2.34,2.34,0,0,1-3.05-.26,4,4,0,0,1-1.09-2.37,2.51,2.51,0,0,1,2.49-2.44,3.8,3.8,0,0,1,2.05.77A2.42,2.42,0,0,1,150.76,47.83Zm44.3-12.22a5.91,5.91,0,0,1,3.38-2.18,2.45,2.45,0,0,1,2.94,1.68,2.66,2.66,0,0,1,0,.28,2.71,2.71,0,0,1,.49.38,2.43,2.43,0,0,1,0,3.4A5.82,5.82,0,0,1,198.05,41a3.53,3.53,0,0,1-3.13-1.75A3.67,3.67,0,0,1,195.06,35.61ZM158.43,33a2.4,2.4,0,0,1,0-4.79H159A2.4,2.4,0,0,1,159,33ZM175,60.9a10.8,10.8,0,0,1-9.86,2.39c-2.94-.84-5.87-2.91-6.15-6.21-.56-6.26,8.89-10.44,13.5-6.91A7.7,7.7,0,0,1,176.75,53C178.69,55.57,177.36,59,175,60.9ZM169.8,44A10.19,10.19,0,0,1,168,43c-2.39-1.22-4.39-3.41-4.39-6.28,0-8.22,12.87-10.18,17.45-4.65C187.18,39.38,176.94,46.68,169.8,44ZM203,78.27c-3.21,3.12-8.54,3.66-12.71,2.55-5.15-1.39-9.13-5.65-7.5-11.32,1.45-5,6.8-6.38,11-4.61a11,11,0,0,1,6.69,1.56C204.17,68.85,206.74,74.64,203,78.27Zm6.57-49.22a2.45,2.45,0,0,1,.35-.29c2.7-3.66,8.34-4.46,12.57-3.94,3.55.44,9.55,2.23,9.26,6.86-.29,4.08-5.27,6.38-8.58,7.53-.59.19-1.19.38-1.79.55s-1.07.25-1.61.36a12.86,12.86,0,0,1-9.64-1.45C206.66,36.4,206.8,31.85,209.6,29.05Zm1.06,21.29a4.41,4.41,0,0,1,.42-2.12,2.56,2.56,0,0,1,2.19-1.31,2.64,2.64,0,0,1,2.38,1.37,2.2,2.2,0,0,1,.26.56,1.6,1.6,0,0,1,.17.48,3,3,0,0,1,.06.49,2.26,2.26,0,0,1-.58,2.23,2.58,2.58,0,0,1-2,.68A2.49,2.49,0,0,1,210.66,50.34ZM225,86.44a7.33,7.33,0,0,1-9-.43,6.29,6.29,0,0,1-2.24-5.56,6.09,6.09,0,0,1,.27-1.77c1.46-4.53,7.39-6.5,11.66-5,2.17.8,4.12,2.46,4.14,5C229.85,81.76,227.39,84.85,225,86.44Zm28.74-6.08c-.09.17-.16.39-.24.56a2.39,2.39,0,0,1-2.3,1.9A2.52,2.52,0,0,1,249,81.39a2.25,2.25,0,0,1-1.24-1.48,2.49,2.49,0,0,1,1.08-2.71,3.09,3.09,0,0,1,2.07-.66,3.39,3.39,0,0,1,1.13-.23,2.35,2.35,0,0,1,2.29,1.75A2.42,2.42,0,0,1,253.7,80.36Zm1.91-23.87c-1.71,7.21-11,11.48-17.87,11.2-5.13-.28-13.91-2.61-13.32-9.47a12.12,12.12,0,0,1,.94-3.54,10.55,10.55,0,0,1,.3-1.53c1.91-7.07,10.27-10.07,17-9.53C249,44.15,257.51,48.48,255.61,56.49Zm-5.1-19.12c-4.67-1.58-7.66-5.81-5.23-10.65a13.56,13.56,0,0,1,11.3-7.38,2,2,0,0,1,2.16,1.48,10.77,10.77,0,0,1,1.95.85C271,27.61,259.41,40.42,250.51,37.37Zm23.82,27.86a2.39,2.39,0,1,1-4.77,0v-.29a2.39,2.39,0,0,1,4.77,0Zm-.06-26.56a5,5,0,0,1-.93,1.44,2.42,2.42,0,0,1-3.43,0,2.9,2.9,0,0,1-.55-2.7,2.19,2.19,0,0,1,.91-1.3,2.39,2.39,0,0,1,3.15-.72A2.44,2.44,0,0,1,274.27,38.67ZM288.87,58a7.32,7.32,0,0,1-2.79.52,9.41,9.41,0,0,1-5.8-.72,8.32,8.32,0,0,1-3.95-10.45,10.16,10.16,0,0,1,6.57-5.68,9.46,9.46,0,0,1,1.23-.35c4.52-.89,9.9,1.69,10.63,6.72A9.22,9.22,0,0,1,288.87,58Zm39.85-21.14a6.1,6.1,0,0,1,2.58-1c4.76-2.63,13.61,2.14,12.44,7.82-1.34,6.61-12.13,6.13-15.71,1.77C326,43,325.74,38.81,328.72,36.85ZM312.08,64.73a2.4,2.4,0,0,1-2,1.69c.08,0,.08,0-.14,0l-.53.11c-.43.08-.89.17-1.35.21a2.42,2.42,0,0,1-2.38-2.41,4.28,4.28,0,0,1,.46-2.13,2.73,2.73,0,0,1,2.29-1.33,4.69,4.69,0,0,1,1.29.31,3.31,3.31,0,0,1,.63.1A2.65,2.65,0,0,1,312.08,64.73Zm5.22-20.52c-2.49,3.36-7.8,3.54-11.51,2.78-4.16-.86-8.8-4.34-7.38-9.31,1.51-5.36,7.9-6.7,12.3-4a1.87,1.87,0,0,1,.5.43,8.31,8.31,0,0,1,2.21.54C316.85,36,319.83,40.72,317.3,44.21Zm12,10.22c-1.7,3.6-7.49,3.56-10.08.75a2.4,2.4,0,0,1-.37-2.88c2.2-3.67,8.72-5.71,10.94-.87A2.51,2.51,0,0,1,329.29,54.43Zm9,10.27a.31.31,0,0,0,0,.09,2.27,2.27,0,0,1-.68,1.86,2.49,2.49,0,0,1-1.84.68,2.46,2.46,0,0,1-2.73-2.86,2.45,2.45,0,0,1,.64-2.08,3.17,3.17,0,0,1,2.2-1,2.58,2.58,0,0,1,2.38,1.82A2.89,2.89,0,0,1,338.33,64.7Zm9.28-9.23a1.7,1.7,0,0,1-.91.59,2,2,0,0,1-.22.27,2.39,2.39,0,0,1-3.36,0,2.12,2.12,0,0,1-.45-.65,2.47,2.47,0,0,1-1.38-2.18,2.42,2.42,0,0,1,2.38-2.39c-.78,0-.18,0,.05-.08s.4-.13.6-.17a3.66,3.66,0,0,1,2,0,2.78,2.78,0,0,1,1.15.83,2,2,0,0,1,.84,1.25A2.78,2.78,0,0,1,347.61,55.47Z"/><path class="cls-15" d="M238.08,49.17c-1.46-.72-3.34.17-4.6.88a9.13,9.13,0,0,0-1.36,1,8,8,0,0,0-2.22,1.58,6.63,6.63,0,0,0-1.9,6.53c.69,2.25,3.16,2.83,5.18,2.19A10.53,10.53,0,0,0,240,54.53C240.59,52.6,240,50.09,238.08,49.17Z"/><path class="cls-15" d="M194.11,67.66c-1.39-.92-3.6-.51-5,.19C187,69,184.63,71.35,184.72,74a2.08,2.08,0,0,0,.92,1.88,4.74,4.74,0,0,0,4.08,1.72c3-.11,5.23-2.5,6.13-5.21A4,4,0,0,0,194.11,67.66Z"/><path class="cls-15" d="M196.65,75.05c-1.75,0-4.38,3.84-2,3.84C196.42,78.89,199.05,75.05,196.65,75.05Z"/><path class="cls-15" d="M286.66,47a4.33,4.33,0,0,0-1.79-.07c-1.67-.61-3.83,1.49-4.66,3.12-.57,1.15-1,2.8-.33,4a3.21,3.21,0,0,0,4.3,1.26,6.53,6.53,0,0,0,3.92-5.17C288.27,49,287.94,47.41,286.66,47Z"/><path class="cls-15" d="M309.37,37.48c-.21-1.22-1.82-2-2.93-1.88a6.93,6.93,0,0,0-3.11,1,6.81,6.81,0,0,0-1.65,1.52,5.63,5.63,0,0,0-.68,1.15.46.46,0,0,1,.05-.1c-.14.29-.26.6-.38.91a2.72,2.72,0,0,0,.53,2.75,2.48,2.48,0,0,0,.68.46,2.18,2.18,0,0,0,.88.66c1.62.62,3.7-.52,4.78-1.68A5.57,5.57,0,0,0,309.37,37.48Z"/><path class="cls-15" d="M313.47,40.49c-2.15-.15-4.15,4.28-2.68,4.17A3.88,3.88,0,0,0,312.4,44c0,.53.35.5,1-.16a3.5,3.5,0,0,0,1-1.61,2,2,0,0,0,.06-.76C314.65,40.87,314.39,40.49,313.47,40.49Z"/><path class="cls-15" d="M338.52,38a3.08,3.08,0,0,0-2.17-.82,5.89,5.89,0,0,0-4.57,1.61,3.79,3.79,0,0,0-2,4c.44,2.16,3.25,3.15,5.21,2.65,2.25-.56,4.45-2.76,4.43-5.2A3.19,3.19,0,0,0,338.52,38Z"/><path class="cls-15" d="M325.52,51.35a1.12,1.12,0,0,0-.16-.1c-.72-.35-1.72.41-2.11,1a1.15,1.15,0,0,0-.15.2,1.86,1.86,0,0,0-.46,1.61c.23.71,1.1.62,1.65.38C325.1,54.05,327,52.06,325.52,51.35Z"/><path class="cls-15" d="M129.62,35.31a8.23,8.23,0,0,0-7.06,4.08A7.26,7.26,0,0,0,121.47,41a3,3,0,0,0,2.25,4.49,10.56,10.56,0,0,0,5.2-.8c2.33-.82,4.9-3.22,5-5.89C133.93,36.59,131.57,35.31,129.62,35.31Z"/><path class="cls-15" d="M110.93,54.35h0a1.28,1.28,0,0,0-.11-.62,1.16,1.16,0,0,0-.7-1,2.44,2.44,0,0,0-1.8.14A4.46,4.46,0,0,0,105.74,56a1.61,1.61,0,0,0-.1.66h0a1.12,1.12,0,0,0,.61,1.19,1.83,1.83,0,0,0,1.4.13,3,3,0,0,0,.6-.17,5.52,5.52,0,0,0,1.61-1.15,2,2,0,0,1,.19-.21,0,0,0,0,1,0,0A2.93,2.93,0,0,0,110.93,54.35Z"/><path class="cls-18" d="M192.93,56.54a2.36,2.36,0,0,0-1.58.54,3.3,3.3,0,0,0-1.7,1.49c-.24.48-.45,1.51.28,1.75a3.21,3.21,0,0,0,3.95-2.75A.94.94,0,0,0,192.93,56.54Z"/><path class="cls-18" d="M207.31,62.38a.82.82,0,0,0-.54-.25,2.41,2.41,0,0,0-2.53,1.41c-.44.83-.13,1.8,1,1.61a2.88,2.88,0,0,0,.76-.22,3,3,0,0,0,1.33-1.23C207.49,63.33,207.66,62.72,207.31,62.38Z"/><path class="cls-18" d="M190.38,40.5c-.07-.16-.15-.3-.23-.49-1-2-4.6,1.68-2.78,2.6.18.1.33.16.5.26.57.29,1.4-.22,1.78-.6S190.67,41.1,190.38,40.5Z"/><path class="cls-18" d="M133,42.93l-.36,0a2.07,2.07,0,0,0-1.74,1.17c-.38.75-.07,1.34.76,1.27a2.72,2.72,0,0,0,.39,0C133,45.24,134.49,43.09,133,42.93Z"/><path class="cls-18" d="M150,32.47a.85.85,0,0,0-.31,0,3.15,3.15,0,0,0-2,1.62c-.23.48-.47,1.57.28,1.76l.25,0a2.77,2.77,0,0,0,2.93-1.64C151.59,33.34,151.24,32.19,150,32.47Z"/><path class="cls-18" d="M151.07,52.81a2.94,2.94,0,0,0-2.14,2,1.47,1.47,0,0,0-.12,1c.22.67,1.07.62,1.58.41a3.49,3.49,0,0,0,1.86-2.14A1,1,0,0,0,151.07,52.81Z"/><path class="cls-18" d="M288.15,63.71c-1.65,0-4.12,3.62-1.88,3.62C287.94,67.33,290.39,63.71,288.15,63.71Z"/><path class="cls-18" d="M266.32,41.57c-1.29,0-3.23,2.84-1.48,2.84C266.14,44.41,268.06,41.57,266.32,41.57Z"/><path class="cls-14" d="M115.05,70.71c-1.54,0-3.81,3.37-1.74,3.37C114.84,74.08,117.11,70.71,115.05,70.71Z"/><path class="cls-14" d="M133,68.19c-1.06,0-2.65,2.32-1.22,2.32C132.85,70.51,134.42,68.19,133,68.19Z"/><path class="cls-14" d="M124.82,62.13c-.55.25-1.36,1-1.29,1.65a3.25,3.25,0,0,0,0,.36c.09.68.66.79,1.23.55a2.06,2.06,0,0,0,1.24-1.6c0-.14,0-.29,0-.4C126.14,62,125.29,61.93,124.82,62.13Z"/><path class="cls-14" d="M147,51.47c-1,0-2.39,2.12-1.1,2.12C146.84,53.59,148.28,51.47,147,51.47Z"/><path class="cls-14" d="M197.75,57.78c-1.5,0-3.72,3.29-1.71,3.29C197.54,61.07,199.76,57.78,197.75,57.78Z"/><path class="cls-14" d="M303.05,62.38c-1.83,0-4.54,4-2.09,4C302.8,66.38,305.51,62.38,303.05,62.38Z"/><path class="cls-14" d="M275,70.41c-.19-.62-.8-.66-1.33-.61a4.12,4.12,0,0,0-2.52,1.68c-.41.48-.82,1.43-.32,2s1.13.29,1.71,0a3.34,3.34,0,0,0,2.27-1.77A1.74,1.74,0,0,0,275,70.41Z"/><path class="cls-14" d="M336.37,54.12c-1.7,0-4.22,3.7-1.92,3.7C336.13,57.82,338.66,54.12,336.37,54.12Z"/><path class="cls-14" d="M342.5,65.42c-1.81,0-4.52,4-2.05,4C342.27,69.43,345,65.42,342.5,65.42Z"/><path class="cls-14" d="M256.37,39.81c-1.15,0-2.88,2.54-1.32,2.54C256.22,42.35,258,39.81,256.37,39.81Z"/><path class="cls-14" d="M252.27,63.74c-.89-1-2.58.51-3,1.32a3.52,3.52,0,0,1-.18.4c-.17.38-.36.92,0,1.28a1.18,1.18,0,0,0,1.29.09c.13-.08.26-.12.38-.2C251.54,66.22,253.21,64.76,252.27,63.74Z"/><path class="cls-19" d="M267.27,51.6a.13.13,0,0,1,0-.06c-1.72-4.75-5.49-8.57-9.4-11.63a26.3,26.3,0,0,0-11-4.26A17.42,17.42,0,0,0,253.1,27c1.27-3.8.71-7.54-.12-11.28-7.38-.7-14.76-.91-21.58,2.54A20.57,20.57,0,0,0,230,22.65c-.53,2.92-1.57,5.72-1.75,8.72,0,.24,0,.45,0,.66,0,1.06.11,2.1.19,3.15-1.22-.57-2.46-1.1-3.71-1.56-.21-.08-.42-.13-.62-.2-2.87-.82-5.83-.75-8.77-1.22a24.77,24.77,0,0,0-14.79,2.69c-4.27,2.59-8.5,6-10.75,10.47,0,0,0,0,0,0a.54.54,0,0,1,0,.08,29.86,29.86,0,0,1,6.62,3.13c4.91,3,9.45,6.87,15.49,6.92,5.55.08,11.36-2.17,14.09-7.33a29.19,29.19,0,0,0,2.4-6.08,4.66,4.66,0,0,0,.11-.52,23,23,0,0,0,.56-2.77c0-.27,0-.54,0-.79s0-.69,0-1c.08,0,.17,0,.23.08a.71.71,0,0,1,0,.14h0a15.84,15.84,0,0,0-.14,2c0,.41-.1.83-.1,1.23,0,.88.12,1.79.22,2.66,0,.24,0,.48.06.7.14.86.32,1.71.53,2.54.07.25.1.52.16.75a29.35,29.35,0,0,0,1,3c2.09,5.45,7.59,8.41,13.11,9,6,.64,11-2.68,16.19-5a30.74,30.74,0,0,1,6.94-2.3S267.28,51.64,267.27,51.6Z"/><path class="cls-20" d="M229,31.75c-1.39-.56-2.78-1.07-4.21-1.49-.2-.07-.39-.1-.6-.16-2.71-.59-5.47-.37-8.22-.63a23,23,0,0,0-13.63,3.33c-3.85,2.66-7.66,6.08-9.47,10.45a28.49,28.49,0,0,1,6.33,2.54c4.73,2.48,9.18,5.87,14.8,5.58,5.18-.23,10.45-2.65,12.71-7.61A24.24,24.24,0,0,0,229,31.75Z"/><path class="cls-21" d="M226.68,43.76A24.47,24.47,0,0,0,229,31.93c-2.26.26-4.53.26-6.81.46a70.89,70.89,0,0,0-11.6,1.91c-6.4,1.67-13.33,3.68-17.73,8.88a.56.56,0,0,0,0,.07,29,29,0,0,1,6.33,2.54c4.73,2.48,9.18,5.87,14.8,5.58C219.15,51.14,224.42,48.72,226.68,43.76Z"/><path class="cls-22" d="M228.47,33c-.23-1.46-.42-3-.53-4.44,0-.21,0-.39,0-.61,0-2.81.82-5.46,1.14-8.21a23.7,23.7,0,0,1,6.16-12.7c3.43-3.21,7.55-6.2,12.16-7.06a30.22,30.22,0,0,0,1.14,6.77c1.38,5.18,3.72,10.28,2.26,15.74-1.36,5.06-4.85,9.72-10.13,10.85A23.93,23.93,0,0,1,228.47,33Z"/><path class="cls-23" d="M240.66,33.36a24,24,0,0,1-12-.27c.72-2.14,1.22-4.36,1.89-6.58a76.6,76.6,0,0,1,4.38-11c3-5.88,6.42-12.29,12.38-15.5h.09a29.12,29.12,0,0,0,1.12,6.77c1.38,5.18,3.72,10.28,2.26,15.74C249.43,27.57,245.94,32.23,240.66,33.36Z"/><path class="cls-20" d="M229.23,33.18a43.1,43.1,0,0,1,4.22-1.48l.58-.14c2.7-.61,5.47-.37,8.22-.64a23.11,23.11,0,0,1,13.62,3.33c3.88,2.68,7.66,6.06,9.48,10.45A29.18,29.18,0,0,0,259,47.24c-4.71,2.47-9.18,5.86-14.8,5.6-5.17-.24-10.44-2.68-12.69-7.62A24,24,0,0,1,229.23,33.18Z"/><path class="cls-21" d="M231.53,45.22a24.32,24.32,0,0,1-2.32-11.86c2.25.28,4.53.28,6.8.48a71.08,71.08,0,0,1,11.61,1.95c6.39,1.63,13.32,3.65,17.7,8.82a.15.15,0,0,1,0,.09A29.18,29.18,0,0,0,259,47.24c-4.71,2.47-9.18,5.86-14.8,5.6C239.05,52.6,233.78,50.16,231.53,45.22Z"/><path class="cls-14" d="M213.74,100.47c-2.59,0-6.38,5.58-2.91,5.58C213.39,106.05,217.18,100.47,213.74,100.47Z"/><path class="cls-14" d="M296.16,101.43c-2.15,0-5.36,4.36-2.43,4.36C295.88,105.79,299.06,101.43,296.16,101.43Z"/><path class="cls-14" d="M370,93.78c-2.16,0-5.35,4.36-2.44,4.36C369.72,98.14,372.91,93.78,370,93.78Z"/><path class="cls-14" d="M340.69,79.2c-2.16,0-5.36,4.38-2.44,4.38C340.4,83.58,343.6,79.2,340.69,79.2Z"/><path class="cls-14" d="M366.92,58.22c-1.49,0-3.69,3-1.69,3C366.7,61.22,368.91,58.22,366.92,58.22Z"/><path class="cls-14" d="M392.92,66.46c-3.3,0-8.16,5.07-3.73,5.07C392.46,71.53,397.34,66.46,392.92,66.46Z"/><path class="cls-14" d="M389.08,86.32c-1.64,0-4.08,2.52-1.86,2.52C388.87,88.84,391.29,86.32,389.08,86.32Z"/><path class="cls-14" d="M326.42,98.72c-1.66,0-4.09,2.55-1.88,2.55C326.18,101.27,328.63,98.72,326.42,98.72Z"/><path class="cls-14" d="M230,86.58c-2.26,0-5.62,3.49-2.58,3.49C229.73,90.07,233.07,86.58,230,86.58Z"/><path class="cls-14" d="M185.52,24.67c-2.27,0-5.62,3.49-2.58,3.49C185.2,28.16,188.55,24.67,185.52,24.67Z"/><path class="cls-14" d="M174.4,36.66c-1.72,0-4.22,2.63-1.93,2.63C174.16,39.29,176.67,36.66,174.4,36.66Z"/><path class="cls-14" d="M60.12,72.13c-2.23,0-5.54,3.43-2.53,3.43C59.81,75.56,63.12,72.13,60.12,72.13Z"/><path class="cls-14" d="M86.17,46.64c-2.22,0-5.53,3.44-2.53,3.44C85.87,50.08,89.18,46.64,86.17,46.64Z"/></g></g></svg>