<svg id="Layer_1" data-name="Layer 1" xmlns="http://www.w3.org/2000/svg" viewBox="0 0 651.5 246.11"><defs><style>.cls-1{fill:#c21707;}.cls-2{fill:#fff;}</style></defs><path class="cls-1" d="M643,94.59a21,21,0,0,0-12.56-4.15,21.44,21.44,0,0,0-6.69,1.07,32.73,32.73,0,0,0-5.22-17.4A26.9,26.9,0,0,0,598,62.1c.81-2.79,1.6-5.7,2.38-8.7a124.84,124.84,0,0,0,2.8-12.8c1-7,.14-12.82-2.75-17.79a22,22,0,0,0-17.5-11c-.95-.09-1.95-.13-3-.13a48.3,48.3,0,0,0-5.54.35l-.31,0a51.39,51.39,0,0,0-6,1.12,33,33,0,0,0-6.77,2.16,26.5,26.5,0,0,0-8,5.4,19,19,0,0,0-5.11,17.37c0,.13,0,.25,0,.39,0,1.6-.14,3.25-.3,4.9q-.46,3.69-.93,7.67c-.4,2.37-1,5.62-1.85,9.65-.91,4.44-2,9.43-3.27,14.84-.17.71-.33,1.43-.5,2.15a30.09,30.09,0,0,0-8.09-8.93,28.23,28.23,0,0,0-16.8-5.48,37.46,37.46,0,0,0-14.93,3.12c-.63.28-1.25.56-1.87.86l-.4-.13a32.83,32.83,0,0,0-5.65-1.35l-.38,0a41.35,41.35,0,0,0-5-.3,20.74,20.74,0,0,0-2.09.11,30.84,30.84,0,0,0-6.31,1.38,32.51,32.51,0,0,0-5,1.87l-.45.23a30.87,30.87,0,0,0,.86-8.63,31.51,31.51,0,0,0-2-9.89,25.76,25.76,0,0,0-7.21-10.38,22.35,22.35,0,0,0-14.61-5.43A22.9,22.9,0,0,0,448,35c0-.53-.06-1-.1-1.58a33.57,33.57,0,0,0-3.42-12.21A29.16,29.16,0,0,0,417.43,5a46.42,46.42,0,0,0-16.69,2.91,45.42,45.42,0,0,0-13.38,8,54.34,54.34,0,0,0-9.88,11.33,106.22,106.22,0,0,0-6.72,11.89A79.47,79.47,0,0,0,365,55.89c-.48,2-1,4.11-1.45,6.29-1,.08-2,.11-3,.11a12.2,12.2,0,0,1-2.15-.2l-.61-.1a9.46,9.46,0,0,1-1.33-.33,18.91,18.91,0,0,0-11.4-3.81,18.71,18.71,0,0,0-4.8.62,18.91,18.91,0,0,0-12.71,11.11,27.85,27.85,0,0,0-2.15,10.57,20.6,20.6,0,0,0-5.69-1C318,79,316.29,79,314.52,79c-2.75,0-5.64.12-8.6.36-2,.16-4,.35-6,.59,1.09-3.53,2-6.52,2.8-9l.11-.35c1.29-4.43,2.32-7.88,3-10.3A67.18,67.18,0,0,0,308.34,49a74.86,74.86,0,0,0,.65-9.41,65.13,65.13,0,0,0-.37-7.44c-.29-2.52-.5-3.72-.64-4.41-.07-.35-.14-.69-.23-1-1.81-7.17-8.58-15.54-21.69-15.54h-.85a57.31,57.31,0,0,0-10.39,1.27,28.42,28.42,0,0,0-5.2,1.53c-1.16.42-2.38.93-3.71,1.56s-2.67,1.31-4.21,2.15a18.92,18.92,0,0,0-9.15,21.79c.08.31.16.62.22.94.18.89.38,1.74.6,2.56,0,0,.17,1.19.19,1.31,0,.42.19,2.42.08,8.21,0,2.86-.7,8.28-3.52,17.84-.14.5-.27,1-.37,1.51s-.25,1.21-.39,1.82a28.86,28.86,0,0,0-3.21-4.37c-3.86-4.3-11-9.43-23.17-9.43a43.06,43.06,0,0,0-23.23,7.06,68.74,68.74,0,0,0-16.15,14.3l-.12.14a29.19,29.19,0,0,0-5.54-9.1,27.64,27.64,0,0,0-11.26-7.57A30.8,30.8,0,0,0,159.75,63c.92-3.2,1.79-6.43,2.63-9.66.05-.19.1-.38.14-.56.57-2.52,1.09-4.87,1.54-7,.11-.52.2-1,.27-1.57.28-2.31.47-4.6.54-6.81a23,23,0,0,0-4.57-15.22,21.18,21.18,0,0,0-12.79-8.31,31,31,0,0,0-6.43-.66,37.22,37.22,0,0,0-6.7.64c-1.61.29-3.22.65-4.8,1.07-1.38.32-2.79.71-4.18,1.15-1,.32-2.05.72-3,1.14A41,41,0,0,0,109.29,5.26,41.24,41.24,0,0,0,88.35,0,60.71,60.71,0,0,0,59,7.33,84.35,84.35,0,0,0,37.34,24.41,114,114,0,0,0,21.19,47.24a179.84,179.84,0,0,0-18.25,51A156.53,156.53,0,0,0,.05,122.66a89.56,89.56,0,0,0,2.64,25.15A70.5,70.5,0,0,0,12.45,170a54.75,54.75,0,0,0,17.39,16.53,48.71,48.71,0,0,0,45.19,2,64.42,64.42,0,0,0,15.56-10.4,82.82,82.82,0,0,0,10.3-11.24,28.75,28.75,0,0,0,6.06,2.29,17.81,17.81,0,0,0,2,.39,34.36,34.36,0,0,0,4.93.35,27.15,27.15,0,0,0,7.41-1.07,24.83,24.83,0,0,0,9-4.79,18.89,18.89,0,0,0,3-3.14c6.88,7.5,14.33,9.17,19.58,9.17,5.63,0,11.41-1.72,17.52-5.19a82.92,82.92,0,0,0,9.1-5.91,40.88,40.88,0,0,0,13,8.6,39.53,39.53,0,0,0,15,3.16,51.36,51.36,0,0,0,15.38-2.43c-2.32,9.24-4,16.22-5.18,21.3-1.41,6.23-2.35,10.53-2.86,13.12a44.25,44.25,0,0,0-1.05,11.83,38.57,38.57,0,0,0,2.66,12.58,30.58,30.58,0,0,0,9,12.39,29.39,29.39,0,0,0,15.83,6.41,36.13,36.13,0,0,0,3.76.2h0a41.37,41.37,0,0,0,15.37-3.1,61.71,61.71,0,0,0,15.28-9,84.37,84.37,0,0,0,12.8-12.77,96,96,0,0,0,10.28-15.52,93.17,93.17,0,0,0,7.13-17.58,71.51,71.51,0,0,0,1.94-8.51,28.52,28.52,0,0,0,5.06,6.21c4.06,3.78,11.2,8.28,22.11,8.28a47.94,47.94,0,0,0,21.66-5c1-.48,1.91-1,2.85-1.52,2.46,1.55,5,3,7.66,4.37a84.5,84.5,0,0,0,13.18,5.43A57.4,57.4,0,0,0,397.81,200a35.09,35.09,0,0,0,21.26-6.76,40.21,40.21,0,0,0,15.68-25.23,31.43,31.43,0,0,0,6.48.7c.59,0,1.17,0,1.76-.05a29.08,29.08,0,0,0,11.46-3.13,20.8,20.8,0,0,0,12.82,4.15,33.43,33.43,0,0,0,11.17-2.07,45.52,45.52,0,0,0,9.1-4.41,30.05,30.05,0,0,0,5-4,31,31,0,0,0,10,8.12,32.84,32.84,0,0,0,15.17,3.5,34.72,34.72,0,0,0,16.81-4.58l.17-.09a22.32,22.32,0,0,0,10,3.22c1.23.09,2.51.13,3.8.13a31.06,31.06,0,0,0,5.07-.42l.59-.11c.71-.14,1.53-.31,2.48-.53a28.06,28.06,0,0,0,6.26-2.26,18.87,18.87,0,0,0,4.94-3.56c5.3,6,12.86,9.19,21.69,9.19a40.28,40.28,0,0,0,21.61-6.53,81.48,81.48,0,0,0,14.62-11.89A126.75,126.75,0,0,0,638,139.1c3.54-4.87,6.76-9.67,9.52-14.23C655.26,112.11,650.61,100.24,643,94.59Z"/><path class="cls-2" d="M110.85,60.8a60.7,60.7,0,0,0,1.56-10.55,49.76,49.76,0,0,0-1-11.37,29.12,29.12,0,0,0-4-10.05,22.08,22.08,0,0,0-7.58-7.17,22.55,22.55,0,0,0-11.46-2.72,41.66,41.66,0,0,0-20.26,5A65,65,0,0,0,51.28,37.23a94.18,94.18,0,0,0-13.43,19,156,156,0,0,0-10,22.41,160,160,0,0,0-6.35,23.15A138.3,138.3,0,0,0,19,123.25,70.81,70.81,0,0,0,21,143.11a51.16,51.16,0,0,0,7.09,16.23A35.62,35.62,0,0,0,39.5,170.21a28.64,28.64,0,0,0,14.91,4,29.06,29.06,0,0,0,12.52-2.8,45,45,0,0,0,11-7.33A64.48,64.48,0,0,0,87,153.9a81.13,81.13,0,0,0,6.84-11.2,6,6,0,0,0,.66-3.71,3.71,3.71,0,0,0-1.32-2.31,2.28,2.28,0,0,0-2.3-.25,5.29,5.29,0,0,0-2.48,2.64,52.22,52.22,0,0,1-4.69,6.84,54.63,54.63,0,0,1-7.25,7.5,42.59,42.59,0,0,1-9.31,6.09A24.64,24.64,0,0,1,56.22,162,16.08,16.08,0,0,1,49,160.16a17.74,17.74,0,0,1-6.51-5.93A31.32,31.32,0,0,1,38,143.68,58.41,58.41,0,0,1,36.78,128a171.33,171.33,0,0,1,5.85-38.72A156.06,156.06,0,0,1,55,57.25q7.32-13.76,15.9-21.83T87.2,27.35a9.77,9.77,0,0,1,7.09,3.13q3.12,3.12,2.8,9.88a68,68,0,0,1-2,12.53,40.67,40.67,0,0,1-3.87,9.47,14.06,14.06,0,0,1-7,6.35,19.55,19.55,0,0,0,3.21,5.76,14.58,14.58,0,0,0,3.38,3,8.26,8.26,0,0,0,3.79,1.32A12,12,0,0,0,102,76.37a19.69,19.69,0,0,0,5.44-6.43A36.78,36.78,0,0,0,110.85,60.8Z"/><path class="cls-2" d="M318.89,98a82.42,82.42,0,0,0-11.46.17q-6.18.5-12.35,1.48c-4.13.66-8.16,1.49-12.12,2.47s-7.58,2-10.87,3.13q4.77-15,7.74-24.63t4.78-15.41q2-6.75,3.13-10.54a48.92,48.92,0,0,0,1.81-8.16,55.83,55.83,0,0,0,.5-7,45.91,45.91,0,0,0-.25-5.27c-.16-1.42-.3-2.41-.41-3-.22-.88-1.46-1.3-3.71-1.24a38.66,38.66,0,0,0-7.17.91,9.4,9.4,0,0,0-2.14.66,24,24,0,0,0-2.39,1q-1.39.66-3.21,1.65c.22.77.41,1.57.58,2.39a18,18,0,0,0,.57,2.23l.33,2.3a76.07,76.07,0,0,1,.33,11.62q-.16,8.82-4.28,22.82-1.16,5.61-2.64,11.21-1.32,4.78-3.05,10.63c-1.09,3.69-2.32,7.2-3.66,10.55a4.44,4.44,0,0,0-2.35,1.56l-.38.44a18,18,0,0,0-2.75,2.11,20.66,20.66,0,0,0-3.14,3.71,15.64,15.64,0,0,0-1.2,2.2l-.86.93a130.28,130.28,0,0,1-10.87,10.47,80.33,80.33,0,0,1-12,8.56,23.26,23.26,0,0,1-11.7,3.55,18.65,18.65,0,0,1-5.19-.74,11.82,11.82,0,0,1-4.53-2.48,13.55,13.55,0,0,1-3.3-4.53,17.85,17.85,0,0,1-1.48-6.92c1.65-1.21,3.57-2.55,5.77-4l6.92-4.69q3.28-2.31,7-5.11a58.91,58.91,0,0,0,7-6.26A38.19,38.19,0,0,0,231.63,99a23.58,23.58,0,0,0,2.88-9.39A10,10,0,0,0,232,81.9q-2.81-3.14-9.06-3.14a24.34,24.34,0,0,0-13.1,4.12,49.66,49.66,0,0,0-11.7,10.39A65.33,65.33,0,0,0,189.44,107a45.61,45.61,0,0,0-3.88,12.11l-.81.91c-1.54,1.71-3.13,3.38-4.78,5s-3.13,3-4.45,4.12q-8.73,7.08-13.1,8.49t-5.85-1.24a5.54,5.54,0,0,1-.33-4.62q.82-2.62,2.31-6.42,2.14-5.45,3.71-9.56t2.55-7.5q1-3.37,1.57-6.18a27.17,27.17,0,0,0,.57-5.43,23.2,23.2,0,0,0-.66-7.17,11.47,11.47,0,0,0-2.39-4.62,9,9,0,0,0-3.62-2.47,12.94,12.94,0,0,0-4.37-.74,19.1,19.1,0,0,0-8.4,1.9A37.37,37.37,0,0,0,140,88.4a51.4,51.4,0,0,0-6.51,6.35,65.24,65.24,0,0,0-5.11,6.75Q132,87.18,136.3,74.56t7.75-25.95q.82-3.63,1.48-6.76c.22-1.75.36-3.46.41-5.11s-.24-2.74-.9-3.29a1.87,1.87,0,0,0-1.49-1.07,11.43,11.43,0,0,0-2.47-.25,18.59,18.59,0,0,0-3.3.33c-1.2.22-2.41.49-3.62.82-1,.22-2,.5-3,.83a12.59,12.59,0,0,0-2.88,1.32,24.39,24.39,0,0,1,.49,5.1,43.68,43.68,0,0,1-.33,5.44q-.33,3-.82,6.1-1,4.44-3.63,16-2.31,9.74-6.59,28.18t-11.7,48.94a6.87,6.87,0,0,0,1.49,2.89,11,11,0,0,0,2,1.73,10.05,10.05,0,0,0,2.47,1,17.93,17.93,0,0,0,2.31.16,7.81,7.81,0,0,0,2.14-.33,5.84,5.84,0,0,0,2.15-1.15q1.14-4.78,2.39-11T123,127.05q1.32-6.27,2.64-12.69a83.67,83.67,0,0,1,4.95-7.09,57.09,57.09,0,0,1,5.84-6.51,35.49,35.49,0,0,1,6.1-4.69,11.25,11.25,0,0,1,5.69-1.82A3.86,3.86,0,0,1,152.45,98a25.49,25.49,0,0,1-.74,9,95.29,95.29,0,0,1-3.3,11q-2.06,5.68-3.21,9.81a45.85,45.85,0,0,0-1.89,11,12.51,12.51,0,0,0,2.88,8.16q3.3,4.29,6.67,4.29t8.33-2.81a67.54,67.54,0,0,0,9.22-6.26q4.78-3.78,9.48-8.07c1.82-1.66,3.56-3.36,5.25-5.08a25.81,25.81,0,0,0,1.34,6.4,26.07,26.07,0,0,0,5.52,9.39,22.42,22.42,0,0,0,7.66,5.36,20.69,20.69,0,0,0,7.83,1.72,34.6,34.6,0,0,0,14.25-3.29,72.86,72.86,0,0,0,14.34-8.65,102.32,102.32,0,0,0,13.27-12.2c.07-.08.13-.16.21-.24a11.71,11.71,0,0,0,2.42,3.29q-6.42,25.05-10.21,40.13t-5.61,23q-2.13,9.39-2.8,12.85a25,25,0,0,0-.66,7,19.66,19.66,0,0,0,1.32,6.43,11.74,11.74,0,0,0,3.46,4.78,10.43,10.43,0,0,0,5.77,2.22,21.22,21.22,0,0,0,10.13-1.65,42.28,42.28,0,0,0,10.55-6.26,65,65,0,0,0,9.89-9.88,77.18,77.18,0,0,0,8.24-12.45,74.27,74.27,0,0,0,5.68-14,51.75,51.75,0,0,0,2.14-14.59,41.4,41.4,0,0,0-3.13-13.51,58.51,58.51,0,0,0-7.5-13,63.59,63.59,0,0,0-14.74-13.84l3.79-12q1.63-.82,4.2-1.89t4.86-1.9l5.6-2a61.74,61.74,0,0,1,7.75-2.55c2.74-.71,5.52-1.32,8.32-1.81s5.52-.88,8.16-1.16l7.25-.74a8.37,8.37,0,0,0,4-1.07,4.53,4.53,0,0,0,1.82-1.89,2.33,2.33,0,0,0,0-1.9A1.45,1.45,0,0,0,318.89,98Zm-115.52,6.84a49.26,49.26,0,0,1,4.94-9.06,24.7,24.7,0,0,1,5.36-5.69,8.53,8.53,0,0,1,4.7-2,3.24,3.24,0,0,1,2.8,1.4q1,1.39.66,4.53a16.77,16.77,0,0,1-3.13,7.09q-2.8,4.11-9.89,9.55-2.31,1.81-4.62,3.38c-1.54,1-3,2.06-4.28,3A53.1,53.1,0,0,1,203.37,104.88Zm64.35,39.39q2.55,3.21,4.37,6a57.45,57.45,0,0,1,3.46,6.76,43.14,43.14,0,0,1,2.14,13.35,36.82,36.82,0,0,1-2.8,13.26A64.55,64.55,0,0,1,267.8,197a46.26,46.26,0,0,1-9.47,10.22q-5.19,4-10,3.7c-1.32,0-2-1-2.14-3a34,34,0,0,1,.74-7.83q.9-4.86,2.47-11t3-12.36c.55-3.29,1.32-7,2.3-11q1.16-5.28,2.89-12.19t4-15.16A33.78,33.78,0,0,1,267.72,144.27Z"/><path class="cls-2" d="M382,125.07a167.81,167.81,0,0,0,5.35-17.55q2.72-10.63,5.52-21.51a61.47,61.47,0,0,0,14.91-9.22,74.6,74.6,0,0,0,11.46-11.87,56.13,56.13,0,0,0,7.41-12.69,31.43,31.43,0,0,0,2.64-11.86c0-1.65-.08-3.43-.25-5.36a14.64,14.64,0,0,0-1.48-5.35,10.77,10.77,0,0,0-3.63-4.12,11.27,11.27,0,0,0-6.5-1.65,27.37,27.37,0,0,0-9.89,1.65,26.52,26.52,0,0,0-7.83,4.69,35.76,35.76,0,0,0-6.43,7.42,86.42,86.42,0,0,0-5.52,9.8,61.34,61.34,0,0,0-4.36,12.86q-1.9,7.91-3.87,17.8a71.21,71.21,0,0,1-9.32,2.3,55.57,55.57,0,0,1-9.64.83,31.17,31.17,0,0,1-5.43-.5,29.29,29.29,0,0,1-5-1.23,16.73,16.73,0,0,1-5-2.72,7.68,7.68,0,0,0-.49,5.11,11.56,11.56,0,0,0,1.48,3.46c1.21,1.87,3.55,3.4,7,4.61a42.08,42.08,0,0,0,13.59,1.81c1.76,0,3.49,0,5.19-.16a33.51,33.51,0,0,0,4.86-.66q-2,9.89-4.77,20.35t-6.6,20.85q-2.14,5.43-4,9.72a82.41,82.41,0,0,1-3.63,7.58,51.13,51.13,0,0,0-5-1.4,24,24,0,0,0-5.36-.58A37.06,37.06,0,0,0,335,149.21a22.43,22.43,0,0,0-7.5,4.2,13.3,13.3,0,0,0-3.7,5.19,18.77,18.77,0,0,0-1.16,4.7A10.34,10.34,0,0,0,325.8,172a13,13,0,0,0,9.23,3.21,29.08,29.08,0,0,0,13.19-3,43.67,43.67,0,0,0,10.87-7.75l7.83,5.36a82.81,82.81,0,0,0,9,5.35,65.32,65.32,0,0,0,10.22,4.21,38.42,38.42,0,0,0,11.69,1.73,16,16,0,0,0,9.89-3,21.34,21.34,0,0,0,6.1-6.92,21,21,0,0,0,2.55-7.91c.28-2.64,0-4.61-.74-5.93a24.55,24.55,0,0,1-6.75,5.35,31.49,31.49,0,0,1-6.92,2.72,37.3,37.3,0,0,1-7.75,1.16,22,22,0,0,1-7.17-1.16,47.28,47.28,0,0,1-6.67-2.88,72.81,72.81,0,0,1-6.51-3.87c-2.14-1.43-4.26-2.81-6.35-4.12a90.91,90.91,0,0,0,8.66-15.17Q379.69,131.5,382,125.07Zm17.46-66.25q1.32-4.77,2.15-7.25c1.64-4.72,3.68-8.26,6.09-10.62s4.4-3.55,5.94-3.55c1.75,0,2.63,1.49,2.63,4.45q0,7.42-5.35,14.83a52.71,52.71,0,0,1-14.26,13.19Q398.15,63.6,399.46,58.82Zm-55.2,105.8c-1.87.55-3.52,1.09-4.94,1.65a4.22,4.22,0,0,1-2.81-.25,1.89,1.89,0,0,1-1-1.73c0-1.1.9-2.23,2.72-3.38s4.69-1.73,8.65-1.73a13.07,13.07,0,0,1,3.79.82Q347.06,163.8,344.26,164.62Z"/><path class="cls-2" d="M444.42,72a3.37,3.37,0,0,0,3,.66,10,10,0,0,0,3.54-1.4,12.51,12.51,0,0,0,3.14-2.8A9.71,9.71,0,0,0,456,64.92a11.49,11.49,0,0,0,.41-3.79,12.06,12.06,0,0,0-.74-3.88,6.94,6.94,0,0,0-1.89-2.8,3.49,3.49,0,0,0-3.05-.74,10.64,10.64,0,0,0-4.29,2.23,16.71,16.71,0,0,0-4.12,4.61,9.87,9.87,0,0,0-1.48,5.77C440.9,68.35,442.11,70.25,444.42,72Z"/><path class="cls-2" d="M631.73,109.83q-1.89-1.41-4.7,1.56-2,2.31-5.6,7.17t-7.91,9.81a65.71,65.71,0,0,1-9.14,8.73q-4.87,3.79-9.31,3.79c-1.65,0-2.72-.33-3.22-1a6,6,0,0,1-.9-3.13,14.89,14.89,0,0,1,1.56-6.18,20.31,20.31,0,0,0,1.73-7.83,8.07,8.07,0,0,0-1.56-5.52,13.83,13.83,0,0,0-4-3.54q2-1.32,4.78-3.3a32.89,32.89,0,0,0,5.27-4.69,29.79,29.79,0,0,0,4.2-5.93,16,16,0,0,0,1.9-7,14,14,0,0,0-2.14-8.32q-2.31-3.54-7.58-3.54-4.29,0-10.88,3.46A44.22,44.22,0,0,0,573,93.18a92.32,92.32,0,0,0-8.23,10.14q1.63-6.27,3.7-12.28c1.38-4,2.8-8.16,4.29-12.44s3-8.87,4.61-13.76,3.16-10.3,4.7-16.23a110.32,110.32,0,0,0,2.39-10.8q.57-3.87-.41-5.52a3.24,3.24,0,0,0-2.72-1.64,23.66,23.66,0,0,0-4.7.16,32.58,32.58,0,0,0-4.28.83,15,15,0,0,0-3.3,1,7.62,7.62,0,0,0-2.31,1.49,16.35,16.35,0,0,1,.41,4.86q-.07,3.21-.41,6.51-.5,3.95-1,8.24-.66,3.95-2.06,10.79T560.3,79.84q-2,8.47-4.21,17.79c-1,4.4-2.08,8.62-3.1,12.76-1.4,2.09-3.28,4.68-5.71,7.84q-4.12,5.35-8.74,10.47a79,79,0,0,1-9.14,8.73c-3,2.42-5.52,3.62-7.5,3.62s-3-.87-3.21-2.63a17.71,17.71,0,0,1,.74-6.26q1.82-5.61,3.05-10.31t2.06-8.15l1.81-7.25a30,30,0,0,0,1.24-9.72,22.5,22.5,0,0,0-1.65-7.67,12.13,12.13,0,0,0-3.87-5,9.25,9.25,0,0,0-5.61-1.82,18.54,18.54,0,0,0-7.41,1.57,32,32,0,0,0-6.84,4,43.59,43.59,0,0,0-5.93,5.52,75.19,75.19,0,0,0-4.87,6,56.39,56.39,0,0,0,1.65-5.44c.44-1.53.88-3,1.32-4.36s.82-2.45,1.15-3.22a6.8,6.8,0,0,0-2.22-1.23,14,14,0,0,0-2.39-.58,21.26,21.26,0,0,0-2.64-.16,11.68,11.68,0,0,0-2.8.66,14.3,14.3,0,0,0-2.55.9,10.81,10.81,0,0,0-2.39,1.57q-1.65,6.25-2.89,11.53c-.82,3.52-1.51,6.59-2,9.23-.11.48-.2.9-.3,1.36-1.41,2-3.38,4.44-6,7.46q-4.44,5.19-9.64,10.21A92.51,92.51,0,0,1,449.48,136q-5,3.62-8.33,3.62a3.54,3.54,0,0,1-2.14-.74,6.49,6.49,0,0,1-1.81-2.72,8.77,8.77,0,0,1-.49-4.78,46.08,46.08,0,0,1,1.23-6.67c.61-2.36,1.29-4.78,2.06-7.25s1.43-4.7,2-6.68,1.37-4.53,2.47-7.66,2.14-6.18,3.13-9.15,1.81-5.54,2.47-7.74.94-3.35.83-3.46a8,8,0,0,0-2.39-.08,36.23,36.23,0,0,0-4.53.49,43.89,43.89,0,0,0-4.78,1.07,6.32,6.32,0,0,0-3.13,1.65q-2.64,3.3-4.7,10.05A121.45,121.45,0,0,0,428,110.16a140.23,140.23,0,0,0-1.81,14.66,63.32,63.32,0,0,0,0,11.29,12,12,0,0,0,1.65,5.36,17,17,0,0,0,3.7,4.44,17.58,17.58,0,0,0,4.95,3,12.89,12.89,0,0,0,5.52.91q3.47-.16,9-4.29a99.84,99.84,0,0,0,11.29-10c3.34-3.39,6.48-6.93,9.5-10.57l-.44,1.76q-1.32,5.26-2.55,10c-.83,3.13-1.54,5.85-2.15,8.15s-1,3.79-1.07,4.45c-.22,1,.36,1.49,1.73,1.49a15,15,0,0,0,4.87-1,25.94,25.94,0,0,0,5.27-2.56,6.35,6.35,0,0,0,3-3.21q.5-2.31,1.16-4.86t1.4-5.93q.74-3.37,1.73-7.58c.66-2.81,1.48-6.07,2.47-9.81q2.81-4.11,5.69-8a68.94,68.94,0,0,1,5.76-6.84,30.26,30.26,0,0,1,5.69-4.7,10.36,10.36,0,0,1,5.44-1.73,2.79,2.79,0,0,1,2.8,2.39,17.57,17.57,0,0,1,.33,6.1,59.45,59.45,0,0,1-1.4,8.24q-1.08,4.53-2.31,9.06t-2.39,8.41q-1.15,3.87-1.65,6.18a16.5,16.5,0,0,0-.33,6.51,12.51,12.51,0,0,0,2.15,5.35,12,12,0,0,0,4.36,3.71,14.09,14.09,0,0,0,6.51,1.4,15.94,15.94,0,0,0,7.66-2.22,49.31,49.31,0,0,0,8.16-5.77,76.69,76.69,0,0,0,7.91-7.91q3.79-4.36,7.09-8.65l.09-.13c-.36,1.36-.73,2.7-1.08,4q-2,7.17-3.3,11.45a13.47,13.47,0,0,0-.9,4.62,3.57,3.57,0,0,0,.82,2.39,2.91,2.91,0,0,0,1.9.82c.76.05,1.59.08,2.47.08a13.08,13.08,0,0,0,2-.16l1.9-.41a9.6,9.6,0,0,0,2.06-.75q1.32-6.42,2.55-12.44l2.23-10.79q1.16-5.44,2.3-10.38,2.64-3,6.68-7.5t7.33-7.83c1.1-1,2.33-2,3.71-3.13a23.79,23.79,0,0,1,4.2-2.72,8.5,8.5,0,0,1,4.12-1,4.07,4.07,0,0,1,3.3,2.23c1.42,2.09,1.29,4.42-.42,7a40.81,40.81,0,0,1-8.48,8.65c-1.21-.22-2.34-.38-3.38-.49s-1.73-.17-2.06-.17a11.77,11.77,0,0,0-2.47.33,10,10,0,0,0-2.89,1.16,8.37,8.37,0,0,0-2.47,2.3,6.36,6.36,0,0,0-1.07,3.79,6.9,6.9,0,0,0,1.65,4.7,4.8,4.8,0,0,0,3.62,1.9,8.45,8.45,0,0,0,4.7-1.24,17.39,17.39,0,0,0,3.38-2.89,14.57,14.57,0,0,1,1.4,3,6.3,6.3,0,0,1-.08,3.88,28,28,0,0,1-1.07,3.21c-.39.93-.75,1.84-1.07,2.72a26.82,26.82,0,0,0-.91,3,15.5,15.5,0,0,0-.41,3.79,14.39,14.39,0,0,0,2.39,8.66q2.55,3.87,8.32,3.87a21.49,21.49,0,0,0,11.53-3.63,62.22,62.22,0,0,0,11.21-9.14,108.08,108.08,0,0,0,10.3-12.2q4.86-6.67,8.65-12.93C632.86,112.49,633,110.76,631.73,109.83Z"/></svg>