<svg xmlns="http://www.w3.org/2000/svg" viewBox="0 0 453.71 167.04"><defs><style>.cls-1{isolation:isolate;}.cls-2{fill:#666;}.cls-16,.cls-2,.cls-33,.cls-7{opacity:0.5;}.cls-14,.cls-17,.cls-2{mix-blend-mode:multiply;}.cls-3{fill:#6b818a;}.cls-4{fill:#8aa6b2;}.cls-5{fill:#e9f5fd;}.cls-6{fill:#fff;}.cls-15,.cls-16,.cls-18,.cls-33,.cls-6{mix-blend-mode:screen;}.cls-7{fill:#d6e1e8;}.cls-8{fill:#bbc5cd;}.cls-9{fill:#bd7212;}.cls-10{fill:#a74f28;}.cls-11{fill:#f38f2d;}.cls-12{fill:#c76529;}.cls-13,.cls-15,.cls-16{fill:#f6d376;}.cls-14{fill:#ab681f;opacity:0.6;}.cls-17{fill:#eea369;}.cls-19{fill:#f6d58c;}.cls-20{fill:#9d2b25;}.cls-21{fill:#ca3633;}.cls-22{fill:#618d2e;}.cls-23{fill:#a8c813;}.cls-24{fill:#56af34;}.cls-25{fill:#80ba2b;}.cls-26{fill:#a7a08c;}.cls-27{fill:#c5bca4;}.cls-28{fill:#d9dbc0;}.cls-29{fill:#eae3cf;}.cls-30{fill:#ba4e63;}.cls-31{fill:#c6657d;}.cls-32,.cls-33{fill:#d38d91;}</style></defs><g class="cls-1"><g id="Layer_1" data-name="Layer 1"><path class="cls-2" d="M453.71,95.72c0,39.39-101.58,71.32-226.86,71.32S0,135.11,0,95.72s101.57-71.3,226.85-71.3S453.71,56.34,453.71,95.72Z"/><path class="cls-3" d="M403.31,102.11C403.31,133,324.61,158,227.5,158S51.66,133,51.66,102.11,130.39,46.22,227.5,46.22,403.31,71.25,403.31,102.11Z"/><path class="cls-4" d="M451.94,80.28c0,40.06-100.17,74.76-224.28,74.76S2.49,120.34,2.49,80.28,103.1,7.71,227.22,7.71,451.94,40.19,451.94,80.28Z"/><path class="cls-5" d="M451.82,77.16c0,40.71-100.45,73.7-224.32,73.7S3.17,117.87,3.17,77.16,103.6,3.47,227.5,3.47,451.82,36.45,451.82,77.16Z"/><path class="cls-6" d="M451.82,77.16c0,40.71-100.45,73.7-224.32,73.7S3.17,117.87,3.17,77.16,103.6,3.47,227.5,3.47,451.82,36.45,451.82,77.16Z"/><path class="cls-7" d="M427.66,73.25C427.66,107.34,338,135,227.5,135S27.34,107.34,27.34,73.25,116.93,11.54,227.5,11.54,427.66,39.16,427.66,73.25Z"/><path class="cls-8" d="M405.56,72.26c0,32.3-79.73,58.51-178.06,58.51S49.43,104.56,49.43,72.26s79.72-58.5,178.07-58.5S405.56,40,405.56,72.26Z"/><path class="cls-6" d="M403.31,72.47c0,30.28-78.7,54.83-175.81,54.83S51.66,102.75,51.66,72.47s78.73-54.8,175.84-54.8S403.31,42.2,403.31,72.47Z"/><path class="cls-9" d="M419.55,66.79c0,35.35-86,64-192.17,64s-192.16-28.64-192.16-64,86-64,192.16-64S419.55,31.45,419.55,66.79Z"/><path class="cls-10" d="M227.38,132C120.26,132,33.11,102.73,33.11,66.79S120.26,1.62,227.38,1.62,421.65,30.85,421.65,66.79,334.51,132,227.38,132Zm0-128C122.58,4,37.32,32.16,37.32,66.79s85.26,62.81,190.06,62.81,190.07-28.18,190.07-62.81S332.19,4,227.38,4Z"/><path class="cls-11" d="M411.65,60.94c0,33-82.5,59.77-184.27,59.77S43.12,94,43.12,60.94,125.62,1.19,227.38,1.19,411.65,28,411.65,60.94Z"/><path class="cls-12" d="M227.38,121.89C124.62,121.89,41,94.55,41,60.94S124.62,0,227.38,0,413.76,27.34,413.76,60.94,330.14,121.89,227.38,121.89Zm0-119.52C126.94,2.37,45.22,28.65,45.22,60.94s81.72,58.57,182.16,58.57S409.55,93.24,409.55,60.94,327.83,2.37,227.38,2.37Z"/><path class="cls-13" d="M396.44,59c0,30.28-75.69,54.82-169.06,54.82S58.32,89.3,58.32,59,134,4.19,227.38,4.19,396.44,28.73,396.44,59Z"/><path class="cls-14" d="M105.49,53.55c-10.61-1.86-28.75-2.37-39.57,1.56-4.52,1.28-7.63,3.21-6,5.9,4.18,7,31,6.39,40.3,4.14C108.71,63.09,121,56.24,105.49,53.55Z"/><path class="cls-14" d="M289.77,82.64c-8.82-1.54-23.87-2-32.86,1.29-3.74,1.07-6.34,2.67-5,4.91,3.47,5.82,25.72,5.3,33.46,3.43C292.43,90.57,302.64,84.88,289.77,82.64Z"/><path class="cls-14" d="M300,39.58c7.05-1.7,17.26-7.4,4.39-9.64-8.82-1.53-23.88-2-32.85,1.3-3.75,1.07-6.35,2.67-5,4.91C270,42,292.28,41.45,300,39.58Z"/><path class="cls-14" d="M189,99.86c-8.82-1.53-23.87-2-32.85,1.31-3.75,1-6.34,2.65-5,4.89,3.46,5.82,25.71,5.3,33.45,3.44C191.61,107.78,201.82,102.1,189,99.86Z"/><path class="cls-14" d="M246.18,22.82c7.19-1.74,17.58-7.52,4.48-9.8-9-1.55-24.27-2-33.4,1.33-3.81,1.08-6.44,2.7-5.08,5C215.71,25.25,238.32,24.72,246.18,22.82Z"/><path class="cls-14" d="M131.06,28.29c5.79.54,13,1.12,17.16,3.77a.66.66,0,0,0,.66-.12H149a33.27,33.27,0,0,0,4.25-2.68,18.2,18.2,0,0,0,3.25-2.83,1.62,1.62,0,0,0,0-.22,5.07,5.07,0,0,0-.82-2.6.58.58,0,0,1-.11-.26c-2.36-1.2-9.66-2.05-10.73-2.12-4.39-.32-8.77.44-13.12.67-2.13.11-3.53,1.68-4.77,2.64a1.4,1.4,0,0,1-.18.13c-.16.12-.32.22-.47.32s0,0,0,0a1.14,1.14,0,0,0-.11.11.52.52,0,0,1,0,.3,2.3,2.3,0,0,0,0,2C126.73,28.18,128.19,28,131.06,28.29Z"/><path class="cls-14" d="M142.89,52.79a1.1,1.1,0,0,0-.18.14l-.47.31s0,0,0,0a.52.52,0,0,0-.11.1.49.49,0,0,1,0,.31,2.34,2.34,0,0,0,0,2c.62.78,2.09.63,4.95.89,5.79.54,13,1.12,17.17,3.77a.66.66,0,0,0,.66-.12l.08,0a33.11,33.11,0,0,0,4.24-2.67,18.33,18.33,0,0,0,3.26-2.83.82.82,0,0,0,0-.22,5,5,0,0,0-.81-2.6.8.8,0,0,1-.12-.27c-2.35-1.19-9.66-2-10.73-2.11-4.4-.32-8.78.43-13.12.66C145.53,50.26,144.13,51.82,142.89,52.79Z"/><path class="cls-14" d="M206.32,71.92l-.09-.08s0,0,0,0l-.35-.24-.13-.09c-.92-.72-2-1.89-3.55-2-3.24-.16-6.51-.72-9.79-.49-.78,0-6.23.69-8,1.58a.69.69,0,0,1-.09.2,3.74,3.74,0,0,0-.6,1.93.47.47,0,0,0,0,.16A14.47,14.47,0,0,0,186.13,75a26.66,26.66,0,0,0,3.18,2l.05,0a.53.53,0,0,0,.5.08c3.09-2,8.47-2.41,12.79-2.81,2.14-.19,3.23-.08,3.7-.66a1.79,1.79,0,0,0,0-1.47A.32.32,0,0,1,206.32,71.92Z"/><path class="cls-14" d="M327.55,31.3a.47.47,0,0,0,.48.09c3.1-2,8.48-2.41,12.8-2.81,2.13-.2,3.23-.08,3.69-.66a1.74,1.74,0,0,0,0-1.48.42.42,0,0,1,0-.22l-.08-.08s0,0,0,0l-.35-.24-.13-.09c-.93-.72-2-1.9-3.56-2-3.23-.17-6.5-.74-9.78-.5-.79.06-6.24.69-8,1.57a.46.46,0,0,1-.08.21A3.85,3.85,0,0,0,321.9,27a.91.91,0,0,0,0,.17,14.18,14.18,0,0,0,2.43,2.11,25.9,25.9,0,0,0,3.16,2Z"/><path class="cls-14" d="M311.45,97.57s-.05,0-.08-.07,0,0,0,0a2.41,2.41,0,0,1-.36-.23l-.13-.1c-.92-.72-2-1.89-3.55-2-3.23-.17-6.5-.74-9.78-.49-.8,0-6.24.68-8,1.58a.53.53,0,0,1-.09.19,4,4,0,0,0-.6,1.94.86.86,0,0,0,0,.16,13.67,13.67,0,0,0,2.42,2.11,25.29,25.29,0,0,0,3.17,2h.06a.47.47,0,0,0,.49.1c3.1-2,8.47-2.41,12.8-2.82,2.13-.2,3.22-.08,3.69-.66a1.76,1.76,0,0,0,0-1.47A.32.32,0,0,1,311.45,97.57Z"/><path class="cls-14" d="M322.85,57.17s-.05-.06-.08-.08a0,0,0,0,0,0,0,3.75,3.75,0,0,1-.36-.24l-.13-.1c-.92-.72-2-1.88-3.55-2-3.24-.18-6.51-.74-9.79-.51-.79.06-6.24.69-8,1.59a.65.65,0,0,1-.09.19,3.9,3.9,0,0,0-.6,1.94.44.44,0,0,0,0,.16,14,14,0,0,0,2.42,2.11,24.47,24.47,0,0,0,3.17,2h.07a.47.47,0,0,0,.49.1c3.09-2,8.47-2.41,12.79-2.81,2.13-.2,3.23-.09,3.7-.67a1.72,1.72,0,0,0,0-1.47A.34.34,0,0,1,322.85,57.17Z"/><path class="cls-14" d="M135.2,88.85l-.08-.07a0,0,0,0,0,0,0,3.5,3.5,0,0,1-.35-.23l-.13-.1c-.92-.72-2-1.89-3.56-2-3.23-.17-6.51-.74-9.77-.5-.8.06-6.25.69-8,1.58a.36.36,0,0,1-.09.2,4,4,0,0,0-.6,1.93,1,1,0,0,0,0,.17A13.28,13.28,0,0,0,115,91.93a25.32,25.32,0,0,0,3.17,2h.06c.12.08.34.18.49.08,3.1-2,8.48-2.41,12.8-2.81,2.13-.19,3.22-.08,3.69-.67a1.7,1.7,0,0,0,0-1.46A.46.46,0,0,1,135.2,88.85Z"/><path class="cls-14" d="M156.27,70.88c.69-.53,1.95-1.42,2.18-2.06a4,4,0,0,0-.3-2.69,4.7,4.7,0,0,0-.33-.55c-.89-1.26-3.55-1.84-5.61-2.43a41.8,41.8,0,0,0-13.56-1.35,48.55,48.55,0,0,0-7.54,1c-3,.64-5.26,1.77-6.5,3.33A2.46,2.46,0,0,0,124,67a1.3,1.3,0,0,0-.1.15s0,0,0,.06a2.36,2.36,0,0,0-.11,1c.26,2.3,6.16,2.13,8.94,3.06a5.74,5.74,0,0,1-1.66,1.36.38.38,0,0,1,0,.15.44.44,0,0,0,0,.34,6.36,6.36,0,0,1,0,.65c-.7,1.75,9,1.93,10.88,1.93,1,0,1.93,0,2.85-.07.3,0,.52-.09.77-.14.95-1.36,1.42-3.18,4.49-3.1A10.17,10.17,0,0,0,156.27,70.88Z"/><path class="cls-14" d="M257.16,56.08c.7-.54,2-1.42,2.19-2.06a3.87,3.87,0,0,0-.3-2.68,3.73,3.73,0,0,0-.32-.56c-.89-1.26-3.57-1.84-5.62-2.42A42.07,42.07,0,0,0,239.55,47,49,49,0,0,0,232,48c-3,.65-5.24,1.77-6.49,3.34a2.52,2.52,0,0,0-.59.84s-.08.09-.1.15,0,0,0,.06a2.51,2.51,0,0,0-.1,1c.25,2.3,6.15,2.13,8.93,3A5.6,5.6,0,0,1,232,57.85s0,.09,0,.15a.5.5,0,0,0,0,.34c0,.3,0,.61,0,.65-.69,1.75,9,1.94,10.89,1.94,1,0,1.91,0,2.85-.08.28,0,.52-.09.77-.14.94-1.36,1.41-3.18,4.49-3.1A10.06,10.06,0,0,0,257.16,56.08Z"/><path class="cls-14" d="M332.46,43.85s0,.07,0,.11h0c0,.24,0,.76,0,.79-.56,1.42,7.28,1.57,8.78,1.57.8,0,1.56,0,2.3-.07a3.62,3.62,0,0,0,.62-.11c.77-1.09,1.14-2.56,3.64-2.5a8.21,8.21,0,0,0,5-1.23c.56-.44,1.57-1.15,1.75-1.67a3.13,3.13,0,0,0-.25-2.2s-.05,0-.06,0-.12-.27-.19-.37c-.72-1-2.88-1.48-4.53-2a33.8,33.8,0,0,0-10.95-1.09,38.11,38.11,0,0,0-6.1.81,9,9,0,0,0-5.23,2.68,2,2,0,0,0-.49.7l-.07.11s0,0,0,0a2,2,0,0,0-.09.86c.21,1.85,5,1.71,7.21,2.46A4.61,4.61,0,0,1,332.46,43.85Z"/><path class="cls-14" d="M88.2,35.72a6.63,6.63,0,0,0,4.2,1.17c2.15,0,2.38,1.27,3,2.23l.52.11c.64,0,1.31.08,2,.09,1.29,0,8,.06,7.65-1.16,0,0,0-.47,0-.68h0s0-.07,0-.1a3.59,3.59,0,0,1-1.08-1c2-.59,6.06-.38,6.36-2a2.16,2.16,0,0,0,0-.72s0,0,0-.05a.44.44,0,0,1-.08-.11,1.77,1.77,0,0,0-.35-.59,7.35,7.35,0,0,0-4.34-2.42,34.48,34.48,0,0,0-5.19-.81,29.55,29.55,0,0,0-9.48.71c-1.45.38-3.33.74-4,1.6-.07.08-.11.21-.18.31s-.06,0-.06,0a2.72,2.72,0,0,0-.36,1.87C86.9,34.72,87.74,35.34,88.2,35.72Z"/><path class="cls-14" d="M247.9,97.39c0-.07-.08-.12-.11-.18a2.51,2.51,0,0,0-.53-.82c-1.17-1.59-3.36-2.76-6.33-3.45a47.57,47.57,0,0,0-7.49-1.13,42.41,42.41,0,0,0-13.62,1.13c-2.08.56-4.79,1.09-5.74,2.33a4.68,4.68,0,0,0-.39.62,4.08,4.08,0,0,0-.41,2.61c.2.65,1.41,1.54,2.08,2.09a9.66,9.66,0,0,0,6.09,1.63c3.09,0,3.47,1.8,4.33,3.18.25,0,.49.11.77.15.93.06,1.87.11,2.84.12,1.86,0,11.59,0,11-1.75,0,0,0-.36,0-.65a.44.44,0,0,0,0-.34c0-.06,0-.09,0-.15a5.24,5.24,0,0,1-1.58-1.39c2.83-.88,8.72-.62,9.09-2.89a2.66,2.66,0,0,0,0-1.06S247.91,97.41,247.9,97.39Z"/><path class="cls-14" d="M166.78,17.3c.18.65,1.4,1.54,2.07,2.09A9.85,9.85,0,0,0,174.94,21c3.1,0,3.46,1.8,4.34,3.17.24.05.48.11.76.15.93.06,1.87.1,2.84.13,1.86,0,11.59,0,11-1.76a5.67,5.67,0,0,1,0-.64.44.44,0,0,0,0-.34.81.81,0,0,1,0-.16,5.4,5.4,0,0,1-1.59-1.39c2.83-.88,8.73-.61,9.1-2.9a2.45,2.45,0,0,0,0-1.05s0,0,0,0-.08-.11-.11-.18a2.27,2.27,0,0,0-.53-.82c-1.16-1.59-3.35-2.75-6.33-3.45a46.48,46.48,0,0,0-7.48-1.12,42.15,42.15,0,0,0-13.63,1.12c-2.08.56-4.78,1.09-5.74,2.33a5.25,5.25,0,0,0-.39.63A4,4,0,0,0,166.78,17.3Z"/><path class="cls-14" d="M359.26,79.4a.57.57,0,0,0-.08-.13,1.93,1.93,0,0,0-.41-.65,8.36,8.36,0,0,0-4.95-2.69,35.53,35.53,0,0,0-5.85-.88,32.64,32.64,0,0,0-10.64.88c-1.63.43-3.73.85-4.48,1.82-.08.1-.13.24-.21.36l-.06,0a3.12,3.12,0,0,0-.36,2.12c.15.5,1.1,1.21,1.63,1.63a7.59,7.59,0,0,0,4.76,1.28c2.4,0,2.7,1.42,3.38,2.48.2,0,.38.09.59.12.73,0,1.47.09,2.23.11,1.45,0,9.06,0,8.57-1.38,0,0,0-.53,0-.76h0s0-.08,0-.12a4.23,4.23,0,0,1-1.24-1.09c2.22-.68,6.82-.47,7.11-2.27a1.8,1.8,0,0,0,0-.81S359.27,79.42,359.26,79.4Z"/><path class="cls-14" d="M190.93,40.56c0-.08,0-.12-.11-.15a7.88,7.88,0,0,1-.44-1.75c-.21-.74-.74-1.46-1-2.19-.09-.26,0-1-.81-1s-1.81,0-2.73,0a38.84,38.84,0,0,0-5.69.07c-1.17,0-2.35.1-3.54.25a.37.37,0,0,0-.34.2,1,1,0,0,0-.08.45c-.31.6-.52,1.65-.32,1.19-.44,1-.92,2-1.29,3l0,0a.26.26,0,0,0-.05.12,3.47,3.47,0,0,0,.42.81c.13.32.33.67.55,1.18.06.15,0,.69.35.78,1.24.36,3.43.07,4.8.06a64,64,0,0,0,9.52-.36C191.73,43,190.91,41.17,190.93,40.56Z"/><path class="cls-14" d="M275.05,21.26c.09.23.24.49.4.86.05.11,0,.52.25.59a15.74,15.74,0,0,0,3.57,0,47.56,47.56,0,0,0,7.08-.25c1.14-.2.54-1.52.56-2a.12.12,0,0,0-.08-.1,6.32,6.32,0,0,1-.34-1.31c-.15-.54-.54-1.08-.75-1.63-.08-.18,0-.73-.59-.77s-1.35,0-2,0a28.48,28.48,0,0,0-4.22.05,26,26,0,0,0-2.63.18c-.13,0-.22.08-.24.15a.7.7,0,0,0-.07.34c-.23.44-.38,1.22-.23.88-.34.74-.69,1.5-1,2.24,0,0,0,0,0,0s0,.05,0,.08A2.44,2.44,0,0,0,275.05,21.26Z"/><path class="cls-14" d="M242.1,45.11c.06.18.17.37.29.64,0,.08,0,.38.19.43a11.84,11.84,0,0,0,2.6,0,34.14,34.14,0,0,0,5.17-.2c.84-.13.4-1.1.41-1.43a.09.09,0,0,0-.06-.09,5.09,5.09,0,0,1-.24-1,12.63,12.63,0,0,0-.55-1.19c0-.14,0-.53-.44-.56s-1,0-1.48,0a24.68,24.68,0,0,0-3.09,0A17.89,17.89,0,0,0,243,42c-.1,0-.16,0-.18.11a.46.46,0,0,0,0,.24c-.18.33-.29.89-.18.65-.24.54-.5,1.09-.7,1.63v0s0,0,0,0A1.37,1.37,0,0,0,242.1,45.11Z"/><path class="cls-14" d="M106.45,42.47c-.64,0-1.27.06-1.92.14a.24.24,0,0,0-.19.11.59.59,0,0,0,0,.25c-.17.32-.29.89-.18.64-.25.54-.5,1.1-.7,1.64h0a.13.13,0,0,0,0,.05,1.65,1.65,0,0,0,.23.46c.07.18.18.36.3.64,0,.07,0,.37.19.42a11.83,11.83,0,0,0,2.6,0,35.62,35.62,0,0,0,5.18-.21c.83-.13.39-1.11.39-1.44,0,0,0-.06,0-.08a3.54,3.54,0,0,1-.25-.94c-.12-.4-.4-.79-.55-1.19,0-.14,0-.54-.44-.57s-1,0-1.48,0A22.93,22.93,0,0,0,106.45,42.47Z"/><path class="cls-14" d="M182.6,90.36c.07.18.19.36.3.64,0,.07,0,.38.18.43a11.35,11.35,0,0,0,2.61,0,34.09,34.09,0,0,0,5.17-.2c.83-.13.4-1.1.41-1.44,0,0,0,0-.06-.08a3.94,3.94,0,0,1-.24-.94,12.82,12.82,0,0,0-.55-1.19c-.06-.14,0-.55-.44-.57a14.61,14.61,0,0,0-1.48,0,22.69,22.69,0,0,0-3.08,0c-.66,0-1.28.06-1.93.13a.25.25,0,0,0-.19.12.59.59,0,0,0,0,.25c-.18.32-.29.88-.18.64-.24.54-.51,1.1-.7,1.64,0,0,0,0,0,0s0,0,0,0A1.69,1.69,0,0,0,182.6,90.36Z"/><path class="cls-14" d="M275.42,61.6c.07.17.18.36.3.63,0,.08,0,.38.18.43a11.93,11.93,0,0,0,2.61,0,35.55,35.55,0,0,0,5.17-.19c.83-.14.4-1.11.41-1.44,0-.05,0-.06-.06-.08a4.12,4.12,0,0,1-.25-1c-.11-.39-.39-.78-.54-1.18-.06-.14,0-.54-.44-.56a14.81,14.81,0,0,0-1.49,0,23,23,0,0,0-3.09.05,17.86,17.86,0,0,0-1.92.13.22.22,0,0,0-.18.11.47.47,0,0,0,0,.24c-.17.33-.29.9-.17.65-.25.54-.51,1.1-.71,1.64h0s0,0,0,.06A1.37,1.37,0,0,0,275.42,61.6Z"/><path class="cls-14" d="M112.08,76.11a6.8,6.8,0,0,1-.33-1.31c-.15-.54-.54-1.08-.75-1.62-.08-.19,0-.74-.59-.77a19.82,19.82,0,0,0-2,0,29.91,29.91,0,0,0-4.22,0,23.42,23.42,0,0,0-2.63.19.29.29,0,0,0-.25.15.91.91,0,0,0,0,.33c-.25.45-.39,1.22-.25.88-.33.74-.69,1.5-1,2.24,0,0,0,0,0,0s0,.06,0,.08a2.25,2.25,0,0,0,.31.62c.09.23.24.49.4.86.05.11,0,.52.26.59a15.63,15.63,0,0,0,3.56,0,48.94,48.94,0,0,0,7.08-.26c1.14-.19.54-1.52.55-2A.1.1,0,0,0,112.08,76.11Z"/><path class="cls-14" d="M264.88,106.84a5.25,5.25,0,0,1-.33-1.31c-.15-.54-.55-1.09-.75-1.62-.07-.19,0-.74-.6-.77a17.18,17.18,0,0,0-2,0,28.46,28.46,0,0,0-4.22.05c-.88,0-1.74.07-2.64.18a.29.29,0,0,0-.24.15.69.69,0,0,0-.07.34c-.23.45-.39,1.22-.23.87-.33.75-.69,1.51-1,2.25,0,0,0,0,0,0a0,0,0,0,0,0,.07,2.16,2.16,0,0,0,.3.61c.09.24.24.5.4.86,0,.12,0,.53.26.6a15.73,15.73,0,0,0,3.57,0,44.88,44.88,0,0,0,7.07-.26c1.15-.18.54-1.52.56-2A.09.09,0,0,0,264.88,106.84Z"/><path class="cls-14" d="M351,46.94a.29.29,0,0,0-.25.15.71.71,0,0,0-.05.33c-.24.45-.39,1.23-.24.88-.34.75-.69,1.51-1,2.25,0,0,0,0,0,0s-.06,0,0,.08a2.07,2.07,0,0,0,.31.61c.09.24.24.5.4.86.05.11,0,.52.26.59a15.7,15.7,0,0,0,3.57,0,47.46,47.46,0,0,0,7.07-.27c1.14-.18.54-1.52.56-2a.11.11,0,0,0-.08-.11,5.42,5.42,0,0,1-.34-1.3c-.14-.55-.54-1.09-.74-1.63-.08-.19,0-.73-.6-.77a19.64,19.64,0,0,0-2,0,27.29,27.29,0,0,0-4.23,0C352.71,46.79,351.85,46.83,351,46.94Z"/><path class="cls-15" d="M369.89,55.55c-2.72-3.13,10.42-8.23,10.34-12-.13-6.71-10.84-13.9-20.43-17.74-8-3.21-26.93-3.26-37-2.42-3.52.29-6.88.75-10.34,1.21l-7.42.28c-4.43.43-6.28-.53-5.57-2.86,1.57-.44,6-1.28,6.84-2.53,2.09-3.27-10.36-6.18-13.85-7-12.95-3.18-27.93-4.09-41.81-4.92-10.92-.65-25-.62-35.41,1.59-1.27.27-3.87.67-4.33,1.61-1.65,3.32-5.83,5.61-11.06,6.17a47,47,0,0,1-6.56-.21c-.17,0-.33,0-.5-.07a22.16,22.16,0,0,1-9.73-3.33c-5.18-3.45-16.43-2.75-23.45-2.19a78,78,0,0,0-16.06,3.13c-11.86,1.5-22.83,4.83-25.8,11.3-3.59,7.79-22.33,6.07-33.07,8.9-6.19,1.62-16,5.72-16.06,10.1,0,2.12.31,3.16,2.88,4.8s9.53.5,12.17,2.36.25,3.11-2.11,4.79C77.67,59.24,67.23,63.2,67.29,67c.15,11,40-1.67,47.19-1.88,26.69-.76-11.56,17-13.31,19.92-3.21,5.26,4.68,6.86,12.44,7.81,3.8.46,8,.4,11.83.71,8.26.65,8.29,3.15,10.15,7,.89,1.85,4.08,2.69,6.88,3.32,9.64,2.2,22.71-2.85,30.78-5.06s15.59-4.49,24.69-4.77c8-.24,11.6,6.84,14.06,10,4.57,5.84,13.58,8.88,24.43,9.89A60.12,60.12,0,0,0,265,109.51c5.36-2.14,10-4.77,15.34-7,9.11-3.77,19.55.93,28.58,1.75,11.75,1,25.66-.27,35.95-3.68,9-3,9.22-8.66,11.15-13.81,3.11-8.26,17.27-8.26,25.83-13.46,5.11-3.1,5-7,1.42-10.48a25.85,25.85,0,0,0-6.65-4.47C375.23,57.68,370.64,56.43,369.89,55.55Z"/><path class="cls-16" d="M146.43,118.89c-24.35-4.85-47.56-11.82-67.72-21-16.64-7.56-34.13-20.13-38-32.24,0-.07-.21,0-.2,0C41.61,78.05,57.38,90.56,73,98.55c20.37,10.39,46.06,17.49,72.78,20.91C146.32,119.52,147,119,146.43,118.89Z"/><path class="cls-17" d="M351.7,109c-1.29.14-2.59.25-3.89.37.75-.91,1.42-1.82,2-2.7,0-.06-.11,0-.16,0-.69.91-1.49,1.83-2.31,2.74l-1.58.14c-.21,0-.43.07-.65.09a27.76,27.76,0,0,0,2.06-3.1c0-.06-.12-.06-.14,0a26.49,26.49,0,0,1-2.54,3.19c-.75.11-1.58.24-2.39.34a12.52,12.52,0,0,1,.77-1.5c0-.06-.12-.05-.16,0-.35.51-.66,1-1,1.54a12.47,12.47,0,0,1-3.44,0c-.1,0-.23.08-.11.11a10.51,10.51,0,0,0,3.49-.07c-.31.53-.62,1.06-.94,1.59-1.21.25-2.43.49-3.68.66-.11,0-.2.14,0,.12,1.18-.11,2.36-.3,3.53-.5-.14.24-.27.47-.43.7s-.31.39-.46.58l-4.3.73c-.09,0-.16.13,0,.1,1.36-.15,2.72-.34,4.08-.55a10.12,10.12,0,0,0-2.34,3.22c-.05.16.31.09.36,0a31.08,31.08,0,0,1,2.58-3.3c.46-.07.93-.13,1.39-.21a12.78,12.78,0,0,0-1.25,1.88c-.12.2.33.14.44,0,.55-.68,1.12-1.36,1.69-2.05.54-.09,1.08-.18,1.62-.29-.19.18-.37.37-.57.54s.13.18.26.09c.31-.23.6-.49.89-.74.89-.17,1.76-.36,2.61-.55.23-.06.26-.29,0-.23-.69.14-1.4.26-2.09.39.5-.46,1-.92,1.44-1.42l1.12-.21c.23,0,.41-.32.06-.27s-.56.09-.85.14c.29-.33.54-.65.81-1,1.36-.12,2.7-.23,4-.4C351.85,109.17,352,108.94,351.7,109Zm-9.62,1.15c.27,0,.53-.08.78-.1.5-.06,1-.1,1.5-.14-.4.46-.81.91-1.2,1.37l-1.78.36C341.63,111.13,341.86,110.62,342.08,110.13Zm-.35,2.83-1.42.25c.12-.16.25-.31.37-.46a6.71,6.71,0,0,0,.52-.83c.55-.1,1.1-.19,1.63-.3C342.45,112.07,342.08,112.51,341.73,113Zm2.62-.5-1.73.34c.37-.46.73-.89,1.09-1.35l2.12-.41C345.36,111.53,344.84,112,344.35,112.46Zm1.84-1.79c-.72.13-1.45.25-2.16.4.33-.41.63-.82.94-1.24l2.17-.18C346.83,110,346.52,110.34,346.19,110.67Z"/><path class="cls-17" d="M164.18,118c-1.16.43-2.26.89-3.35,1.36-.61-.13-1.2-.26-1.81-.37l.78-.24c.3-.11-.18-.24-.39-.17l-1,.3c-.94-.16-1.88-.3-2.81-.42.67-.18,1.3-.38,2-.56.29-.07,0-.23-.24-.18-.85.21-1.69.43-2.53.66-.53,0-1.06-.12-1.57-.16-.2,0-.28.14-.07.17l1.09.15c-.52.14-1,.3-1.52.45l-3.76-.77c-.24-.05-.63.1-.29.19,1,.32,2.14.58,3.23.81-.41.15-.83.28-1.24.41-2-.4-4-.75-6-1.27-.15,0-.49.05-.27.14a31.89,31.89,0,0,0,5.7,1.32c-1.22.4-2.4.82-3.57,1.25-.11,0,.09.1.16.07l3.93-1.22c.36.07.71.14,1.07.23s.78.21,1.17.31c-1.08.33-2.14.68-3.12,1.07-.13.06.08.12.19.08,1.08-.39,2.24-.7,3.41-1l2.65.73a5.9,5.9,0,0,0-2.53,1.37c-.05.06.18.08.23,0a6.53,6.53,0,0,1,2.45-1.36c.87.24,1.73.47,2.63.69.07,0,.2,0,.09-.07-.83-.22-1.63-.47-2.42-.74.72-.26,1.44-.5,2.11-.72,2,.37,3.92.74,5.8,1.22.08,0,.2,0,.09-.06-1.73-.51-3.53-.94-5.35-1.35l.55-.2,1.3-.53c1.74.3,3.45.63,5.09,1,.08,0,.2,0,.09-.07-1.51-.37-3.14-.74-4.81-1.08,1.06-.43,2.12-.88,3.2-1.29C164.72,118,164.35,117.9,164.18,118Zm-10.28,2.43,1.72-.45,2.56.47c-.41.17-.8.35-1.21.51l-.67.25C155.5,120.9,154.71,120.63,153.9,120.39Zm1-.58-1.52.45c-.46-.14-.92-.27-1.4-.38l-.84-.17,1.31-.39Zm2.84-.8c-.66.18-1.33.39-2,.56l-2.46-.49,1.63-.47Zm2.68.46-1.76.74c-.74-.17-1.47-.34-2.22-.49.69-.18,1.36-.39,2-.6Z"/><g class="cls-18"><path class="cls-19" d="M60.59,58.8c-1.29-.06-2.56,0-3.84.08a38.34,38.34,0,0,0-8.15,1.06c-2.34.13-4.09,2.82-.64,2.66,2.75-.14,5.4-.45,8.18-.53,2.19-.07,4.75.46,6.41-.64C64.42,60.2,62.7,58.92,60.59,58.8Z"/><path class="cls-19" d="M78.86,55.52a29.06,29.06,0,0,0-3.48-.91,37.05,37.05,0,0,0-8.1-1.13C65.09,53,61.4,55,64.6,55.69c2.54.57,5.16,1,7.69,1.6,2,.5,3.88,1.61,6.24,1.05C81.15,57.72,80.65,56.15,78.86,55.52Z"/><path class="cls-19" d="M61.78,68.21a25.37,25.37,0,0,0-2.94-.42,30.85,30.85,0,0,0-6.58-.22c-1.83-.19-4.21,1.63-1.53,1.93,2.14.25,4.27.33,6.4.62,1.7.23,3.42.94,5.12.32C64.14,69.74,63.34,68.56,61.78,68.21Z"/><path class="cls-19" d="M81.32,62.46a28.68,28.68,0,0,0-3,.36,25.52,25.52,0,0,0-6,1.45c-1.78.28-2.49,2.49.14,2.1,2.1-.31,4.07-.76,6.21-1,1.69-.21,3.79,0,4.83-1S83,62.39,81.32,62.46Z"/><path class="cls-19" d="M98.42,69.65a35.11,35.11,0,0,0-3.84.07,38.06,38.06,0,0,0-8.13,1.06c-2.35.13-4.09,2.82-.66,2.66,2.76-.13,5.4-.46,8.17-.54,2.21-.06,4.77.46,6.43-.64C102.25,71,100.53,69.75,98.42,69.65Z"/><path class="cls-19" d="M116.69,66.36a28.1,28.1,0,0,0-3.48-.92,37.57,37.57,0,0,0-8.09-1.12c-2.2-.48-5.88,1.48-2.68,2.2,2.54.58,5.16,1,7.68,1.6,2,.51,3.87,1.62,6.24,1.07C119,68.57,118.48,67,116.69,66.36Z"/><path class="cls-19" d="M99.62,79c-1-.2-2-.31-3-.42a31.37,31.37,0,0,0-6.57-.21c-1.83-.19-4.21,1.62-1.53,1.93,2.14.25,4.26.33,6.39.62,1.7.23,3.44.94,5.13.32C102,80.58,101.17,79.39,99.62,79Z"/><path class="cls-19" d="M119.16,73.3a25.92,25.92,0,0,0-3,.35,26,26,0,0,0-6,1.46c-1.79.28-2.5,2.49.13,2.1,2.1-.31,4.08-.76,6.21-1,1.7-.22,3.8,0,4.84-1S120.81,73.23,119.16,73.3Z"/><path class="cls-19" d="M89.76,43.49a35.34,35.34,0,0,0-3.85.07,36.25,36.25,0,0,0-8.13,1.07c-2.34.12-4.09,2.81-.64,2.65,2.74-.14,5.39-.46,8.16-.54,2.21-.06,4.76.46,6.43-.64C93.58,44.88,91.87,43.59,89.76,43.49Z"/><path class="cls-19" d="M125.12,44.93a28.9,28.9,0,0,0-3.47-.91,37,37,0,0,0-8.09-1.12c-2.2-.48-5.89,1.47-2.7,2.21,2.55.57,5.17,1,7.7,1.6,2,.49,3.87,1.61,6.23,1C127.42,47.14,126.91,45.57,125.12,44.93Z"/><path class="cls-19" d="M108.29,55.08a28.3,28.3,0,0,0-3-.42,31.49,31.49,0,0,0-6.58-.22c-1.83-.19-4.21,1.63-1.52,1.94,2.12.24,4.26.33,6.39.61,1.7.23,3.43.94,5.12.32C110.64,56.61,109.83,55.42,108.29,55.08Z"/><path class="cls-19" d="M141.21,49.34a28.36,28.36,0,0,0-3,.35,26.53,26.53,0,0,0-6.05,1.45c-1.79.28-2.5,2.5.13,2.11,2.1-.31,4.07-.77,6.21-1,1.69-.21,3.8,0,4.83-1S142.87,49.26,141.21,49.34Z"/><path class="cls-19" d="M127.64,59.46a21.16,21.16,0,0,0-2.52,0,25.2,25.2,0,0,0-5.31.69c-1.54.09-2.68,1.85-.42,1.74,1.79-.09,3.53-.3,5.34-.35,1.44-.05,3.11.3,4.2-.42S129,59.53,127.64,59.46Z"/><path class="cls-19" d="M151.83,58.47a22.34,22.34,0,0,0-2.28-.6,24.71,24.71,0,0,0-5.29-.72c-1.43-.31-3.84,1-1.76,1.44,1.67.38,3.38.63,5,1,1.31.33,2.53,1.06,4.07.69C153.33,59.92,153,58.88,151.83,58.47Z"/><path class="cls-19" d="M140.66,66.77a19.29,19.29,0,0,0-1.92-.27,20.61,20.61,0,0,0-4.3-.14c-1.2-.13-2.76,1.06-1,1.26,1.39.16,2.79.22,4.18.4,1.11.16,2.24.62,3.34.21S141.68,67,140.66,66.77Z"/><path class="cls-19" d="M153.44,63a17.43,17.43,0,0,0-1.94.23,16.52,16.52,0,0,0-4,1c-1.16.18-1.62,1.63.09,1.38,1.37-.21,2.67-.51,4.06-.68,1.11-.15,2.49,0,3.16-.65S154.52,63,153.44,63Z"/></g><g class="cls-18"><path class="cls-19" d="M109.15,90.69a38,38,0,0,0-3.85.07,38.71,38.71,0,0,0-8.13,1.07c-2.35.13-4.1,2.82-.65,2.66,2.75-.14,5.4-.45,8.17-.53,2.21-.07,4.76.46,6.43-.65C113,92.09,111.26,90.8,109.15,90.69Z"/><path class="cls-19" d="M127.41,87.4a28.1,28.1,0,0,0-3.48-.91,36.79,36.79,0,0,0-8.09-1.12c-2.19-.47-5.88,1.46-2.69,2.2,2.55.58,5.17,1,7.7,1.59,2,.51,3.87,1.63,6.24,1.07C129.71,89.61,129.21,88,127.41,87.4Z"/><path class="cls-19" d="M110.35,100.09a28.3,28.3,0,0,0-2.95-.42,30.82,30.82,0,0,0-6.58-.21c-1.83-.2-4.2,1.62-1.53,1.94,2.13.23,4.27.32,6.4.61,1.69.22,3.43.94,5.12.31C112.69,101.63,111.89,100.43,110.35,100.09Z"/><path class="cls-19" d="M129.88,94.35a26.46,26.46,0,0,0-3,.35,25.8,25.8,0,0,0-6,1.46c-1.79.28-2.51,2.49.13,2.1,2.09-.32,4.08-.76,6.2-1,1.7-.23,3.8,0,4.83-1S131.54,94.28,129.88,94.35Z"/><path class="cls-19" d="M147,101.53a35.15,35.15,0,0,0-3.84.07,38.24,38.24,0,0,0-8.14,1.07c-2.34.13-4.09,2.81-.65,2.65,2.75-.13,5.4-.45,8.18-.54,2.2-.06,4.75.46,6.42-.63C150.81,102.92,149.09,101.64,147,101.53Z"/><path class="cls-19" d="M165.25,98.24a30.16,30.16,0,0,0-3.49-.92,38,38,0,0,0-8.08-1.11c-2.2-.48-5.89,1.46-2.69,2.19,2.55.59,5.16,1,7.69,1.61,2,.5,3.89,1.62,6.24,1.06C167.55,100.46,167,98.87,165.25,98.24Z"/><path class="cls-19" d="M148.17,110.93a27.17,27.17,0,0,0-2.93-.43,33,33,0,0,0-6.59-.21c-1.83-.18-4.2,1.63-1.52,1.94,2.13.24,4.26.33,6.39.61,1.71.23,3.43,1,5.12.32C150.53,112.46,149.73,111.28,148.17,110.93Z"/><path class="cls-19" d="M167.72,105.18a28.35,28.35,0,0,0-3,.36A25.89,25.89,0,0,0,158.7,107c-1.79.27-2.5,2.49.13,2.1,2.09-.32,4.07-.77,6.22-1,1.69-.23,3.79,0,4.82-1S169.38,105.11,167.72,105.18Z"/><path class="cls-19" d="M138.32,75.37a38,38,0,0,0-3.85.06,38.32,38.32,0,0,0-8.14,1.07c-2.34.14-4.08,2.82-.63,2.66,2.74-.13,5.39-.45,8.16-.54,2.21-.06,4.75.46,6.42-.63C142.15,76.76,140.42,75.48,138.32,75.37Z"/><path class="cls-19" d="M173.68,76.81a32.76,32.76,0,0,0-3.48-.91,37,37,0,0,0-8.09-1.11c-2.19-.48-5.88,1.46-2.69,2.19,2.55.58,5.17,1,7.69,1.6,2,.5,3.88,1.62,6.25,1.06C176,79,175.47,77.45,173.68,76.81Z"/><path class="cls-19" d="M156.84,87a27.73,27.73,0,0,0-2.94-.44,32.25,32.25,0,0,0-6.59-.2c-1.83-.19-4.2,1.63-1.52,1.94,2.13.23,4.26.32,6.39.61,1.71.22,3.43.94,5.13.32C159.2,88.5,158.39,87.31,156.84,87Z"/><path class="cls-19" d="M189.77,81.22a26.19,26.19,0,0,0-3,.35A26.53,26.53,0,0,0,180.75,83c-1.79.29-2.5,2.5.13,2.11,2.1-.31,4.08-.76,6.21-1,1.7-.22,3.8,0,4.83-1S191.43,81.14,189.77,81.22Z"/><path class="cls-19" d="M176.2,91.35a21.24,21.24,0,0,0-2.52.05,24.74,24.74,0,0,0-5.32.69c-1.54.09-2.67,1.84-.41,1.73,1.79-.08,3.52-.29,5.34-.34,1.43,0,3.11.3,4.19-.42S177.58,91.42,176.2,91.35Z"/><path class="cls-19" d="M200.39,90.36a18.11,18.11,0,0,0-2.28-.59,23.53,23.53,0,0,0-5.3-.74c-1.42-.3-3.83,1-1.76,1.45,1.67.37,3.39.63,5,1,1.32.32,2.53,1,4.08.69C201.89,91.81,201.55,90.77,200.39,90.36Z"/><path class="cls-19" d="M189.22,98.66a17.06,17.06,0,0,0-1.92-.28,21.42,21.42,0,0,0-4.31-.14c-1.19-.12-2.75,1.06-1,1.27,1.39.16,2.79.21,4.18.4,1.11.14,2.24.61,3.34.2S190.24,98.89,189.22,98.66Z"/><path class="cls-19" d="M202,94.9c-.67,0-1.3.14-1.94.23a17.53,17.53,0,0,0-4,1c-1.17.18-1.63,1.63.09,1.38,1.37-.2,2.66-.5,4.06-.68,1.11-.14,2.49,0,3.16-.66S203.08,94.86,202,94.9Z"/></g><g class="cls-18"><path class="cls-19" d="M134.36,23.94a35.11,35.11,0,0,0-3.84.07,37.27,37.27,0,0,0-8.13,1.07c-2.35.13-4.1,2.81-.65,2.65,2.74-.13,5.39-.45,8.17-.54,2.2-.07,4.75.46,6.42-.64C138.19,25.33,136.48,24,134.36,23.94Z"/><path class="cls-19" d="M152.63,20.64a33.4,33.4,0,0,0-3.48-.91,37.57,37.57,0,0,0-8.09-1.12c-2.2-.47-5.89,1.47-2.69,2.2,2.54.59,5.16,1,7.7,1.61,2,.49,3.86,1.61,6.23,1.06C154.93,22.86,154.42,21.28,152.63,20.64Z"/><path class="cls-19" d="M135.55,33.33c-1-.2-1.93-.31-2.94-.42A31.46,31.46,0,0,0,126,32.7c-1.83-.2-4.19,1.63-1.53,1.93,2.14.24,4.27.34,6.41.62,1.69.22,3.42.93,5.12.32C137.91,34.87,137.11,33.69,135.55,33.33Z"/><path class="cls-19" d="M155.09,27.59a26,26,0,0,0-3,.36,25.6,25.6,0,0,0-6.06,1.45c-1.78.28-2.49,2.49.15,2.1,2.09-.31,4.07-.76,6.2-1,1.7-.22,3.8,0,4.82-1S156.76,27.51,155.09,27.59Z"/><path class="cls-19" d="M172.19,34.77a37.92,37.92,0,0,0-3.84.08,37.61,37.61,0,0,0-8.14,1.06c-2.34.13-4.09,2.82-.64,2.65,2.75-.13,5.39-.45,8.16-.53,2.22-.06,4.76.46,6.43-.64C176,36.17,174.3,34.89,172.19,34.77Z"/><path class="cls-19" d="M190.46,31.48a28.1,28.1,0,0,0-3.48-.91,37.49,37.49,0,0,0-8.09-1.12c-2.19-.48-5.88,1.47-2.68,2.2,2.55.58,5.16,1,7.68,1.6,2,.51,3.89,1.61,6.24,1.06C192.77,33.69,192.25,32.11,190.46,31.48Z"/><path class="cls-19" d="M173.39,44.17a27.37,27.37,0,0,0-2.94-.42,30.8,30.8,0,0,0-6.58-.21c-1.83-.2-4.2,1.62-1.53,1.92,2.14.26,4.26.34,6.39.63,1.7.22,3.43.93,5.13.32C175.75,45.71,174.94,44.52,173.39,44.17Z"/><path class="cls-19" d="M192.93,38.43a26.19,26.19,0,0,0-3,.35,26.61,26.61,0,0,0-6.06,1.45c-1.77.29-2.49,2.5.15,2.12,2.09-.32,4.07-.77,6.2-1.06,1.7-.22,3.81,0,4.83-1S194.59,38.35,192.93,38.43Z"/><path class="cls-19" d="M163.53,8.61a38,38,0,0,0-3.85.07,38.14,38.14,0,0,0-8.13,1.07c-2.34.13-4.09,2.81-.64,2.65,2.74-.12,5.39-.45,8.17-.53,2.2-.07,4.75.46,6.42-.64C167.36,10,165.64,8.72,163.53,8.61Z"/><path class="cls-19" d="M198.9,10.06a30.7,30.7,0,0,0-3.49-.92A37.49,37.49,0,0,0,187.32,8c-2.19-.48-5.88,1.47-2.68,2.2,2.55.58,5.17,1,7.69,1.6,2,.5,3.88,1.62,6.24,1.06C201.2,12.28,200.69,10.69,198.9,10.06Z"/><path class="cls-19" d="M182.06,20.21a28.12,28.12,0,0,0-2.94-.43,32.2,32.2,0,0,0-6.58-.21c-1.83-.2-4.21,1.63-1.53,1.94,2.13.24,4.25.32,6.39.61,1.7.23,3.43.94,5.12.32C184.41,21.74,183.61,20.56,182.06,20.21Z"/><path class="cls-19" d="M215,14.46a25.74,25.74,0,0,0-3,.36A26.49,26.49,0,0,0,206,16.27c-1.78.28-2.49,2.49.14,2.1,2.09-.31,4.08-.76,6.21-1,1.69-.22,3.8,0,4.83-1S216.64,14.39,215,14.46Z"/><path class="cls-19" d="M201.42,24.59a23.5,23.5,0,0,0-2.52.05,24.66,24.66,0,0,0-5.32.69c-1.54.09-2.68,1.84-.42,1.74,1.79-.09,3.53-.3,5.34-.35,1.44,0,3.11.3,4.19-.42C203.92,25.5,202.79,24.66,201.42,24.59Z"/><path class="cls-19" d="M225.6,23.6a19.48,19.48,0,0,0-2.28-.59,24,24,0,0,0-5.29-.73c-1.43-.32-3.85,1-1.76,1.44,1.67.38,3.38.63,5,1,1.33.33,2.54,1.06,4.08.69C227.11,25.05,226.76,24,225.6,23.6Z"/><path class="cls-19" d="M214.44,31.91a17.24,17.24,0,0,0-1.93-.28,20.64,20.64,0,0,0-4.3-.15c-1.2-.13-2.76,1.07-1,1.27,1.38.16,2.78.22,4.17.4,1.12.15,2.24.62,3.35.21S215.45,32.13,214.44,31.91Z"/><path class="cls-19" d="M227.21,28.15a15.19,15.19,0,0,0-1.93.23,16.89,16.89,0,0,0-4,.95c-1.17.18-1.63,1.63.08,1.38,1.38-.21,2.67-.51,4.06-.69,1.12-.14,2.49,0,3.16-.65S228.3,28.1,227.21,28.15Z"/></g><g class="cls-18"><path class="cls-19" d="M196,53.77a35.34,35.34,0,0,0-3.85.07A37.52,37.52,0,0,0,184,54.91c-2.34.12-4.09,2.81-.64,2.65,2.74-.14,5.39-.46,8.16-.54,2.21-.06,4.76.46,6.43-.64C199.79,55.16,198.07,53.87,196,53.77Z"/><path class="cls-19" d="M214.23,50.47a33.4,33.4,0,0,0-3.48-.91,37.58,37.58,0,0,0-8.1-1.12c-2.18-.47-5.88,1.47-2.68,2.2,2.55.58,5.16,1,7.69,1.6,2,.51,3.88,1.62,6.24,1.06C216.53,52.69,216,51.11,214.23,50.47Z"/><path class="cls-19" d="M197.16,63.16a27.56,27.56,0,0,0-2.95-.42,31.39,31.39,0,0,0-6.57-.21c-1.84-.19-4.21,1.62-1.53,1.93,2.13.24,4.25.33,6.39.62,1.7.22,3.43.93,5.12.32C199.51,64.7,198.7,63.51,197.16,63.16Z"/><path class="cls-19" d="M216.7,57.42a28.36,28.36,0,0,0-3,.35,26.4,26.4,0,0,0-6,1.45c-1.79.29-2.5,2.5.13,2.11,2.09-.31,4.07-.77,6.21-1,1.7-.22,3.8,0,4.83-1S218.35,57.35,216.7,57.42Z"/><path class="cls-19" d="M233.79,64.61a37.85,37.85,0,0,0-3.84.06,38.71,38.71,0,0,0-8.13,1.07c-2.35.14-4.1,2.82-.65,2.66,2.74-.14,5.39-.45,8.17-.54,2.2-.06,4.76.46,6.42-.64C237.62,66,235.9,64.72,233.79,64.61Z"/><path class="cls-19" d="M252.06,61.31a32.14,32.14,0,0,0-3.48-.92,38.21,38.21,0,0,0-8.09-1.11c-2.2-.48-5.89,1.47-2.69,2.19,2.55.59,5.16,1,7.7,1.61,2,.51,3.87,1.61,6.23,1.06C254.36,63.52,253.85,61.94,252.06,61.31Z"/><path class="cls-19" d="M235,74a23.38,23.38,0,0,0-2.94-.43,31.49,31.49,0,0,0-6.58-.21c-1.84-.19-4.21,1.62-1.53,1.93,2.13.24,4.27.33,6.4.62,1.7.22,3.42.94,5.12.32C237.34,75.54,236.55,74.35,235,74Z"/><path class="cls-19" d="M254.53,68.26a25.75,25.75,0,0,0-3,.35,26.49,26.49,0,0,0-6.06,1.45c-1.79.29-2.5,2.5.13,2.11,2.1-.31,4.07-.77,6.21-1,1.69-.22,3.8,0,4.83-1S256.19,68.19,254.53,68.26Z"/><path class="cls-19" d="M225.13,38.44a55.48,55.48,0,0,0-12,1.14c-2.34.13-4.09,2.81-.64,2.65,2.74-.13,5.39-.45,8.17-.53,2.2-.07,4.75.45,6.42-.64C229,39.84,227.24,38.55,225.13,38.44Z"/><path class="cls-19" d="M260.49,39.89A28.41,28.41,0,0,0,257,39a37.75,37.75,0,0,0-8.1-1.12c-2.19-.48-5.88,1.47-2.68,2.2,2.55.58,5.16,1,7.7,1.6,2,.5,3.87,1.61,6.23,1.06C262.8,42.1,262.28,40.52,260.49,39.89Z"/><path class="cls-19" d="M243.65,50a27.36,27.36,0,0,0-2.94-.43,31.49,31.49,0,0,0-6.58-.21c-1.83-.19-4.2,1.63-1.53,1.94,2.13.23,4.27.32,6.4.61,1.7.22,3.42.94,5.13.32C246,51.57,245.21,50.39,243.65,50Z"/><path class="cls-19" d="M276.58,44.29a26.47,26.47,0,0,0-3,.36,26.13,26.13,0,0,0-6.05,1.45c-1.79.28-2.5,2.49.14,2.11,2.09-.32,4.07-.77,6.2-1,1.7-.23,3.8,0,4.84-1S278.24,44.22,276.58,44.29Z"/><path class="cls-19" d="M263,54.42a23.6,23.6,0,0,0-2.52,0,24.82,24.82,0,0,0-5.32.69c-1.53.09-2.67,1.84-.41,1.74,1.8-.08,3.52-.3,5.34-.35,1.44,0,3.1.3,4.2-.42S264.39,54.49,263,54.42Z"/><path class="cls-19" d="M287.2,53.43a22.34,22.34,0,0,0-2.28-.6,24.71,24.71,0,0,0-5.28-.73c-1.44-.3-3.86,1-1.77,1.45,1.68.38,3.38.62,5,1,1.32.33,2.53,1.06,4.08.7C288.7,54.88,288.37,53.85,287.2,53.43Z"/><path class="cls-19" d="M276,61.73a14.55,14.55,0,0,0-1.92-.27,20.54,20.54,0,0,0-4.29-.15c-1.21-.12-2.76,1.07-1,1.27,1.4.16,2.8.22,4.2.4,1.11.15,2.23.62,3.34.21S277.06,62,276,61.73Z"/><path class="cls-19" d="M288.81,58a17.43,17.43,0,0,0-1.94.23,17.66,17.66,0,0,0-4,.94c-1.16.2-1.63,1.63.1,1.38,1.37-.2,2.65-.5,4.05-.67,1.12-.15,2.49,0,3.16-.66S289.9,57.93,288.81,58Z"/></g><g class="cls-18"><path class="cls-19" d="M251.09,25.11c-1.16-.05-2.29,0-3.45.07a34.57,34.57,0,0,0-7.32,1c-2.11.12-3.67,2.53-.58,2.39,2.48-.12,4.86-.41,7.35-.49,2-.06,4.28.42,5.78-.57C254.54,26.37,253,25.21,251.09,25.11Z"/><path class="cls-19" d="M267.53,22.15a29.21,29.21,0,0,0-3.13-.82,34,34,0,0,0-7.28-1c-2-.43-5.29,1.32-2.41,2,2.28.52,4.64.87,6.92,1.43,1.81.46,3.48,1.46,5.6,1C269.6,24.15,269.14,22.73,267.53,22.15Z"/><path class="cls-19" d="M252.18,33.57c-.87-.19-1.75-.28-2.65-.39a28.61,28.61,0,0,0-5.92-.18c-1.65-.17-3.78,1.46-1.37,1.74,1.91.21,3.83.29,5.75.55,1.53.2,3.08.84,4.6.28C254.29,35,253.57,33.88,252.18,33.57Z"/><path class="cls-19" d="M269.75,28.41a22.93,22.93,0,0,0-2.67.31,24.2,24.2,0,0,0-5.44,1.3c-1.61.26-2.24,2.25.12,1.9,1.89-.28,3.66-.68,5.58-.94,1.53-.19,3.42,0,4.35-.88S271.24,28.34,269.75,28.41Z"/><path class="cls-19" d="M285.13,34.86a30.74,30.74,0,0,0-3.46.07,33.32,33.32,0,0,0-7.32,1c-2.1.12-3.68,2.53-.58,2.38,2.48-.11,4.85-.41,7.35-.48,2,0,4.28.42,5.78-.58C288.57,36.12,287,35,285.13,34.86Z"/><path class="cls-19" d="M301.56,31.91a25.63,25.63,0,0,0-3.13-.83,33.37,33.37,0,0,0-7.28-1c-2-.44-5.29,1.32-2.42,2,2.29.52,4.65.86,6.93,1.44,1.81.44,3.48,1.45,5.61,1C303.63,33.89,303.16,32.47,301.56,31.91Z"/><path class="cls-19" d="M286.2,43.31c-.85-.18-1.74-.28-2.64-.38a27.92,27.92,0,0,0-5.92-.19c-1.65-.17-3.78,1.46-1.37,1.75,1.91.22,3.83.28,5.75.55,1.53.2,3.08.85,4.6.28C288.32,44.7,287.6,43.63,286.2,43.31Z"/><path class="cls-19" d="M303.77,38.15a25.43,25.43,0,0,0-2.66.32,24.07,24.07,0,0,0-5.44,1.3c-1.61.26-2.25,2.24.11,1.9,1.89-.29,3.67-.69,5.59-.93,1.52-.21,3.42,0,4.34-.9S305.27,38.08,303.77,38.15Z"/><path class="cls-19" d="M277.33,11.34a33.15,33.15,0,0,0-3.45.06,33.93,33.93,0,0,0-7.32.95c-2.11.12-3.68,2.54-.57,2.39,2.46-.12,4.84-.41,7.33-.47,2-.07,4.29.4,5.79-.59C280.78,12.59,279.23,11.44,277.33,11.34Z"/><path class="cls-19" d="M309.14,12.63a31.06,31.06,0,0,0-3.13-.82,33.89,33.89,0,0,0-7.27-1c-2-.43-5.29,1.32-2.42,2,2.29.52,4.65.87,6.92,1.44,1.81.44,3.49,1.45,5.61.95C311.21,14.62,310.75,13.21,309.14,12.63Z"/><path class="cls-19" d="M294,21.76a24.66,24.66,0,0,0-2.64-.38,28.59,28.59,0,0,0-5.92-.19c-1.64-.17-3.78,1.46-1.37,1.74,1.91.21,3.83.29,5.76.55,1.52.2,3.07.85,4.6.29C296.11,23.14,295.4,22.08,294,21.76Z"/><path class="cls-19" d="M323.61,16.6a21.17,21.17,0,0,0-2.67.31,23.68,23.68,0,0,0-5.44,1.31c-1.6.25-2.25,2.24.12,1.89,1.89-.28,3.66-.69,5.59-.93,1.52-.2,3.42,0,4.33-.9S325.1,16.53,323.61,16.6Z"/><path class="cls-19" d="M311.41,25.71a21.46,21.46,0,0,0-2.27,0,22.58,22.58,0,0,0-4.79.63C303,26.45,302,28,304,27.93c1.62-.08,3.17-.26,4.81-.31,1.29,0,2.79.27,3.76-.38S312.65,25.77,311.41,25.71Z"/><path class="cls-19" d="M333.16,24.82a16.64,16.64,0,0,0-2.05-.54,21.76,21.76,0,0,0-4.75-.65c-1.29-.29-3.46.86-1.59,1.28,1.5.34,3,.58,4.52.95,1.2.29,2.29.95,3.68.62S334.21,25.19,333.16,24.82Z"/><path class="cls-19" d="M323.12,32.28a15.84,15.84,0,0,0-1.74-.25,18.43,18.43,0,0,0-3.86-.12c-1.07-.12-2.47.95-.9,1.13,1.25.14,2.51.2,3.76.36,1,.14,2,.55,3,.19S324,32.48,323.12,32.28Z"/><path class="cls-19" d="M334.61,28.91a14,14,0,0,0-1.74.2,15.34,15.34,0,0,0-3.56.85c-1.05.17-1.47,1.47.08,1.24,1.23-.18,2.39-.45,3.64-.61,1-.13,2.24,0,2.85-.58S335.58,28.86,334.61,28.91Z"/></g><g class="cls-18"><path class="cls-19" d="M299.35,68.25a30.61,30.61,0,0,0-3.45.07,33.32,33.32,0,0,0-7.32,1c-2.11.11-3.68,2.53-.58,2.39,2.47-.12,4.85-.4,7.35-.48,2-.06,4.27.41,5.78-.58C302.8,69.5,301.25,68.34,299.35,68.25Z"/><path class="cls-19" d="M315.79,65.28a29.4,29.4,0,0,0-3.14-.82,33.2,33.2,0,0,0-7.28-1c-2-.43-5.27,1.32-2.41,2,2.3.52,4.65.87,6.92,1.44,1.81.45,3.49,1.45,5.61,1C317.86,67.28,317.39,65.86,315.79,65.28Z"/><path class="cls-19" d="M300.43,76.7a22.54,22.54,0,0,0-2.65-.38,29.2,29.2,0,0,0-5.91-.19c-1.65-.18-3.79,1.46-1.38,1.74,1.91.22,3.84.3,5.75.55,1.53.2,3.09.85,4.61.29C302.55,78.08,301.83,77,300.43,76.7Z"/><path class="cls-19" d="M318,71.54a26.28,26.28,0,0,0-2.67.31,23.8,23.8,0,0,0-5.44,1.31c-1.61.26-2.25,2.24.13,1.89,1.88-.28,3.66-.69,5.58-.93,1.53-.2,3.41,0,4.34-.89S319.49,71.47,318,71.54Z"/><path class="cls-19" d="M333.39,78a33.24,33.24,0,0,0-3.46.06,33.93,33.93,0,0,0-7.32,1c-2.11.12-3.68,2.53-.58,2.38,2.47-.11,4.85-.39,7.34-.47,2-.07,4.29.41,5.79-.58C336.83,79.25,335.27,78.09,333.39,78Z"/><path class="cls-19" d="M349.82,75a28.13,28.13,0,0,0-3.13-.82,34.08,34.08,0,0,0-7.28-1c-2-.42-5.3,1.33-2.42,2,2.29.53,4.64.87,6.92,1.45,1.82.45,3.49,1.45,5.61,1C351.88,77,351.42,75.61,349.82,75Z"/><path class="cls-19" d="M334.46,86.45c-.85-.18-1.75-.28-2.65-.38a27.18,27.18,0,0,0-5.91-.18c-1.65-.18-3.79,1.45-1.38,1.73,1.91.21,3.84.3,5.75.55,1.53.21,3.08.85,4.61.29C336.58,87.83,335.86,86.77,334.46,86.45Z"/><path class="cls-19" d="M352,81.28c-.92,0-1.78.19-2.67.32a23.8,23.8,0,0,0-5.44,1.31c-1.61.25-2.25,2.24.13,1.9,1.88-.28,3.66-.7,5.58-1,1.53-.19,3.41,0,4.34-.88S353.52,81.22,352,81.28Z"/><path class="cls-19" d="M325.59,54.47a30.52,30.52,0,0,0-3.45.06,33.93,33.93,0,0,0-7.32,1c-2.11.12-3.68,2.53-.58,2.38,2.47-.11,4.85-.4,7.34-.47,2-.06,4.29.4,5.78-.58C329,55.72,327.49,54.56,325.59,54.47Z"/><path class="cls-19" d="M357.4,55.77a28.6,28.6,0,0,0-3.13-.83,33.9,33.9,0,0,0-7.28-1c-2-.43-5.29,1.32-2.41,2,2.29.53,4.64.87,6.92,1.44,1.82.45,3.48,1.46,5.6,1C359.47,57.76,359,56.34,357.4,55.77Z"/><path class="cls-19" d="M342.25,64.9a22.36,22.36,0,0,0-2.64-.39,28.61,28.61,0,0,0-5.92-.19c-1.65-.17-3.79,1.47-1.37,1.74,1.91.22,3.84.3,5.74.55,1.54.21,3.09.85,4.62.29C344.37,66.28,343.65,65.21,342.25,64.9Z"/><path class="cls-19" d="M371.86,59.73c-.91.05-1.78.18-2.66.31a23,23,0,0,0-5.44,1.32c-1.62.25-2.25,2.24.12,1.89,1.88-.28,3.66-.69,5.58-.94,1.53-.2,3.42,0,4.34-.89S373.36,59.66,371.86,59.73Z"/><path class="cls-19" d="M359.67,68.83c-.76,0-1.51,0-2.27,0a23,23,0,0,0-4.78.63c-1.38.08-2.41,1.66-.38,1.56,1.61-.07,3.17-.26,4.8-.31,1.3,0,2.8.27,3.78-.38S360.91,68.9,359.67,68.83Z"/><path class="cls-19" d="M381.41,68a18.28,18.28,0,0,0-2-.54,22.57,22.57,0,0,0-4.76-.66c-1.3-.27-3.47.87-1.59,1.3,1.5.34,3,.57,4.52.94,1.19.3,2.29,1,3.68.62S382.47,68.33,381.41,68Z"/><path class="cls-19" d="M371.38,75.41a14.12,14.12,0,0,0-1.73-.24,18,18,0,0,0-3.88-.13c-1.07-.11-2.47.95-.89,1.13,1.25.15,2.51.2,3.76.37,1,.13,2,.55,3,.19S372.29,75.62,371.38,75.41Z"/><path class="cls-19" d="M382.87,72a16.73,16.73,0,0,0-1.75.21,15,15,0,0,0-3.56.86c-1,.16-1.46,1.46.08,1.24,1.23-.19,2.4-.46,3.66-.62,1-.12,2.23,0,2.84-.58S383.84,72,382.87,72Z"/></g><g class="cls-18"><path class="cls-19" d="M238,97.71a30.64,30.64,0,0,0-3.46.07,33.24,33.24,0,0,0-7.32,1c-2.11.12-3.68,2.54-.58,2.39,2.47-.12,4.85-.41,7.34-.48,2-.06,4.28.41,5.78-.58C241.45,99,239.9,97.8,238,97.71Z"/><path class="cls-19" d="M254.43,94.74a26.51,26.51,0,0,0-3.13-.81,34,34,0,0,0-7.27-1c-2-.42-5.29,1.32-2.42,2,2.29.52,4.64.87,6.92,1.44,1.82.45,3.48,1.45,5.61,1C256.51,96.74,256,95.32,254.43,94.74Z"/><path class="cls-19" d="M239.08,106.16a25.23,25.23,0,0,0-2.65-.38,28.57,28.57,0,0,0-5.92-.19c-1.64-.18-3.78,1.46-1.37,1.74,1.91.22,3.83.29,5.75.55,1.53.2,3.08.85,4.61.29C241.19,107.54,240.47,106.47,239.08,106.16Z"/><path class="cls-19" d="M256.65,101a34.34,34.34,0,0,0-8.11,1.62c-1.61.25-2.24,2.24.12,1.9,1.89-.28,3.67-.69,5.59-1,1.53-.19,3.41,0,4.34-.89S258.14,100.93,256.65,101Z"/><path class="cls-19" d="M272,107.46a28.59,28.59,0,0,0-3.46.07,32.72,32.72,0,0,0-7.31,1c-2.11.12-3.68,2.53-.58,2.38,2.47-.11,4.85-.4,7.34-.47,2-.07,4.28.41,5.78-.58C275.47,108.71,273.92,107.56,272,107.46Z"/><path class="cls-19" d="M288.46,104.49a29.84,29.84,0,0,0-3.13-.82,33.9,33.9,0,0,0-7.28-1c-2-.43-5.29,1.32-2.41,2,2.29.52,4.64.87,6.92,1.44,1.82.45,3.48,1.45,5.61,1C290.53,106.48,290.08,105.07,288.46,104.49Z"/><path class="cls-19" d="M273.11,115.91c-.86-.19-1.75-.28-2.65-.39a28.59,28.59,0,0,0-5.92-.18c-1.65-.17-3.78,1.46-1.37,1.73,1.91.22,3.83.3,5.75.56,1.53.2,3.08.84,4.61.28C275.22,117.29,274.51,116.21,273.11,115.91Z"/><path class="cls-19" d="M290.68,110.75a21.39,21.39,0,0,0-2.67.31,23.93,23.93,0,0,0-5.44,1.31c-1.61.25-2.25,2.24.12,1.89,1.88-.28,3.67-.69,5.59-.93,1.52-.2,3.41,0,4.34-.89S292.17,110.68,290.68,110.75Z"/><path class="cls-19" d="M264.24,83.93a30.73,30.73,0,0,0-3.46.06,34.74,34.74,0,0,0-7.32,1c-2.11.11-3.68,2.54-.58,2.39,2.48-.12,4.85-.41,7.35-.48,2-.06,4.28.41,5.78-.57C267.68,85.18,266.14,84,264.24,83.93Z"/><path class="cls-19" d="M296.05,85.22a32,32,0,0,0-3.14-.82,33.81,33.81,0,0,0-7.27-1c-2-.42-5.29,1.32-2.42,2,2.29.52,4.65.87,6.93,1.44,1.81.46,3.48,1.45,5.6,1C298.12,87.22,297.65,85.8,296.05,85.22Z"/><path class="cls-19" d="M280.9,94.35a25.42,25.42,0,0,0-2.64-.38,28.61,28.61,0,0,0-5.92-.18c-1.65-.18-3.79,1.45-1.38,1.74,1.92.21,3.84.29,5.76.54,1.52.21,3.08.86,4.6.29C283,95.73,282.3,94.67,280.9,94.35Z"/><path class="cls-19" d="M310.51,89.19c-.92,0-1.78.18-2.67.31a23,23,0,0,0-5.43,1.32c-1.61.25-2.26,2.24.11,1.89,1.89-.28,3.67-.69,5.59-.95,1.53-.19,3.42,0,4.34-.88S312,89.12,310.51,89.19Z"/><path class="cls-19" d="M298.31,98.3c-.76,0-1.5,0-2.26,0a23.76,23.76,0,0,0-4.79.63c-1.37.08-2.4,1.66-.37,1.56,1.61-.07,3.17-.26,4.8-.3,1.3,0,2.8.26,3.77-.38S299.54,98.36,298.31,98.3Z"/><path class="cls-19" d="M320.07,97.41a18.64,18.64,0,0,0-2.05-.54,21.85,21.85,0,0,0-4.76-.65c-1.29-.28-3.46.87-1.58,1.29,1.5.34,3,.57,4.53.94,1.18.29,2.27,1,3.67.62S321.11,97.78,320.07,97.41Z"/><path class="cls-19" d="M310,104.87a16.2,16.2,0,0,0-1.74-.24,17.28,17.28,0,0,0-3.87-.12c-1.07-.12-2.47.95-.89,1.13,1.25.14,2.49.19,3.75.36,1,.13,2,.55,3,.18S310.94,105.08,310,104.87Z"/><path class="cls-19" d="M321.51,101.5a16.23,16.23,0,0,0-1.74.2,16,16,0,0,0-3.56.86c-1,.16-1.46,1.46.08,1.23,1.23-.18,2.4-.45,3.65-.61,1-.13,2.25,0,2.84-.58S322.49,101.45,321.51,101.5Z"/></g><path class="cls-14" d="M378,58.77c-8.82-1.54-23.87-2-32.84,1.3-3.76,1.06-6.35,2.66-5,4.9,3.47,5.82,25.72,5.3,33.46,3.44C380.62,66.69,390.83,61,378,58.77Z"/><path class="cls-20" d="M106,52.45C95.5,50.62,77.54,50.1,66.84,54c-4.47,1.27-7.56,3.17-6,5.84,4.14,6.94,30.67,6.32,39.89,4.09C109.18,61.9,121.36,55.11,106,52.45Z"/><path class="cls-21" d="M107.28,53.62a48.24,48.24,0,0,0-9-1.45A99.44,99.44,0,0,0,85.49,52c-6.84.46-15.38,1.18-21.2,3.69-7.53,4.08,1.87,7.57,7.83,8.35,9.39,1.2,22,1.46,30.89-1.31C108.89,61.41,116.35,55.92,107.28,53.62Z"/><path class="cls-20" d="M68.73,56.53c-.79.38-1.48.87-.92,1.46a1.25,1.25,0,0,0,.84.28,6,6,0,0,0,4.07-.85C74,56.07,70.05,55.89,68.73,56.53Z"/><path class="cls-20" d="M80,55.62c-.44.07-.77.23-.68.57.21.88,2.15.19,2.49-.24C82.4,55.23,80.71,55.19,80,55.62Z"/><path class="cls-20" d="M76.77,58.55c-.75.51-1.44,1.53.09,1.88a3.85,3.85,0,0,0,1.18,0,9.56,9.56,0,0,0,2.1.15c1.56-.11,3-.68,3.21-1.62C83.73,57.21,78,57.7,76.77,58.55Z"/><path class="cls-20" d="M95.2,55.11h-.31c-1.29,0-1.59,1.23-.21,1L95,56C95.54,55.88,96.15,55.09,95.2,55.11Z"/><path class="cls-20" d="M99.28,58.92a11.79,11.79,0,0,0-5.49-.41c-1.49.33-2.68,1.27-1.78,2.05.92,1.37,5.2,1.19,7,.57C100.29,60.7,100.79,59.36,99.28,58.92Z"/><path class="cls-20" d="M104.88,56.34c-1.44,0-2.84,1.59-1,1.59C105.29,57.93,106.69,56.34,104.88,56.34Z"/><path class="cls-20" d="M86.09,63l.06,0H86a.94.94,0,0,0-.63.21l-.08.08c-.21.21,0,.43.44.33l.15,0C86.63,63.45,86.47,63.08,86.09,63Z"/><path class="cls-20" d="M89.34,52.42l-.2-.13a3.12,3.12,0,0,0-2.38.09,2.09,2.09,0,0,1-.3.11c-1,.38-1.7,1.48-.51,1.83a3.9,3.9,0,0,0,3.4-.62C89.73,53.26,90,52.81,89.34,52.42Z"/><path class="cls-20" d="M375.66,57.62c-8.73-1.52-23.63-1.94-32.51,1.29-3.71,1.05-6.28,2.63-4.95,4.85,3.43,5.76,25.45,5.24,33.11,3.39C378.3,65.46,388.4,59.84,375.66,57.62Z"/><path class="cls-21" d="M376.71,58.6a41.53,41.53,0,0,0-7.45-1.22,83.72,83.72,0,0,0-10.63-.12c-5.69.37-12.77,1-17.59,3.06-6.26,3.4,1.54,6.29,6.48,6.93,7.81,1,18.27,1.21,25.66-1.09C378.05,65.05,384.24,60.51,376.71,58.6Z"/><path class="cls-20" d="M344.72,61c-.66.32-1.23.74-.76,1.23a1.07,1.07,0,0,0,.69.23,5.13,5.13,0,0,0,3.38-.7C349.05,60.62,345.81,60.48,344.72,61Z"/><path class="cls-20" d="M354.11,60.25c-.37.06-.64.2-.58.48.18.73,1.8.15,2.07-.2C356.06,59.93,354.66,59.9,354.11,60.25Z"/><path class="cls-20" d="M351.39,62.69c-.63.42-1.19,1.27.08,1.56a3.13,3.13,0,0,0,1,0,6.94,6.94,0,0,0,1.75.12c1.3-.09,2.49-.56,2.67-1.33C357.17,61.57,352.43,62,351.39,62.69Z"/><path class="cls-20" d="M366.69,59.83h-.26c-1.07,0-1.32,1-.17.78l.27-.06C367,60.47,367.47,59.82,366.69,59.83Z"/><path class="cls-20" d="M370.06,63a9.93,9.93,0,0,0-4.55-.34c-1.24.28-2.23,1.07-1.47,1.71.77,1.13,4.32,1,5.81.47C370.91,64.46,371.33,63.37,370.06,63Z"/><path class="cls-20" d="M374.72,60.85c-1.19,0-2.35,1.32-.86,1.32C375.06,62.17,376.22,60.85,374.72,60.85Z"/><path class="cls-20" d="M359.13,66.42s0,0,.05,0h-.11a.7.7,0,0,0-.51.18l-.07.06c-.18.17,0,.35.36.27l.11,0C359.57,66.76,359.44,66.45,359.13,66.42Z"/><path class="cls-20" d="M361.82,57.59l-.17-.1a2.52,2.52,0,0,0-2,.08l-.25.08c-.83.33-1.42,1.25-.43,1.52a3.16,3.16,0,0,0,2.82-.52C362.16,58.29,362.33,57.93,361.82,57.59Z"/><path class="cls-20" d="M288.38,81.24c-8.73-1.52-23.63-1.95-32.51,1.28-3.71,1.06-6.28,2.64-5,4.86,3.43,5.76,25.45,5.25,33.11,3.39C291,89.08,301.13,83.46,288.38,81.24Z"/><path class="cls-21" d="M289.44,82.22A39.93,39.93,0,0,0,282,81a80,80,0,0,0-10.62-.13c-5.69.37-12.78,1-17.61,3.06-6.24,3.4,1.55,6.29,6.5,6.93,7.8,1,18.26,1.22,25.64-1.09C290.77,88.68,297,84.13,289.44,82.22Z"/><path class="cls-20" d="M257.44,84.62c-.66.33-1.23.74-.76,1.23a1,1,0,0,0,.68.22,5.06,5.06,0,0,0,3.39-.7C261.77,84.25,258.54,84.09,257.44,84.62Z"/><path class="cls-20" d="M266.83,83.87c-.37.06-.64.2-.58.48.19.73,1.8.15,2.07-.2C268.78,83.55,267.38,83.51,266.83,83.87Z"/><path class="cls-20" d="M264.11,86.3c-.63.44-1.19,1.27.07,1.57a3.55,3.55,0,0,0,1,0,7,7,0,0,0,1.75.12c1.3-.09,2.49-.55,2.66-1.34C269.89,85.2,265.15,85.6,264.11,86.3Z"/><path class="cls-20" d="M279.41,83.45h-.26c-1.07,0-1.32,1-.16.79l.26-.06C279.69,84.09,280.2,83.44,279.41,83.45Z"/><path class="cls-20" d="M282.79,86.61a10,10,0,0,0-4.56-.34c-1.24.27-2.23,1.07-1.47,1.71.76,1.14,4.32,1,5.82.47C283.63,88.09,284.05,87,282.79,86.61Z"/><path class="cls-20" d="M287.45,84.46c-1.2,0-2.36,1.33-.86,1.33C287.79,85.79,288.94,84.46,287.45,84.46Z"/><path class="cls-20" d="M271.85,90l0,0h-.11a.78.78,0,0,0-.52.18l0,.06c-.18.17,0,.35.35.27l.12,0C272.29,90.38,272.17,90.07,271.85,90Z"/><path class="cls-20" d="M274.54,81.21l-.16-.1a2.55,2.55,0,0,0-2,.08,1.84,1.84,0,0,0-.25.09c-.83.32-1.42,1.23-.42,1.52a3.21,3.21,0,0,0,2.81-.52C274.88,81.92,275.05,81.54,274.54,81.21Z"/><path class="cls-20" d="M302.88,29.09c-8.74-1.52-23.64-1.94-32.51,1.29-3.73,1.05-6.29,2.63-5,4.85,3.44,5.76,25.45,5.24,33.11,3.39C305.51,36.93,315.62,31.31,302.88,29.09Z"/><path class="cls-21" d="M303.93,30.07a40.63,40.63,0,0,0-7.46-1.22,83.56,83.56,0,0,0-10.62-.12c-5.68.37-12.78,1-17.61,3.06-6.24,3.4,1.56,6.29,6.5,6.92,7.8,1,18.27,1.22,25.64-1.08C305.26,36.53,311.46,32,303.93,30.07Z"/><path class="cls-20" d="M271.94,32.48c-.67.31-1.24.74-.77,1.22a1.1,1.1,0,0,0,.69.23,5.1,5.1,0,0,0,3.38-.7C276.27,32.1,273,32,271.94,32.48Z"/><path class="cls-20" d="M281.31,31.73c-.35.05-.63.19-.56.48.18.71,1.79.14,2.07-.21C283.27,31.4,281.87,31.37,281.31,31.73Z"/><path class="cls-20" d="M278.6,34.16c-.63.42-1.19,1.27.08,1.56a3.13,3.13,0,0,0,1,0,7.41,7.41,0,0,0,1.75.11c1.3-.09,2.49-.55,2.67-1.33C284.39,33.05,279.64,33.45,278.6,34.16Z"/><path class="cls-20" d="M293.91,31.3h-.27c-1.07,0-1.32,1-.16.78a2,2,0,0,0,.26-.06C294.19,31.94,294.69,31.29,293.91,31.3Z"/><path class="cls-20" d="M297.29,34.46a10,10,0,0,0-4.57-.34c-1.23.28-2.22,1.06-1.47,1.71.76,1.13,4.33,1,5.82.47C298.13,35.93,298.55,34.84,297.29,34.46Z"/><path class="cls-20" d="M301.94,32.31c-1.2,0-2.35,1.33-.86,1.33C302.28,33.64,303.44,32.31,301.94,32.31Z"/><path class="cls-20" d="M286.35,37.89l0,0h-.11a.78.78,0,0,0-.51.17.46.46,0,0,1-.07.07c-.17.18,0,.35.37.27l.11,0C286.78,38.23,286.66,37.92,286.35,37.89Z"/><path class="cls-20" d="M289,29.06l-.16-.1a2.59,2.59,0,0,0-2,.07l-.25.09c-.83.33-1.41,1.24-.42,1.52a3.17,3.17,0,0,0,2.81-.51C289.37,29.76,289.55,29.4,289,29.06Z"/><path class="cls-20" d="M188.6,98.29c-8.72-1.52-23.63-2-32.51,1.28-3.71,1.06-6.27,2.64-5,4.85,3.44,5.77,25.45,5.25,33.11,3.41C191.24,106.13,201.35,100.5,188.6,98.29Z"/><path class="cls-21" d="M189.65,99.26a41.38,41.38,0,0,0-7.45-1.21,83.7,83.7,0,0,0-10.63-.12c-5.68.38-12.77,1-17.59,3.06-6.25,3.39,1.55,6.28,6.49,6.92,7.8,1,18.27,1.22,25.64-1.07C191,105.72,197.19,101.17,189.65,99.26Z"/><path class="cls-20" d="M157.66,101.68c-.66.31-1.23.73-.76,1.22a1.16,1.16,0,0,0,.69.23,5.1,5.1,0,0,0,3.38-.71C162,101.3,158.75,101.15,157.66,101.68Z"/><path class="cls-20" d="M167,100.92c-.35.06-.64.2-.56.48.18.72,1.79.15,2.06-.21C169,100.6,167.6,100.57,167,100.92Z"/><path class="cls-20" d="M164.33,103.36c-.62.42-1.2,1.27.07,1.56a3,3,0,0,0,1,0,7.36,7.36,0,0,0,1.74.12c1.29-.09,2.49-.55,2.66-1.34C170.11,102.25,165.37,102.64,164.33,103.36Z"/><path class="cls-20" d="M179.63,100.5h-.26c-1.07,0-1.32,1-.17.79l.27-.06C179.91,101.15,180.42,100.48,179.63,100.5Z"/><path class="cls-20" d="M183,103.66a9.76,9.76,0,0,0-4.57-.34c-1.23.27-2.23,1.06-1.46,1.71.76,1.13,4.31,1,5.81.47C183.86,105.13,184.27,104,183,103.66Z"/><path class="cls-20" d="M187.67,101.52c-1.2,0-2.35,1.33-.86,1.33C188,102.85,189.17,101.52,187.67,101.52Z"/><path class="cls-20" d="M172.07,107.08l0,0H172a.74.74,0,0,0-.52.18l-.07.07c-.18.16,0,.34.36.26l.12,0C172.52,107.43,172.39,107.12,172.07,107.08Z"/><path class="cls-20" d="M174.76,98.26l-.16-.1a2.55,2.55,0,0,0-2,.08l-.25.09c-.83.31-1.42,1.23-.43,1.52a3.26,3.26,0,0,0,2.83-.53C175.1,99,175.27,98.59,174.76,98.26Z"/><path class="cls-20" d="M249.68,12.35c-8.88-1.55-24-2-33.06,1.31-3.76,1.07-6.37,2.67-5,4.93,3.49,5.86,25.88,5.33,33.66,3.45C252.35,20.32,262.63,14.6,249.68,12.35Z"/><path class="cls-21" d="M250.75,13.34a42,42,0,0,0-7.57-1.24A86.6,86.6,0,0,0,232.37,12c-5.79.38-13,1-17.9,3.11-6.36,3.45,1.58,6.39,6.61,7,7.92,1,18.57,1.24,26.06-1.09C252.1,19.9,258.41,15.28,250.75,13.34Z"/><path class="cls-20" d="M218.22,15.79c-.67.32-1.25.74-.77,1.24a1,1,0,0,0,.7.23,5.24,5.24,0,0,0,3.44-.71C222.63,15.41,219.34,15.25,218.22,15.79Z"/><path class="cls-20" d="M227.76,15c-.37.06-.65.21-.57.49.17.73,1.81.15,2.09-.21C229.75,14.7,228.33,14.66,227.76,15Z"/><path class="cls-20" d="M225,17.5c-.63.43-1.22,1.29.07,1.58a3.31,3.31,0,0,0,1,0,7.67,7.67,0,0,0,1.77.12c1.33-.1,2.54-.56,2.72-1.36C230.88,16.37,226.06,16.77,225,17.5Z"/><path class="cls-20" d="M240.55,14.6h-.26c-1.08,0-1.34,1-.17.79l.27-.05C240.85,15.24,241.35,14.58,240.55,14.6Z"/><path class="cls-20" d="M244,17.8a10.08,10.08,0,0,0-4.65-.34c-1.25.28-2.26,1.07-1.49,1.74.77,1.15,4.4,1,5.91.47C244.85,19.31,245.28,18.19,244,17.8Z"/><path class="cls-20" d="M248.73,15.62c-1.21,0-2.4,1.36-.88,1.36C249.07,17,250.24,15.62,248.73,15.62Z"/><path class="cls-20" d="M232.87,21.29l0,0h-.1a.7.7,0,0,0-.52.17l-.07.07c-.18.17,0,.36.37.27l.12,0C233.32,21.64,233.19,21.32,232.87,21.29Z"/><path class="cls-20" d="M235.6,12.32l-.16-.11a2.67,2.67,0,0,0-2,.08l-.26.1c-.84.32-1.43,1.25-.43,1.54a3.31,3.31,0,0,0,2.87-.53C235.94,13,236.12,12.66,235.6,12.32Z"/><path class="cls-22" d="M156.43,25.39a5.16,5.16,0,0,0-.8-2.58.56.56,0,0,1-.12-.26c-2.33-1.18-9.56-2-10.61-2.09-4.35-.32-8.69.43-13,.66-2.11.1-3.49,1.66-4.72,2.61l-.17.14a5.2,5.2,0,0,1-.47.3s0,0,0,0l-.1.1a.53.53,0,0,1,0,.3,2.29,2.29,0,0,0,0,1.95c.63.78,2.07.62,4.91.88,5.73.53,12.87,1.11,17,3.73.19.13.49,0,.65-.11l.08,0a35.12,35.12,0,0,0,4.2-2.64,18.29,18.29,0,0,0,3.22-2.81A.71.71,0,0,0,156.43,25.39Z"/><path class="cls-23" d="M140.34,28a46.77,46.77,0,0,0-7.57-1c-.9,0-5-.07-5.52-.47a3.81,3.81,0,0,1-.86-1.23c3.79-.78,9.16-.31,12.91.17,1.3.18,2.57.44,3.8.73a16.31,16.31,0,0,1,5,1.83,13.2,13.2,0,0,0,.18,2.27C146.54,29.11,142.75,28.44,140.34,28Z"/><path class="cls-24" d="M153.43,27.31c-.71.59-1.51,1.14-2.18,1.75a17.14,17.14,0,0,1-1.93,1.27,4.7,4.7,0,0,0-.21-2.37c2-.45,4.79-2.52,6.23-3.68,0,.13,0,.28,0,.42C155.5,25.83,154.47,26.44,153.43,27.31Z"/><path class="cls-25" d="M155.37,23.48c-.13.4-1.09.81-1.93,1.43-.37.27-3.27,2.25-4.53,2.51a.46.46,0,0,0-.5,0c-3.48-2.12-9.57-2.63-14.41-3-2.21-.18-4.41.13-6.61.13a.43.43,0,0,0-.23,0,17.49,17.49,0,0,1,1.9-1.68,8.36,8.36,0,0,1,4.09-1.35c4.54-.23,8.74-.74,13.36-.41a35,35,0,0,1,5.57.93c2.52.57,3.32,1,3.29,1.36Z"/><path class="cls-22" d="M172.25,53.34a5.21,5.21,0,0,0-.79-2.56.55.55,0,0,1-.12-.26c-2.33-1.18-9.58-2-10.62-2.1-4.36-.31-8.7.43-13,.66-2.1.11-3.49,1.66-4.72,2.62l-.16.12a5.71,5.71,0,0,1-.48.32s0,0,0,0l-.11.11a.49.49,0,0,1,0,.29,2.32,2.32,0,0,0,0,2c.62.77,2.07.62,4.91.88,5.73.53,12.86,1.11,17,3.73a.62.62,0,0,0,.65-.12h.08a33.2,33.2,0,0,0,4.2-2.65,18.25,18.25,0,0,0,3.22-2.8A.93.93,0,0,0,172.25,53.34Z"/><path class="cls-23" d="M156.15,55.92a46.5,46.5,0,0,0-7.56-1c-.9,0-5-.08-5.51-.48a3.73,3.73,0,0,1-.87-1.23c3.79-.77,9.16-.3,12.91.18a35.45,35.45,0,0,1,3.8.73,16.13,16.13,0,0,1,5,1.83,12.24,12.24,0,0,0,.18,2.27C162.35,57.08,158.57,56.4,156.15,55.92Z"/><path class="cls-24" d="M169.25,55.28c-.71.59-1.52,1.14-2.17,1.74a17.1,17.1,0,0,1-1.94,1.27,4.93,4.93,0,0,0-.2-2.37c2-.44,4.79-2.51,6.23-3.68,0,.14,0,.28,0,.42C171.32,53.8,170.29,54.4,169.25,55.28Z"/><path class="cls-25" d="M171.19,51.44c-.12.41-1.1.82-1.94,1.43a19.66,19.66,0,0,1-4.52,2.51.49.49,0,0,0-.51,0c-3.47-2.11-9.56-2.63-14.4-3-2.21-.17-4.4.14-6.61.14a.6.6,0,0,0-.23,0,15.91,15.91,0,0,1,1.91-1.68A8.35,8.35,0,0,1,149,49.5c4.56-.23,8.75-.75,13.38-.41a34.14,34.14,0,0,1,5.56.93c2.51.56,3.32,1,3.29,1.34Z"/><path class="cls-22" d="M183.42,71.59a13,13,0,0,0,2.4,2.08,23.91,23.91,0,0,0,3.13,2H189a.49.49,0,0,0,.49.1c3.07-2,8.39-2.39,12.66-2.79,2.12-.19,3.2-.08,3.66-.65a1.7,1.7,0,0,0,0-1.46.37.37,0,0,1,0-.23l-.08-.07s0,0,0,0l-.35-.24-.13-.09c-.92-.71-1.94-1.87-3.52-2-3.2-.18-6.44-.74-9.68-.5-.78.06-6.17.69-7.91,1.57a.65.65,0,0,1-.09.19,3.89,3.89,0,0,0-.6,1.91A1,1,0,0,0,183.42,71.59Z"/><path class="cls-23" d="M189.54,75.08a11.09,11.09,0,0,0,.13-1.7,11.91,11.91,0,0,1,3.7-1.36,25.91,25.91,0,0,1,2.84-.54c2.79-.36,6.79-.72,9.62-.13a2.72,2.72,0,0,1-.65.91c-.34.3-3.43.33-4.11.36a35.06,35.06,0,0,0-5.65.72C193.64,73.71,190.81,74.2,189.54,75.08Z"/><path class="cls-24" d="M184.22,70.91c0-.1,0-.21,0-.31a14.25,14.25,0,0,0,4.64,2.74,3.71,3.71,0,0,0-.16,1.77,10.84,10.84,0,0,1-1.43-.94c-.49-.45-1.1-.86-1.62-1.3C184.89,72.22,184.13,71.77,184.22,70.91Z"/><path class="cls-25" d="M184.22,70c0-.29.59-.58,2.46-1a25.2,25.2,0,0,1,4.14-.7,76.91,76.91,0,0,1,10,.31,6.19,6.19,0,0,1,3.05,1,13.48,13.48,0,0,1,1.42,1.25.36.36,0,0,0-.18,0c-1.64,0-3.28-.23-4.93-.1-3.6.27-8.14.66-10.74,2.23a.36.36,0,0,0-.37,0,15.35,15.35,0,0,1-3.37-1.86c-.63-.47-1.35-.78-1.44-1.07A.15.15,0,0,1,184.22,70Z"/><path class="cls-22" d="M320.17,26.36a14.23,14.23,0,0,0,2.4,2.09,25.55,25.55,0,0,0,3.14,2h.06a.46.46,0,0,0,.49.09c3.06-2,8.38-2.39,12.66-2.78,2.12-.2,3.18-.08,3.66-.66a1.75,1.75,0,0,0,0-1.45.37.37,0,0,1,0-.23l-.08-.08s0,0,0,0l-.35-.23L342,25c-.92-.7-1.95-1.86-3.52-1.94-3.2-.18-6.44-.73-9.68-.5-.78.06-6.18.68-7.92,1.57a.6.6,0,0,1-.08.19,3.7,3.7,0,0,0-.6,1.91A.52.52,0,0,0,320.17,26.36Z"/><path class="cls-23" d="M326.29,29.85a10.77,10.77,0,0,0,.14-1.7,12.09,12.09,0,0,1,3.7-1.36,26.19,26.19,0,0,1,2.83-.54c2.8-.36,6.8-.71,9.63-.13a2.62,2.62,0,0,1-.66.91c-.34.3-3.42.33-4.1.36a34.51,34.51,0,0,0-5.64.72C330.4,28.48,327.56,29,326.29,29.85Z"/><path class="cls-24" d="M321,25.69c0-.11,0-.21,0-.32a14.44,14.44,0,0,0,4.66,2.74,3.59,3.59,0,0,0-.16,1.77,13.39,13.39,0,0,1-1.44-.94c-.49-.46-1.09-.86-1.62-1.3C321.65,27,320.88,26.54,321,25.69Z"/><path class="cls-25" d="M321,24.72c0-.29.59-.58,2.45-1a24,24,0,0,1,4.15-.7,78.79,78.79,0,0,1,10,.3,6.22,6.22,0,0,1,3,1A13.61,13.61,0,0,1,342,25.58a.32.32,0,0,0-.17,0c-1.64,0-3.29-.23-4.92-.11-3.62.28-8.16.66-10.75,2.23a.34.34,0,0,0-.37,0,14.89,14.89,0,0,1-3.37-1.86c-.64-.46-1.36-.77-1.45-1.07Z"/><path class="cls-22" d="M287.47,97a14.64,14.64,0,0,0,2.4,2.09,25.41,25.41,0,0,0,3.13,2h.06a.48.48,0,0,0,.48.1c3.08-2,8.4-2.39,12.67-2.79,2.12-.19,3.2-.08,3.67-.65a1.77,1.77,0,0,0,0-1.46.34.34,0,0,1,0-.22l-.08-.09s0,0,0,0a3,3,0,0,1-.35-.23l-.13-.1c-.92-.7-1.94-1.86-3.51-2-3.2-.16-6.44-.73-9.68-.49-.79.06-6.19.68-7.92,1.57a.41.41,0,0,1-.09.19,3.71,3.71,0,0,0-.59,1.91A.52.52,0,0,0,287.47,97Z"/><path class="cls-23" d="M293.59,100.47a9.92,9.92,0,0,0,.13-1.7,12.13,12.13,0,0,1,3.71-1.36,25.29,25.29,0,0,1,2.83-.54c2.79-.36,6.79-.71,9.62-.14a2.88,2.88,0,0,1-.64.92c-.36.3-3.44.33-4.11.36a35.63,35.63,0,0,0-5.64.72C297.69,99.09,294.87,99.6,293.59,100.47Z"/><path class="cls-24" d="M288.28,96.3c0-.11,0-.2,0-.31a14.76,14.76,0,0,0,4.65,2.74,3.72,3.72,0,0,0-.16,1.77,10.17,10.17,0,0,1-1.43-.94c-.49-.45-1.1-.86-1.63-1.31C289,97.6,288.18,97.16,288.28,96.3Z"/><path class="cls-25" d="M288.28,95.34c0-.29.58-.58,2.45-1a25,25,0,0,1,4.14-.7,75.38,75.38,0,0,1,10,.31,6.08,6.08,0,0,1,3,1,14.82,14.82,0,0,1,1.43,1.24l-.17,0c-1.65,0-3.28-.23-4.93-.1-3.61.27-8.15.65-10.75,2.24a.33.33,0,0,0-.37,0,14,14,0,0,1-3.37-1.87c-.63-.46-1.35-.76-1.44-1.06Z"/><path class="cls-22" d="M298.75,57a14.23,14.23,0,0,0,2.4,2.09,24.81,24.81,0,0,0,3.14,2h0a.48.48,0,0,0,.49.09c3.07-1.95,8.39-2.38,12.67-2.78,2.11-.2,3.19-.08,3.65-.66a1.73,1.73,0,0,0,0-1.46.34.34,0,0,1,0-.22c-.05,0-.06-.05-.09-.08s0,0,0,0l-.35-.23-.13-.1c-.91-.71-1.94-1.87-3.51-2-3.21-.17-6.45-.72-9.69-.49-.78.06-6.17.68-7.91,1.56a.64.64,0,0,1-.08.2,3.81,3.81,0,0,0-.61,1.91A.91.91,0,0,0,298.75,57Z"/><path class="cls-23" d="M304.86,60.47a9.29,9.29,0,0,0,.15-1.69,12.15,12.15,0,0,1,3.69-1.36,26.39,26.39,0,0,1,2.84-.55c2.8-.35,6.79-.71,9.62-.12a2.87,2.87,0,0,1-.65.92c-.35.29-3.43.32-4.11.34a35.51,35.51,0,0,0-5.63.73C309,59.1,306.15,59.61,304.86,60.47Z"/><path class="cls-24" d="M299.56,56.31c0-.1,0-.21,0-.31a14.61,14.61,0,0,0,4.64,2.74,3.58,3.58,0,0,0-.16,1.77,13,13,0,0,1-1.44-.95c-.48-.44-1.09-.86-1.62-1.3C300.23,57.61,299.46,57.17,299.56,56.31Z"/><path class="cls-25" d="M299.56,55.34c0-.28.58-.57,2.45-1a27.43,27.43,0,0,1,4.15-.7,80.7,80.7,0,0,1,10,.31,6.18,6.18,0,0,1,3,1,14,14,0,0,1,1.43,1.26.34.34,0,0,0-.17,0c-1.65,0-3.29-.23-4.93-.1-3.61.27-8.14.65-10.74,2.23a.36.36,0,0,0-.38,0A14.37,14.37,0,0,1,301,56.48c-.63-.47-1.35-.78-1.44-1.08Z"/><path class="cls-22" d="M113,88.35a13.06,13.06,0,0,0,2.4,2.08,23.26,23.26,0,0,0,3.13,2h.06a.49.49,0,0,0,.49.09c3.07-2,8.39-2.38,12.66-2.78,2.11-.2,3.19-.08,3.66-.66a1.73,1.73,0,0,0,0-1.46.42.42,0,0,1,0-.22l-.08-.07s0,0,0,0l-.35-.23-.13-.1c-.92-.71-1.95-1.87-3.51-2-3.21-.17-6.45-.72-9.69-.49-.78.06-6.18.69-7.91,1.56a.59.59,0,0,1-.09.2,3.8,3.8,0,0,0-.6,1.92A.81.81,0,0,0,113,88.35Z"/><path class="cls-23" d="M119.15,91.84a9.76,9.76,0,0,0,.14-1.7,12.19,12.19,0,0,1,3.7-1.36,25.91,25.91,0,0,1,2.84-.54c2.79-.37,6.79-.72,9.62-.13a2.87,2.87,0,0,1-.65.91c-.35.3-3.43.33-4.11.35a34.77,34.77,0,0,0-5.65.74C123.26,90.46,120.43,91,119.15,91.84Z"/><path class="cls-24" d="M113.84,87.68a3.16,3.16,0,0,1,0-.32,14.88,14.88,0,0,0,4.63,2.75,3.67,3.67,0,0,0-.15,1.77,14,14,0,0,1-1.43-.94c-.49-.46-1.1-.87-1.63-1.32C114.52,89,113.75,88.52,113.84,87.68Z"/><path class="cls-25" d="M113.84,86.7c0-.28.59-.57,2.46-1a25.85,25.85,0,0,1,4.15-.7,80.6,80.6,0,0,1,10,.31,6.29,6.29,0,0,1,3,1,13.81,13.81,0,0,1,1.43,1.26.36.36,0,0,0-.18,0c-1.64,0-3.28-.22-4.93-.11-3.6.28-8.14.66-10.74,2.24a.32.32,0,0,0-.37,0,14.81,14.81,0,0,1-3.38-1.87c-.62-.46-1.34-.77-1.44-1.06Z"/><path class="cls-26" d="M150.14,71.12a9.88,9.88,0,0,0,6.1-1.52c.7-.53,1.95-1.4,2.17-2a3.87,3.87,0,0,0-.3-2.69c-.89-1.25-3.84-1.37-5.87-1.95a41.55,41.55,0,0,0-13.42-1.33,47.53,47.53,0,0,0-7.46,1c-3.59.78-7.55,1.51-7.22,4.4.25,2.29,6.19,2.11,8.92,3,.49,1.09-.74.65-1.72,1.34,0,0,0,1.07,0,1.12-.69,1.74,8.93,1.92,10.78,1.92,1,0,1.89,0,2.81-.07a6.82,6.82,0,0,0,.76-.15C146.62,72.84,147.08,71,150.14,71.12Z"/><path class="cls-27" d="M150.14,70.14a10,10,0,0,0,6.1-1.51c.7-.53,1.95-1.4,2.17-2a2.93,2.93,0,0,0-.61-2.23c-.88-1.24-3.53-1.83-5.56-2.4a41.27,41.27,0,0,0-13.42-1.34,47.53,47.53,0,0,0-7.46,1c-3.59.77-6.18,2.2-7.13,4.28s6.1,2.22,8.83,3.16c.49,1.09-.74,1.62-1.72,2.31a.33.33,0,0,1,0,.14c-.69,1.75,8.93,1.92,10.78,1.92,1,0,1.89,0,2.81-.08a4.12,4.12,0,0,0,.76-.14C146.62,71.87,147.08,70.06,150.14,70.14Z"/><path class="cls-28" d="M155.07,63.89c-2.85-1.28-6.6-1.89-10.06-2.38a37.41,37.41,0,0,0-7-.32,31.79,31.79,0,0,0-8.57,1.69c-1.64.55-3.35,1.33-3.61,2.48s1.66,2.29,3.55,2.62c1.2.21,2.41.32,3.63.48a2.21,2.21,0,0,1,.76.23c1,.69.94,1.39-.19,2.43-1.34,1.23-2.81.77,2.58,1.19,1.63.12,3.31.24,4.94.39,5.73.55,3.94-.65,5.72-2.28.83-.77,1.54-.7,3-.68C155,69.82,160.15,66.16,155.07,63.89Z"/><path class="cls-29" d="M131.75,64.15c1.67-1.31,5-1.45,7.56-2a25.15,25.15,0,0,0-9.48,1.21c-3.39,1-3.15,3.84,1,4.12a8.39,8.39,0,0,0,1.35,0C131,66.43,130.47,65.16,131.75,64.15Z"/><path class="cls-29" d="M135,68s-.09,0-.07.06c.9.58.58,1.1.58,1.81,0,.2.4.14.54,0C136.82,69.23,136.83,68.09,135,68Z"/><path class="cls-26" d="M250,56.48a9.82,9.82,0,0,0,6.1-1.53c.7-.52,1.95-1.4,2.17-2a3.83,3.83,0,0,0-.31-2.69c-.88-1.25-3.84-1.36-5.86-1.94A41.55,41.55,0,0,0,238.69,47a47.82,47.82,0,0,0-7.47,1c-3.59.77-7.54,1.5-7.22,4.4.26,2.29,6.2,2.09,8.91,3,.51,1.08-.72.64-1.7,1.33,0,0,0,1.07,0,1.12-.69,1.73,8.94,1.92,10.78,1.92,1,0,1.9,0,2.81-.07.29,0,.52-.09.76-.14C246.49,58.2,247,56.39,250,56.48Z"/><path class="cls-27" d="M250,55.5a9.88,9.88,0,0,0,6.1-1.52c.7-.53,1.95-1.4,2.17-2a2.88,2.88,0,0,0-.62-2.22c-.87-1.25-3.53-1.83-5.55-2.42A41.83,41.83,0,0,0,238.69,46a49,49,0,0,0-7.47,1c-3.59.77-6.17,2.2-7.12,4.28s6.1,2.22,8.81,3.16c.51,1.09-.72,1.62-1.7,2.31,0,0,0,.09,0,.15-.69,1.73,8.94,1.92,10.78,1.92,1,0,1.9,0,2.81-.08a5.16,5.16,0,0,0,.76-.14C246.49,57.22,247,55.42,250,55.5Z"/><path class="cls-28" d="M254.92,49.23c-2.82-1.27-6.59-1.88-10-2.36a37.26,37.26,0,0,0-7-.34,31.79,31.79,0,0,0-8.58,1.71c-1.64.54-3.35,1.33-3.61,2.48s1.65,2.28,3.55,2.61c1.2.22,2.42.32,3.63.48a2.36,2.36,0,0,1,.76.23c1,.69.94,1.4-.18,2.43-1.34,1.23-2.81.78,2.57,1.2,1.65.11,3.32.23,4.94.39,5.73.54,3.95-.66,5.73-2.28.83-.77,1.54-.71,3-.69C254.82,55.17,260,51.51,254.92,49.23Z"/><path class="cls-29" d="M231.62,49.5c1.66-1.31,4.95-1.45,7.56-2a25,25,0,0,0-9.49,1.21c-3.39,1-3.14,3.83,1,4.11a9.48,9.48,0,0,0,1.35,0C230.82,51.79,230.33,50.51,231.62,49.5Z"/><path class="cls-29" d="M234.87,53.4c-.05,0-.1,0-.07.05.89.58.58,1.1.59,1.8,0,.21.39.15.53,0C236.68,54.59,236.69,53.43,234.87,53.4Z"/><path class="cls-26" d="M345.81,42.66a8.16,8.16,0,0,0,4.94-1.23c.56-.43,1.57-1.13,1.75-1.65a3.15,3.15,0,0,0-.26-2.16c-.7-1-3.09-1.1-4.73-1.57A32.83,32.83,0,0,0,336.68,35a37,37,0,0,0-6,.78c-2.89.63-6.09,1.22-5.84,3.56.21,1.85,5,1.69,7.21,2.45.4.88-.6.52-1.38,1.08,0,0,0,.87,0,.91-.56,1.39,7.21,1.55,8.69,1.55.79,0,1.53,0,2.28-.06l.61-.12C343,44.05,343.35,42.59,345.81,42.66Z"/><path class="cls-27" d="M345.81,41.87a8.16,8.16,0,0,0,4.94-1.22c.56-.43,1.57-1.13,1.75-1.65a2.43,2.43,0,0,0-.5-1.8c-.71-1-2.85-1.48-4.49-1.94a33.64,33.64,0,0,0-10.83-1.08,39.27,39.27,0,0,0-6,.8c-2.89.62-5,1.77-5.75,3.46S329.82,40.23,332,41c.4.88-.6,1.31-1.38,1.87,0,0,0,.07,0,.12-.56,1.4,7.21,1.55,8.69,1.55.79,0,1.53,0,2.28-.07.23,0,.41-.07.61-.1C343,43.26,343.35,41.81,345.81,41.87Z"/><path class="cls-28" d="M349.79,36.82a31.56,31.56,0,0,0-8.12-1.92,30.6,30.6,0,0,0-5.68-.27A25.6,25.6,0,0,0,329.08,36c-1.32.44-2.71,1.08-2.92,2s1.33,1.86,2.87,2.13c1,.16,1.94.25,2.93.38a2.23,2.23,0,0,1,.61.18c.83.56.76,1.13-.15,2-1.08,1-2.27.63,2.08,1,1.32.1,2.67.19,4,.32,4.63.44,3.18-.53,4.62-1.84.67-.63,1.25-.58,2.41-.55C349.69,41.6,353.89,38.65,349.79,36.82Z"/><path class="cls-29" d="M331,37c1.34-1.05,4-1.17,6.1-1.65a20.4,20.4,0,0,0-7.66,1c-2.73.79-2.53,3.09.84,3.31a5.92,5.92,0,0,0,1.08,0C330.33,38.87,329.93,37.85,331,37Z"/><path class="cls-29" d="M333.6,40.17s-.09,0-.05,0c.71.47.45.89.46,1.46,0,.16.31.12.43,0C335.06,41.14,335.07,40.21,333.6,40.17Z"/><path class="cls-26" d="M93.05,36a6.63,6.63,0,0,1-4.16-1.16c-.46-.37-1.28-1-1.4-1.45a2.7,2.7,0,0,1,.35-1.86c.67-.86,2.74-.88,4.17-1.25a29.24,29.24,0,0,1,9.38-.71,33.69,33.69,0,0,1,5.13.8c2.45.6,5.15,1.18,4.78,3.18-.29,1.59-4.4,1.36-6.33,2-.41.75.46.47,1.11,1,0,0-.07.74-.06.77.4,1.22-6.29,1.19-7.57,1.16-.67,0-1.32,0-2-.09-.2,0-.35-.07-.53-.11C95.41,37.22,95.17,36,93.05,36Z"/><path class="cls-27" d="M93.09,35.29a6.73,6.73,0,0,1-4.16-1.15c-.44-.38-1.28-1-1.4-1.45a2.16,2.16,0,0,1,.55-1.54c.68-.85,2.55-1.2,4-1.58a29,29,0,0,1,9.39-.7,31.89,31.89,0,0,1,5.13.8c2.44.59,4.16,1.63,4.71,3.1s-4.35,1.42-6.28,2c-.4.76.42,1.15,1.07,1.64a.34.34,0,0,0,0,.1c.39,1.22-6.3,1.19-7.58,1.16-.66,0-1.32-.06-2-.1a3.65,3.65,0,0,1-.52-.11C95.45,36.54,95.22,35.29,93.09,35.29Z"/><path class="cls-28" d="M90,30.86a28.12,28.12,0,0,1,7.1-1.48,25.77,25.77,0,0,1,4.89-.11,21.67,21.67,0,0,1,5.86,1.31c1.12.42,2.27,1,2.38,1.79s-1.26,1.56-2.59,1.76c-.85.12-1.69.18-2.54.27a1.55,1.55,0,0,0-.54.14c-.74.46-.73,1,0,1.69.87.89,1.91.59-1.84.79l-3.46.19c-4,.29-2.7-.52-3.84-1.67-.55-.55-1-.51-2-.53C89.78,35,86.36,32.36,90,30.86Z"/><path class="cls-29" d="M106.17,31.43c-1.09-.94-3.37-1.09-5.14-1.54a16.92,16.92,0,0,1,6.51,1c2.3.74,2,2.71-.92,2.84a6.88,6.88,0,0,1-.93,0C106.59,33,107,32.16,106.17,31.43Z"/><path class="cls-29" d="M103.71,34.07s.07,0,0,0c-.64.4-.45.75-.49,1.25,0,.14-.28.09-.38,0C102.39,34.88,102.44,34.07,103.71,34.07Z"/><path class="cls-26" d="M220.77,100.63a9.67,9.67,0,0,1-6-1.63c-.66-.53-1.87-1.43-2.05-2.07a3.83,3.83,0,0,1,.46-2.68c.93-1.22,3.9-1.29,5.95-1.84a41.89,41.89,0,0,1,13.49-1.11A47.92,47.92,0,0,1,240,92.41c3.54.83,7.45,1.64,7,4.52-.38,2.28-6.31,2-9.08,2.89-.55,1.07.7.66,1.64,1.36,0,0-.08,1.08-.05,1.13.59,1.74-9,1.76-10.88,1.72-1,0-1.89,0-2.8-.11l-.75-.15C224.2,102.41,223.83,100.6,220.77,100.63Z"/><path class="cls-27" d="M220.83,99.65a9.58,9.58,0,0,1-6-1.62c-.68-.53-1.88-1.43-2.06-2.07a3,3,0,0,1,.74-2.21c.94-1.23,3.62-1.77,5.67-2.32a41.61,41.61,0,0,1,13.49-1.1,47,47,0,0,1,7.42,1.1c3.54.84,6,2.3,6.88,4.4s-6.21,2.12-9,3c-.54,1.08.66,1.64,1.6,2.34a.38.38,0,0,0,0,.15c.6,1.75-9,1.77-10.87,1.74-1,0-1.9-.06-2.81-.12a7.23,7.23,0,0,1-.76-.16C224.26,101.43,223.87,99.62,220.83,99.65Z"/><path class="cls-28" d="M216.23,93.31a40.11,40.11,0,0,1,10.18-2.2,38.42,38.42,0,0,1,7-.21,31.29,31.29,0,0,1,8.48,1.84c1.61.57,3.28,1.4,3.48,2.54s-1.78,2.27-3.69,2.56c-1.21.19-2.42.28-3.66.42a2.56,2.56,0,0,0-.77.21c-1,.67-1,1.38.07,2.44,1.27,1.25,2.76.82-2.63,1.13-1.66.11-3.33.19-5,.33-5.75.44-3.9-.72-5.59-2.37-.79-.8-1.5-.74-2.95-.75C216,99.25,211,95.5,216.23,93.31Z"/><path class="cls-29" d="M239.52,94c-1.59-1.33-4.87-1.53-7.45-2.16a24.48,24.48,0,0,1,9.41,1.37c3.34,1,3,3.88-1.24,4.09a8.48,8.48,0,0,1-1.34-.06C240.18,96.26,240.74,95,239.52,94Z"/><path class="cls-29" d="M236.06,97.8c.05,0,.11,0,.06.07-.92.56-.63,1.09-.66,1.79,0,.2-.41.14-.54,0C234.19,99,234.24,97.81,236.06,97.8Z"/><path class="cls-26" d="M174.75,20.27a9.74,9.74,0,0,1-6-1.63c-.66-.53-1.86-1.43-2.05-2.07a3.92,3.92,0,0,1,.45-2.68c.94-1.23,3.91-1.3,6-1.84a41.58,41.58,0,0,1,13.48-1.11A45.57,45.57,0,0,1,194,12.05c3.54.83,7.45,1.63,7,4.52-.37,2.27-6.31,2-9.08,2.88-.55,1.08.69.66,1.64,1.37,0,.05-.08,1.07-.05,1.12.6,1.74-9,1.77-10.88,1.74-1,0-1.89-.07-2.81-.12l-.74-.15C178.17,22,177.8,20.23,174.75,20.27Z"/><path class="cls-27" d="M174.79,19.29a9.7,9.7,0,0,1-6-1.62c-.67-.54-1.87-1.43-2.06-2.08a3,3,0,0,1,.73-2.21c.95-1.23,3.63-1.76,5.68-2.31A42.2,42.2,0,0,1,186.61,10,49.15,49.15,0,0,1,194,11.07c3.54.83,6,2.3,6.9,4.4s-6.22,2.11-9,3c-.54,1.07.64,1.63,1.59,2.34,0,.05,0,.09,0,.15.6,1.75-9,1.76-10.87,1.74-1,0-1.9-.06-2.82-.13-.28,0-.5-.1-.75-.15C178.22,21.07,177.85,19.26,174.79,19.29Z"/><path class="cls-28" d="M170.2,13a39.61,39.61,0,0,1,10.17-2.2,36.88,36.88,0,0,1,7-.21,30.84,30.84,0,0,1,8.48,1.84c1.61.57,3.28,1.39,3.48,2.54s-1.78,2.26-3.69,2.55c-1.21.19-2.43.29-3.65.43a2.23,2.23,0,0,0-.77.21c-1.06.67-1,1.38.06,2.43,1.27,1.26,2.76.82-2.64,1.14-1.65.1-3.33.19-5,.32-5.75.45-3.91-.72-5.6-2.38-.8-.78-1.51-.73-2.94-.73C170,18.88,165,15.14,170.2,13Z"/><path class="cls-29" d="M193.48,13.6c-1.59-1.32-4.86-1.53-7.45-2.16a24.75,24.75,0,0,1,9.43,1.38c3.33,1,2.93,3.88-1.25,4.09a10.09,10.09,0,0,1-1.35-.06C194.16,15.89,194.72,14.63,193.48,13.6Z"/><path class="cls-29" d="M190,17.44c.05,0,.1,0,.06.07-.91.56-.62,1.08-.66,1.78,0,.21-.41.15-.54,0C188.16,18.6,188.21,17.45,190,17.44Z"/><path class="cls-26" d="M336.72,81.78A7.54,7.54,0,0,1,332,80.52c-.52-.42-1.46-1.12-1.61-1.62a3.07,3.07,0,0,1,.36-2.1c.73-1,3.05-1,4.65-1.44A32.89,32.89,0,0,1,346,74.49a37.38,37.38,0,0,1,5.79.87c2.77.65,5.82,1.28,5.46,3.54-.29,1.78-4.92,1.55-7.1,2.25-.43.85.55.52,1.29,1.06,0,0-.06.84,0,.89.47,1.36-7.06,1.37-8.5,1.35-.75,0-1.47,0-2.19-.09-.22,0-.41-.08-.59-.13C339.4,83.17,339.11,81.77,336.72,81.78Z"/><path class="cls-27" d="M336.76,81a7.52,7.52,0,0,1-4.71-1.26c-.52-.42-1.46-1.12-1.61-1.62A2.35,2.35,0,0,1,331,76.4c.73-1,2.83-1.38,4.44-1.8A32.43,32.43,0,0,1,346,73.73a38.38,38.38,0,0,1,5.8.86c2.77.66,4.72,1.81,5.38,3.45s-4.85,1.65-7,2.34c-.42.86.51,1.29,1.25,1.83,0,0,0,.08,0,.12.46,1.37-7.06,1.38-8.49,1.36-.75,0-1.48,0-2.2-.1-.22,0-.4-.08-.58-.12C339.44,82.41,339.15,81,336.76,81Z"/><path class="cls-28" d="M333.17,76.07a31.56,31.56,0,0,1,7.95-1.73,29.71,29.71,0,0,1,5.5-.16,24.24,24.24,0,0,1,6.63,1.44c1.26.45,2.56,1.09,2.71,2s-1.39,1.77-2.87,2c-.95.14-1.9.22-2.87.32a1.89,1.89,0,0,0-.59.17c-.82.52-.79,1.07,0,1.9,1,1,2.16.64-2.05.89-1.29.08-2.6.15-3.88.25-4.49.35-3.06-.56-4.37-1.86-.62-.61-1.18-.57-2.3-.57C333,80.7,329.1,77.78,333.17,76.07Z"/><path class="cls-29" d="M351.36,76.57c-1.24-1-3.81-1.18-5.81-1.68A19.09,19.09,0,0,1,352.9,76c2.6.81,2.29,3-1,3.19a7.06,7.06,0,0,1-1.05,0C351.89,78.37,352.32,77.39,351.36,76.57Z"/><path class="cls-29" d="M348.66,79.57s.09,0,0,.05c-.71.45-.49.85-.52,1.4,0,.17-.32.12-.43,0C347.2,80.48,347.23,79.58,348.66,79.57Z"/><path class="cls-30" d="M190.57,39.59a.15.15,0,0,0-.11-.14,7.17,7.17,0,0,1-.44-1.74c-.21-.72-.73-1.45-1-2.16-.1-.26,0-1-.79-1a24.67,24.67,0,0,0-2.72,0,39.31,39.31,0,0,0-5.62.07c-1.17,0-2.33.1-3.51.24a.39.39,0,0,0-.33.2.93.93,0,0,0-.08.45c-.31.6-.52,1.63-.32,1.17-.45,1-.92,2-1.27,3,0,0,0,0,0,0s-.07.07,0,.11a3.31,3.31,0,0,0,.41.82c.12.31.33.65.54,1.15.06.15,0,.69.35.78,1.22.36,3.4.06,4.74.06a63,63,0,0,0,9.44-.36C191.35,42,190.55,40.2,190.57,39.59Z"/><path class="cls-31" d="M187.23,42.06c-2.15.14-4.41.09-6.58.09-1.07,0-2.15,0-3.23,0-1.57,0-1.33-.45-1.62-1a6.82,6.82,0,0,1-.56-1.19.43.43,0,0,0,0-.12c1.91.15,4.26-.1,6.11-.1,2.78,0,5.69.37,8.45.06,0,.54,0,1.08,0,1.61C189.81,42.15,188,42,187.23,42.06Z"/><path class="cls-32" d="M189.17,39.57c-1.36,0-2.73,0-4.08-.07-2.41-.07-4.77-.17-7.18-.17-2.1,0-2.53.15-2.07-1.1.23-.63.08-1.75.6-2.45.05,0,.09-.07.09-.11v0a1.81,1.81,0,0,1,1.2-.5c1-.08,2-.19,3.07-.29l1,0c.83,0,5.9-.33,6.34,0s.53,1.34.75,1.8a6.24,6.24,0,0,1,.78,2.17C189.79,39.53,190.38,39.56,189.17,39.57Z"/><path class="cls-33" d="M177,37.12c-.06.51.44.82,1.2,1a6.36,6.36,0,0,0,2.76.37c2.06-.17,4.17-1.16,3.94-2C184.34,34.45,177.16,35.53,177,37.12Z"/><path class="cls-30" d="M285.55,19.75c0-.05,0-.08-.07-.1a5.14,5.14,0,0,1-.33-1.28,17,17,0,0,0-.76-1.62c-.06-.18,0-.73-.59-.76a19.22,19.22,0,0,0-2,0,29.38,29.38,0,0,0-4.18.05c-.86,0-1.72.07-2.59.18a.29.29,0,0,0-.25.15.77.77,0,0,0-.06.33c-.22.45-.39,1.21-.24.88-.32.73-.67,1.48-1,2.22,0,0,0,0,0,0s0,0,0,.07a2,2,0,0,0,.31.61c.08.24.23.48.39.86.05.1,0,.51.26.58A15.3,15.3,0,0,0,278,22a45.34,45.34,0,0,0,7-.25C286.13,21.52,285.54,20.21,285.55,19.75Z"/><path class="cls-31" d="M283.08,21.58c-1.61.1-3.28.08-4.89.08l-2.39,0c-1.16,0-1-.33-1.21-.76a5.4,5.4,0,0,1-.4-.89.41.41,0,0,1,0-.08c1.42.11,3.16-.07,4.54-.07a59.61,59.61,0,0,0,6.27,0c0,.39,0,.79,0,1.19C285,21.66,283.68,21.56,283.08,21.58Z"/><path class="cls-32" d="M284.51,19.74c-1,0-2,0-3-.06-1.79-.05-3.54-.12-5.33-.12-1.56,0-1.88.11-1.54-.82.18-.47.06-1.3.44-1.82.05,0,.08-.05.08-.07v0a1.31,1.31,0,0,1,.88-.37c.75-.06,1.51-.14,2.28-.22l.78,0c.62,0,4.39-.25,4.71,0s.38,1,.56,1.33a4.33,4.33,0,0,1,.57,1.61C285,19.71,285.41,19.73,284.51,19.74Z"/><path class="cls-33" d="M275.47,17.92c0,.38.33.61.89.7a4.69,4.69,0,0,0,2.05.27c1.54-.12,3.09-.85,2.93-1.47C280.92,15.93,275.6,16.74,275.47,17.92Z"/><path class="cls-30" d="M249.78,43.57a.08.08,0,0,0-.07-.08,5.16,5.16,0,0,1-.23-.94c-.11-.4-.39-.79-.54-1.18-.05-.14,0-.53-.43-.55s-1,0-1.47,0a21,21,0,0,0-3.06,0,17.68,17.68,0,0,0-1.91.13.29.29,0,0,0-.18.1.87.87,0,0,0,0,.25c-.17.33-.29.88-.18.64-.23.53-.5,1.08-.69,1.62v0s0,0,0,0a1.74,1.74,0,0,0,.23.45c.06.17.18.35.3.62,0,.08,0,.38.18.42a11.08,11.08,0,0,0,2.58,0,33.4,33.4,0,0,0,5.11-.19C250.2,44.86,249.77,43.9,249.78,43.57Z"/><path class="cls-31" d="M248,44.91c-1.17.07-2.39,0-3.57.05l-1.75,0c-.85,0-.73-.25-.88-.56a4.42,4.42,0,0,1-.3-.65.13.13,0,0,1,0-.06c1,.08,2.31-.05,3.32-.05a43.56,43.56,0,0,0,4.57,0c0,.29,0,.58,0,.87S248.41,44.88,248,44.91Z"/><path class="cls-32" d="M249,43.55c-.73,0-1.48,0-2.21,0-1.3,0-2.59-.08-3.89-.08-1.15,0-1.38.08-1.13-.6.13-.34,0-.95.33-1.33,0,0,0,0,0-.06h0a.92.92,0,0,1,.65-.28c.55,0,1.1-.1,1.66-.16h.57a19.52,19.52,0,0,1,3.44,0c.23.19.28.72.41,1a3.35,3.35,0,0,1,.42,1.18C249.36,43.54,249.67,43.55,249,43.55Z"/><path class="cls-33" d="M242.42,42.22c0,.29.23.45.64.52a3.81,3.81,0,0,0,1.5.21c1.12-.1,2.26-.64,2.13-1.09C246.4,40.78,242.5,41.36,242.42,42.22Z"/><path class="cls-30" d="M112.75,44.21s0-.06-.06-.07a5.64,5.64,0,0,1-.24-.94,12.51,12.51,0,0,0-.54-1.19c0-.12,0-.52-.43-.55a14.4,14.4,0,0,0-1.47,0,22.5,22.5,0,0,0-3.06,0c-.64,0-1.26.06-1.9.13a.19.19,0,0,0-.18.12.57.57,0,0,0,0,.24c-.17.32-.28.88-.17.63-.25.54-.5,1.08-.7,1.63h0s0,0,0,.06a1.55,1.55,0,0,0,.23.44c.06.17.17.36.29.62,0,.09,0,.38.18.43a11.64,11.64,0,0,0,2.58,0,36.24,36.24,0,0,0,5.12-.2C113.18,45.5,112.75,44.54,112.75,44.21Z"/><path class="cls-31" d="M111,45.55c-1.17.08-2.4.05-3.58.05l-1.75,0c-.84,0-.72-.25-.88-.56a3.52,3.52,0,0,1-.3-.64s0-.05,0-.07c1,.08,2.31-.05,3.32-.05a43.73,43.73,0,0,0,4.58,0c0,.3,0,.58,0,.88S111.39,45.53,111,45.55Z"/><path class="cls-32" d="M112,44.2c-.72,0-1.47,0-2.21,0-1.3,0-2.59-.09-3.89-.09s-1.38.08-1.13-.6c.13-.34,0-.95.33-1.33,0,0,0,0,0-.06h0a.92.92,0,0,1,.65-.27c.54,0,1.11-.1,1.66-.16l.57,0a19.65,19.65,0,0,1,3.44,0c.23.2.28.73.42,1a3.35,3.35,0,0,1,.41,1.17C112.34,44.18,112.65,44.19,112,44.2Z"/><path class="cls-33" d="M105.39,42.88c0,.27.24.43.65.51a3.44,3.44,0,0,0,1.49.2c1.13-.09,2.27-.63,2.14-1.08C109.37,41.43,105.48,42,105.39,42.88Z"/><path class="cls-30" d="M190.9,88.35a.07.07,0,0,0-.06-.07,4.48,4.48,0,0,1-.24-.94c-.11-.4-.39-.79-.54-1.19-.05-.13,0-.53-.43-.55s-1,0-1.47,0a20.84,20.84,0,0,0-3,0c-.65,0-1.27,0-1.91.12q-.15,0-.18.12a.45.45,0,0,0,0,.24c-.17.32-.29.88-.18.64-.23.53-.5,1.08-.69,1.62a0,0,0,0,1,0,0s0,0,0,.06a1.6,1.6,0,0,0,.24.44c.06.18.17.36.28.63,0,.08,0,.37.19.43a12.32,12.32,0,0,0,2.58,0,33.49,33.49,0,0,0,5.12-.19C191.32,89.65,190.89,88.68,190.9,88.35Z"/><path class="cls-31" d="M189.09,89.7c-1.16.07-2.38,0-3.57,0-.58,0-1.17,0-1.75,0-.85,0-.72-.25-.88-.56a3.63,3.63,0,0,1-.3-.66s0,0,0,0c1,.08,2.32-.06,3.32-.06a43.94,43.94,0,0,0,4.59,0c0,.3,0,.58,0,.88S189.54,89.67,189.09,89.7Z"/><path class="cls-32" d="M190.14,88.34c-.73,0-1.48,0-2.21,0-1.3,0-2.59-.08-3.9-.08-1.14,0-1.36.07-1.12-.61.13-.33,0-.94.32-1.32a.08.08,0,0,0,.05-.06,0,0,0,0,1,0,0,1,1,0,0,1,.64-.27c.55,0,1.11-.1,1.67-.16h.58a19.49,19.49,0,0,1,3.43,0c.23.2.28.73.41,1a3.56,3.56,0,0,1,.42,1.18C190.48,88.32,190.8,88.34,190.14,88.34Z"/><path class="cls-33" d="M183.53,87c0,.28.24.45.66.52a3.57,3.57,0,0,0,1.49.2c1.13-.09,2.26-.62,2.13-1.08C187.52,85.56,183.62,86.15,183.53,87Z"/><path class="cls-30" d="M282.76,59.89a.08.08,0,0,0-.06-.08,4.64,4.64,0,0,1-.24-.94,11.56,11.56,0,0,0-.55-1.19c0-.13,0-.52-.42-.55a14.44,14.44,0,0,0-1.47,0,21,21,0,0,0-3.06,0c-.64,0-1.26.05-1.91.13a.19.19,0,0,0-.17.11.64.64,0,0,0,0,.25c-.18.32-.29.88-.18.63-.23.54-.49,1.09-.69,1.63a0,0,0,0,1,0,0s0,0,0,0a1.48,1.48,0,0,0,.23.45c.05.18.17.36.28.63,0,.08,0,.37.19.42a11.57,11.57,0,0,0,2.57,0,34.81,34.81,0,0,0,5.12-.19C283.18,61.17,282.75,60.21,282.76,59.89Z"/><path class="cls-31" d="M281,61.23c-1.17.06-2.39,0-3.57,0l-1.76,0c-.84,0-.72-.24-.87-.56a4.6,4.6,0,0,1-.31-.65.15.15,0,0,0,0-.06c1,.07,2.32-.05,3.32-.05,1.51,0,3.08.2,4.58,0,0,.28,0,.57,0,.86S281.39,61.19,281,61.23Z"/><path class="cls-32" d="M282,59.86c-.73,0-1.48,0-2.21,0-1.3,0-2.59-.09-3.9-.09-1.14,0-1.37.08-1.12-.6.12-.35,0-.94.32-1.33,0,0,.05,0,.05-.06h0a1,1,0,0,1,.64-.27c.55,0,1.11-.1,1.66-.17l.58,0a19.58,19.58,0,0,1,3.44,0c.23.19.28.73.41,1a3.3,3.3,0,0,1,.42,1.17C282.34,59.84,282.65,59.86,282,59.86Z"/><path class="cls-33" d="M275.39,58.54c0,.28.25.44.65.52a3.44,3.44,0,0,0,1.49.19c1.13-.08,2.27-.62,2.14-1.07C279.38,57.09,275.49,57.68,275.39,58.54Z"/><path class="cls-30" d="M112.61,74.88a.12.12,0,0,0-.08-.11,4.93,4.93,0,0,1-.33-1.28,15.55,15.55,0,0,0-.75-1.61c-.07-.19,0-.73-.59-.76s-1.33,0-2,0a26.56,26.56,0,0,0-4.17.06,23,23,0,0,0-2.61.17c-.13,0-.22.08-.24.15a.64.64,0,0,0-.06.33c-.23.44-.39,1.21-.24.87-.33.74-.68,1.49-1,2.23l0,0a.09.09,0,0,0,0,.07,2.2,2.2,0,0,0,.31.61c.09.24.24.49.4.86,0,.1,0,.51.26.58a16.58,16.58,0,0,0,3.53,0,47.94,47.94,0,0,0,7-.26C113.19,76.65,112.6,75.33,112.61,74.88Z"/><path class="cls-31" d="M110.13,76.71c-1.6.1-3.27.07-4.88.07l-2.4,0c-1.16,0-1-.32-1.2-.76a5.49,5.49,0,0,1-.41-.88s0-.06,0-.08c1.42.1,3.16-.08,4.54-.08a59.63,59.63,0,0,0,6.27,0c0,.39,0,.79,0,1.19S110.74,76.68,110.13,76.71Z"/><path class="cls-32" d="M111.57,74.87c-1,0-2,0-3-.06-1.78,0-3.53-.12-5.32-.12-1.57,0-1.88.11-1.54-.82.17-.47,0-1.3.44-1.82,0,0,.07,0,.07-.08s0,0,0,0a1.29,1.29,0,0,1,.88-.37c.75-.06,1.52-.14,2.28-.22.28,0,.57,0,.78,0,.62,0,4.38-.24,4.71,0s.38,1,.56,1.34a4.71,4.71,0,0,1,.57,1.61C112,74.84,112.47,74.86,111.57,74.87Z"/><path class="cls-33" d="M102.53,73c0,.39.33.61.88.71a4.86,4.86,0,0,0,2,.28c1.54-.13,3.1-.86,2.93-1.48C108,71.06,102.67,71.87,102.53,73Z"/><path class="cls-30" d="M263.83,105.29c0-.05,0-.08-.07-.11a5.39,5.39,0,0,1-.34-1.28c-.15-.54-.54-1.07-.74-1.61-.07-.19,0-.73-.59-.76s-1.34,0-2,0a29.36,29.36,0,0,0-4.18,0c-.86,0-1.71.07-2.6.18a.26.26,0,0,0-.24.16.71.71,0,0,0-.06.32c-.23.45-.39,1.21-.24.87-.33.74-.68,1.5-.94,2.22a0,0,0,0,0,0,0s0,0,0,.07a1.9,1.9,0,0,0,.31.62c.09.23.23.48.4.85,0,.12,0,.51.25.58a15.34,15.34,0,0,0,3.53.05,46.48,46.48,0,0,0,7-.26C264.41,107.07,263.82,105.74,263.83,105.29Z"/><path class="cls-31" d="M261.35,107.13c-1.6.1-3.26.07-4.87.07l-2.41,0c-1.16,0-1-.33-1.19-.76a4.32,4.32,0,0,1-.42-.89s0-.06,0-.09c1.42.11,3.16-.07,4.53-.07a57.24,57.24,0,0,0,6.28,0c0,.39,0,.79,0,1.19S262,107.09,261.35,107.13Z"/><path class="cls-32" d="M262.79,105.27c-1,0-2,0-3,0-1.79,0-3.55-.12-5.32-.12-1.57,0-1.88.12-1.55-.82.17-.46.06-1.3.44-1.82,0,0,.07,0,.07-.07s0,0,0,0a1.27,1.27,0,0,1,.88-.38c.75-.06,1.52-.14,2.28-.22l.78,0c.62,0,4.38-.25,4.71,0s.39,1,.56,1.34a4.27,4.27,0,0,1,.57,1.61C263.25,105.24,263.69,105.26,262.79,105.27Z"/><path class="cls-33" d="M253.76,103.45c0,.39.32.62.88.72a4.83,4.83,0,0,0,2.05.26c1.53-.12,3.1-.86,2.92-1.47C259.2,101.47,253.88,102.27,253.76,103.45Z"/><path class="cls-30" d="M359.47,49.46a.13.13,0,0,0-.08-.12,5.85,5.85,0,0,1-.32-1.28c-.15-.54-.55-1.08-.75-1.61-.07-.19,0-.73-.59-.76a19.24,19.24,0,0,0-2,0,26.7,26.7,0,0,0-4.18.06,23,23,0,0,0-2.6.17.29.29,0,0,0-.25.15.73.73,0,0,0-.05.33c-.23.44-.39,1.21-.24.87-.33.73-.68,1.49-.95,2.23h0s0,.06,0,.08a2.2,2.2,0,0,0,.31.61c.09.23.23.48.4.85,0,.11,0,.52.25.59a15.38,15.38,0,0,0,3.53,0,46.54,46.54,0,0,0,7-.25C360.06,51.22,359.46,49.9,359.47,49.46Z"/><path class="cls-31" d="M357,51.28c-1.6.1-3.27.07-4.88.07q-1.2,0-2.4,0c-1.16,0-1-.33-1.2-.76a4.79,4.79,0,0,1-.41-.89s0-.07,0-.08c1.42.1,3.16-.08,4.54-.08a62.49,62.49,0,0,0,6.27,0c0,.4,0,.79,0,1.19S357.61,51.25,357,51.28Z"/><path class="cls-32" d="M358.43,49.43c-1,0-2,0-3-.06-1.78,0-3.54-.11-5.32-.11-1.57,0-1.89.11-1.54-.82.17-.47.05-1.3.44-1.83,0,0,.07,0,.07-.07v0a1.29,1.29,0,0,1,.88-.37c.75,0,1.52-.14,2.27-.23l.78,0c.63,0,4.39-.24,4.71,0s.39,1,.56,1.33a5.18,5.18,0,0,1,.58,1.62C358.9,49.4,359.33,49.43,358.43,49.43Z"/><path class="cls-33" d="M349.4,47.61c0,.39.33.61.89.71a4.48,4.48,0,0,0,2,.27c1.54-.12,3.1-.85,2.93-1.47C354.85,45.64,349.52,46.44,349.4,47.61Z"/><path class="cls-19" d="M337.07,15.86s79.75,17.41,59.37,56.36c0,0-9.83,8.65-6.16,8.2s20.51-14.93,12.1-31S363.42,20.42,337.07,15.86Z"/><g class="cls-18"><path class="cls-19" d="M306.78,45.37a30.74,30.74,0,0,0-3.46.07,33.15,33.15,0,0,0-7.31,1c-2.12.11-3.68,2.52-.58,2.38,2.46-.12,4.84-.4,7.35-.49,2-.06,4.26.42,5.76-.57C310.22,46.64,308.67,45.48,306.78,45.37Z"/><path class="cls-19" d="M323.21,42.42a27.58,27.58,0,0,0-3.13-.83,33.9,33.9,0,0,0-7.28-1c-2-.43-5.29,1.32-2.42,2,2.3.52,4.65.87,6.92,1.43,1.82.46,3.49,1.46,5.61,1C325.28,44.4,324.81,43,323.21,42.42Z"/><path class="cls-19" d="M307.85,53.83a24.85,24.85,0,0,0-2.65-.38,27.8,27.8,0,0,0-5.91-.19c-1.64-.18-3.78,1.46-1.37,1.74,1.91.21,3.83.3,5.75.55,1.52.21,3.07.84,4.6.29C310,55.21,309.25,54.15,307.85,53.83Z"/><path class="cls-19" d="M325.43,48.67a26.15,26.15,0,0,0-2.68.31,23.59,23.59,0,0,0-5.43,1.31c-1.61.25-2.25,2.24.12,1.89,1.88-.28,3.65-.68,5.58-.94,1.53-.19,3.41,0,4.35-.89S326.92,48.6,325.43,48.67Z"/><path class="cls-19" d="M340.81,55.12a49.14,49.14,0,0,0-10.78,1c-2.12.11-3.68,2.53-.57,2.38,2.46-.12,4.84-.4,7.34-.47,2-.07,4.28.4,5.78-.58C344.25,56.38,342.7,55.23,340.81,55.12Z"/><path class="cls-19" d="M357.24,52.17a25.63,25.63,0,0,0-3.13-.83,33.37,33.37,0,0,0-7.28-1c-2-.43-5.29,1.31-2.42,2,2.29.52,4.65.86,6.92,1.43,1.82.45,3.49,1.45,5.61,1C359.31,54.15,358.85,52.73,357.24,52.17Z"/><path class="cls-19" d="M341.88,63.58a22.84,22.84,0,0,0-2.65-.38,28.5,28.5,0,0,0-5.91-.2c-1.66-.16-3.79,1.47-1.38,1.74,1.92.23,3.83.3,5.75.56,1.53.2,3.09.84,4.62.29C344,65,343.28,63.89,341.88,63.58Z"/><path class="cls-19" d="M359.45,58.41a23,23,0,0,0-2.66.32,23.55,23.55,0,0,0-5.44,1.3c-1.61.26-2.25,2.25.12,1.9,1.88-.29,3.66-.69,5.58-.93,1.52-.21,3.41,0,4.34-.91S360.94,58.34,359.45,58.41Z"/><path class="cls-19" d="M333,31.6a30.78,30.78,0,0,0-3.46.06,34,34,0,0,0-7.31,1c-2.11.12-3.68,2.53-.58,2.38,2.46-.11,4.85-.4,7.35-.47,2-.07,4.27.4,5.77-.58C336.46,32.85,334.92,31.69,333,31.6Z"/><path class="cls-19" d="M364.82,32.9a26.51,26.51,0,0,0-3.13-.83,34.53,34.53,0,0,0-7.27-1c-2-.43-5.29,1.32-2.42,2,2.29.52,4.65.87,6.92,1.44,1.81.45,3.48,1.45,5.6.95C366.89,34.89,366.43,33.46,364.82,32.9Z"/><path class="cls-19" d="M349.67,42a24.66,24.66,0,0,0-2.64-.38,29.3,29.3,0,0,0-5.92-.19c-1.64-.17-3.78,1.46-1.37,1.74,1.92.22,3.83.3,5.75.55,1.53.21,3.08.84,4.6.29C351.79,43.41,351.07,42.34,349.67,42Z"/><path class="cls-19" d="M379.29,36.86a25.44,25.44,0,0,0-2.66.31,23.51,23.51,0,0,0-5.45,1.31c-1.61.25-2.25,2.24.12,1.89,1.88-.28,3.66-.69,5.58-.93,1.53-.2,3.43,0,4.35-.9S380.78,36.79,379.29,36.86Z"/><path class="cls-19" d="M367.08,46a18.91,18.91,0,0,0-2.26,0,22,22,0,0,0-4.79.63c-1.38.07-2.4,1.65-.36,1.55,1.61-.07,3.16-.26,4.79-.31,1.3,0,2.8.27,3.77-.38S368.33,46,367.08,46Z"/><path class="cls-19" d="M388.83,45.08a16,16,0,0,0-2-.54,21.77,21.77,0,0,0-4.76-.66c-1.29-.28-3.45.87-1.57,1.3,1.49.33,3,.57,4.52.94,1.18.29,2.28,1,3.68.62S389.89,45.45,388.83,45.08Z"/><path class="cls-19" d="M378.79,52.54a13.44,13.44,0,0,0-1.72-.24,17.91,17.91,0,0,0-3.87-.13c-1.07-.11-2.47.95-.9,1.13,1.25.15,2.5.2,3.76.37,1,.13,2,.55,3,.18S379.71,52.75,378.79,52.54Z"/><path class="cls-19" d="M390.29,49.17a14.19,14.19,0,0,0-1.75.2,15,15,0,0,0-3.56.86c-1.05.16-1.46,1.47.09,1.24,1.23-.19,2.39-.46,3.64-.62,1-.13,2.25,0,2.84-.58S391.26,49.12,390.29,49.17Z"/></g></g></g></svg>